<?xml version="1.0" encoding="utf-8"?>
<!-- Generator: Adobe Illustrator 26.5.0, SVG Export Plug-In . SVG Version: 6.00 Build 0)  -->
<svg version="1.1" id="Layer_1" xmlns="http://www.w3.org/2000/svg" xmlns:xlink="http://www.w3.org/1999/xlink" x="0px" y="0px"
	 viewBox="0 0 376 376" style="enable-background:new 0 0 376 376;" xml:space="preserve">
<path d="M342.3,0H33.7C15.1,0,0,15.1,0,33.7v308.6C0,360.9,15.1,376,33.7,376h308.6c18.6,0,33.7-15.1,33.7-33.7V33.7
	C376,15.1,360.9,0,342.3,0z M325.8,225.8c-5.6,7.6-10.6,15.7-14.7,24.1L311,250c-2.7,5.8-6.2,11-10.5,15.5c-2.8,2.9-6.1,5.3-9.6,7
	c-2.2,1-4.1,1.6-6,1.9L197,186.5l86.1-86c0.2,0,0.5,0,0.7,0l1.7,0.2c1.7,0.3,3.4,0.9,5,1.7c3.7,1.8,7.1,4.2,9.8,6.9
	c4.3,4.4,8,9.8,10.8,15.7c4.2,8.4,9.2,16.5,14.7,24c4.5,6.3,9.9,13.1,16.9,21.4c5.9,6.9,11.4,12.7,15.6,17.1
	c-3.5,3.6-9.1,9.5-15.6,17C336.2,211.9,330.5,219.2,325.8,225.8z M65,250c-4.2-8.4-9.2-16.5-14.7-24c-4.4-6.2-10-13.2-16.9-21.4
	c-5.9-6.9-11.4-12.7-15.6-17.1c3.5-3.6,9.2-9.6,15.5-17c6.5-7.5,12.2-14.7,16.9-21.4c5.8-8,10.8-16.1,14.7-24.1l0.1-0.1
	c2.7-5.8,6.2-11,10.5-15.5c2.9-2.9,6.2-5.3,9.6-6.9c2.3-1,4.4-1.7,6.5-2c0.5,0.2,1.1,0.4,1.7,0.4l85.8,85.7l-87.7,87.7
	c-2-0.3-3.9-0.9-5.8-1.8c-3.7-1.8-7.1-4.2-9.7-6.9C71.3,261.1,67.7,255.8,65,250z M249.8,64.4l0.1,0.1c5.8,2.7,11,6.2,15.5,10.5
	c2.9,2.9,5.3,6.2,6.9,9.6c1,2.2,1.6,4.2,2,6.2l-1.9-0.2l1.5,1.5L188,177.8l-87.4-87.6c0.3-1.9,0.9-3.7,1.7-5.5
	c1.8-3.7,4.2-7.1,6.9-9.8c4.4-4.3,9.8-8,15.7-10.8c8.4-4.2,16.5-9.2,24-14.7c6.2-4.4,13.2-10,21.4-16.9c6.8-5.8,12.6-11.3,17-15.5
	c3.6,3.5,9.6,9.2,17.1,15.7c7.5,6.5,14.7,12.2,21.4,16.9C233.8,55.5,241.9,60.4,249.8,64.4z M126.2,310.6l-0.1-0.1
	c-5.8-2.7-11-6.2-15.5-10.5c-2.9-2.9-5.3-6.2-6.9-9.6c-1.1-2.5-1.8-4.8-2.1-7.1c-0.1-0.5-0.1-1.1-0.2-1.5l86.6-86.6l87.6,87.6v0.5
	c-0.4,2.6-1,4.8-1.9,6.6c-1.8,3.7-4.2,7.1-6.9,9.8c-4.4,4.3-9.8,8-15.7,10.8c-8.4,4.2-16.5,9.2-24,14.7
	c-6.7,4.8-13.9,10.5-21.4,16.9c-6.9,5.9-12.7,11.4-17,15.6l-4.9-4.9v0.4c-3.3-3.1-7.5-6.9-12.2-10.9c-7.5-6.5-14.7-12.2-21.4-16.9
	C142.7,319.8,134.6,314.8,126.2,310.6z M363.3,174.3c-3.1-3.3-6.9-7.4-11-12.2c-6-7-11.5-13.9-16.3-20.5
	c-5.2-7.1-9.8-14.6-13.6-22.2c-3.2-7-7.6-13.5-13.1-19c-3.9-4-8.4-7.2-13.4-9.6c-0.7-0.4-1.5-0.7-2.3-1L360,23.4
	c2.2,3.5,3.3,7.6,3.3,11.9V174.3z M284.8,81c-0.2-0.5-0.4-1-0.7-1.6c-2.4-5.1-5.6-9.6-9.6-13.5c-5.5-5.3-11.9-9.7-19-13.1
	c-7.6-3.8-15.1-8.4-22.2-13.6c-6.7-4.8-13.6-10.3-20.5-16.3c-4.4-3.8-8.3-7.3-11.4-10.2h139.2c3.6,0,7,0.8,10.1,2.4L284.8,81z
	 M173.4,12.7c-3.2,3-7,6.5-11.4,10.2c-7,6-13.9,11.5-20.5,16.3c-7.1,5.2-14.6,9.8-22.2,13.6c-7,3.2-13.5,7.6-19,13.1
	c-4,3.9-7.2,8.4-9.6,13.5c-0.1,0.2-0.2,0.5-0.3,0.7l-65.1-65c3.1-1.6,6.5-2.4,10.1-2.4H173.4z M82.4,89.7c-0.8,0.3-1.5,0.6-2.3,0.9
	c-5.1,2.4-9.6,5.6-13.5,9.6c-5.3,5.5-9.7,11.9-13.1,19c-3.8,7.6-8.4,15.1-13.6,22.2c-4.8,6.7-10.3,13.6-16.3,20.5
	c-4.1,4.7-7.9,8.9-11,12.2V35.4c0-4.2,1.2-8.3,3.4-11.9L82.4,89.7z M12.7,200.6c3.1,3.3,6.9,7.4,11,12.1c6,7,11.5,13.9,16.3,20.5
	c5.2,7.1,9.8,14.6,13.6,22.2c3.4,7.2,7.8,13.6,13.1,19c3.8,3.9,8.3,7.1,13.5,9.6c0.3,0.1,0.6,0.3,1,0.4L15,350.7
	c-1.5-3.1-2.3-6.5-2.3-10V200.6z M90.8,292.6c0.3,0.9,0.7,1.9,1.1,2.8l0,0.1c2.4,5.1,5.6,9.6,9.6,13.5c5.5,5.3,11.9,9.7,19,13.1
	c7.6,3.8,15.1,8.4,22.2,13.6c6.7,4.9,13.6,10.3,20.5,16.3c4.2,3.6,8.5,7.5,12.7,11.4H39.7v-0.1h-4.4c-4.3,0-8.4-1.2-11.9-3.4
	L90.8,292.6z M340.6,363.3H201.4c3.3-3.2,7.7-7.1,12.7-11.4c7-6,13.9-11.5,20.5-16.3c7.1-5.2,14.6-9.8,22.2-13.6
	c7-3.2,13.5-7.6,19-13.1c4-3.9,7.2-8.4,9.6-13.6c0.3-0.7,0.6-1.4,0.9-2.1l66.5,66.5C349.1,362.1,345,363.3,340.6,363.3z M295,284.6
	c0.2-0.1,0.4-0.2,0.6-0.3l0.2-0.1c5.1-2.4,9.6-5.6,13.5-9.6c5.3-5.5,9.7-11.9,13.1-19c3.8-7.6,8.4-15.1,13.6-22.2
	c4.8-6.7,10.3-13.6,16.3-20.5c4-4.7,7.9-8.9,11-12.2v139.9c0,3.5-0.8,6.9-2.2,9.9L295,284.6z"/>
</svg>
