<?xml version="1.0" encoding="utf-8"?>
<!-- Generator: Adobe Illustrator 27.1.1, SVG Export Plug-In . SVG Version: 6.00 Build 0)  -->
<svg xmlns="http://www.w3.org/2000/svg" xmlns:xlink="http://www.w3.org/1999/xlink" version="1.1" id="Layer_1" x="0px" y="0px" viewBox="0 0 512 512" style="enable-background:new 0 0 512 512;" xml:space="preserve">
<style type="text/css">
	.st0{fill:#8d4628;}
</style>
<g id="wmrqzt.tif">
	<g>
		<path class="st0" d="M5.2,237.6c1.3-8.8,2.2-17.8,3.9-26.5C24.5,131,68.3,71.6,139.8,32.9C182.4,9.8,228.5,1.4,276.8,5.2    c44.4,3.6,84.8,18.2,121.4,43.4c2.4,1.7,4.6,4.8,5.2,7.6c0.4,1.8-1.8,5.5-3.6,6.1c-2.5,0.9-6.2,0.5-8.6-0.8    c-12-6.5-23.4-14.3-35.7-20.2c-36.3-17.3-74.8-24.9-115-21.4C145.8,28.3,78.6,76.6,39,162.6c-15.7,34.2-21.7,70.8-18.3,108.3    c8.7,95.5,57.6,162.6,144.7,202.3c4.4,2,9.1,3.6,13.7,5.3c6,2.2,8.1,5.6,6.5,10.1c-1.7,4.6-5.4,5.9-11.3,3.9    c-47.4-16.4-86.4-44.5-117.1-84.2C28.4,370.9,11.7,328.7,6.4,282c-0.3-3.1-0.8-6.1-1.2-9.1C5.2,261.1,5.2,249.3,5.2,237.6z"/>
		<path class="st0" d="M238.4,506c-9-1.3-18-2.6-27-3.9c-1.8-0.3-3.5-0.6-5.3-1c-4.7-1.1-7.5-4.7-6.7-8.7c0.8-4.2,4.3-6.5,9.2-5.9    c6.9,0.9,13.8,2.3,20.8,3.1c45.2,5.2,88.6-1.7,129.3-22c64.9-32.3,108.4-83.5,125.7-154.1c20.8-84.6,0-159.3-59.5-223.1    c-1.8-1.9-3.7-3.7-5.5-5.6c-3.4-3.6-3.7-7.9-0.9-10.9c3-3.3,7.4-3.4,11.3,0.3c15,14.4,28.1,30.4,39.1,48.1    c27.9,45,40.5,94,37.7,146.8c-5.9,114.7-91.5,212.2-204,232.7c-9.6,1.7-19.3,2.8-28.9,4.2C261.9,506,250.1,506,238.4,506z"/>
		<path class="st0" d="M316.5,281.5c7.4,4.3,14.9,8.6,22.3,12.9c1.6,0.9,3.2,1.7,4.6,2.8c3.6,2.6,4.5,6.3,2.6,9.8    c-2,3.6-6.1,5-10.1,2.8c-7.6-4.1-15-8.6-22.5-12.9c-1.5-0.9-3.1-1.7-3.7-2c-4.7,4.8-9.1,9.2-14,14.2c4.1,7.2,9,15.4,13.6,23.8    c1.1,1.9,2.7,4.6,2.1,6.2c-0.9,2.6-3,5.5-5.4,6.7c-3.5,1.7-6.6-0.5-8.5-3.8c-4.5-7.6-8.9-15.2-13.2-22.9c-1.5-2.7-2.9-3.8-6.1-2.4    c-3.1,1.4-6.5,2.6-9.8,2.8c-4.6,0.2-5.1,2.5-5,6.3c0.2,7.7,0.1,15.3,0.1,23c0,6.9-2.6,10.4-7.7,10.3c-4.9-0.1-7.4-3.4-7.4-10.1    c0-8.3-0.1-16.7,0-25c0-2.8-0.8-3.8-3.8-4.3c-4.9-0.8-9.7-2.5-15.1-3.9c-4.2,7.2-8.4,14.5-12.7,21.8c-0.9,1.6-1.7,3.2-2.7,4.6    c-2.7,4-6.4,5.1-10.1,3c-3.8-2.1-5-6.3-2.7-10.5c3.8-6.8,7.8-13.6,11.7-20.4c1.2-2.1,2.4-4.2,3.1-5.5c-4.8-4.7-9.2-9-14.3-14    c-4.7,2.7-10.6,6.1-16.5,9.4c-2.4,1.4-4.8,2.8-7.2,4.2c-5.7,3.3-9.9,2.8-12.4-1.3c-2.5-4.2-0.9-8.1,4.8-11.4    c6.8-3.9,13.6-7.8,20.3-11.8c1.4-0.8,2.8-1.7,4.1-2.5c-1.4-5.7-2.5-11.3-4.1-16.7c-0.3-1-2.4-2-3.6-2c-7.8-0.2-15.7-0.1-23.5-0.1    c-1.3,0-2.6,0.1-3.9,0c-5-0.5-7.9-3.3-7.9-7.6c0-4.3,3-7.3,8-7.4c8.2-0.2,16.3-0.3,24.5,0c4.4,0.2,6.8-0.6,7.2-5.7    c0.4-4.3,2.2-8.4,3.6-13.2c-7.5-4.3-15.1-8.7-22.6-13.1c-1.6-0.9-3.2-1.7-4.6-2.8c-3.5-2.6-4.3-6.5-2.2-9.9    c2.1-3.3,6.1-4.6,9.8-2.6c6.5,3.5,12.7,7.3,19.1,10.9c2.7,1.5,5.3,3.1,7.2,4.1c4.8-4.8,9.2-9.3,14.1-14.1    c-4.4-7.6-9.4-16-14.1-24.6c-1.1-2-2.3-5-1.5-6.8c1-2.3,3.7-5.3,5.9-5.5c2.5-0.2,6.1,1.6,7.6,3.8c4.6,6.7,8.3,14,12.4,21    c1,1.7,2,3.3,3,5c5.9-1.4,11.6-2.6,17.1-4.2c0.9-0.3,1.7-2.5,1.7-3.9c0.2-8.7,0.1-17.3,0.1-26c0-3.7,1-6.8,4.6-8.4    c5.1-2.3,10.3,1.4,10.4,7.8c0.2,8.5,0.2,17,0,25.5c-0.1,3.4,0.4,5.2,4.5,5.7c4.6,0.5,9.1,2.4,14.3,3.8c4-7,8.1-14.1,12.3-21.3    c1.2-2.1,2.3-4.3,3.8-6.2c2.6-3.2,6-4.1,9.5-1.9c3.4,2.2,5,5.5,2.9,9.3c-6.4,11.5-13,23-19.8,34.3c-2.4,4-6,4.2-11.2,1.6    c-16.9-8.4-33.7-8.3-50,1.4c-20.1,11.9-29.2,35.9-22.4,58c6.7,21.9,28,37.3,49.9,36c24.4-1.4,44-17.9,48.4-41    c2.2-11.4,0.6-22.4-4.7-32.8c-3.6-7.1-2.7-9.9,4.2-13.9c9.6-5.6,19.2-11.1,28.8-16.6c5.2-3,9.5-2.3,11.9,1.8    c2.4,4.1,0.8,8-4.5,11.1c-7.3,4.3-14.6,8.6-22,12.7c-2.4,1.3-3.2,2.5-2,5.4c1.4,3.3,2.7,6.8,2.9,10.3c0.3,4.6,2.6,5.1,6.3,5    c8-0.2,16-0.1,24,0c6.1,0.1,9.4,2.8,9.3,7.7c-0.1,4.6-3.3,7.3-9.1,7.4c-8.2,0.1-16.3,0.2-24.5,0c-3.6-0.1-5.5,0.5-6,4.8    C319.8,272.1,317.9,276.5,316.5,281.5z"/>
		<path class="st0" d="M246.9,122c75.4,0,132,49,141.2,114.2C398.3,307.9,349.8,374,278,386.6c-71.7,12.5-141.4-36.9-153.2-108.9    c-1.1-6.9-1.5-13.9-1.9-20.9c-0.3-5.6,2.7-9.1,7.3-9.1c4.5,0,7.1,3.3,7.4,9.1c2.7,50.4,26.5,87.2,72.9,107.4    c69.9,30.4,150.3-14.5,162.5-89.8c10.7-66-34.4-127.1-100.7-136.7c-58.7-8.4-115.2,29.3-130.8,87.2c-0.7,2.6-2.3,5.8-4.4,7.1    c-1.8,1.1-6,0.9-7.5-0.5c-1.8-1.7-3.3-5.5-2.7-8c4.2-19.4,13-36.8,25.6-52.2C179.2,138.9,214.1,122.8,246.9,122z"/>
		<path class="st0" d="M73.6,175.2c10,5.8,19.7,11.3,29.4,17c4.6,2.7,6.1,6.3,4.3,10.1c-1.8,4-6.2,5.8-10.2,3.5    c-12.1-6.8-24.1-13.6-35.9-20.9c-1.9-1.2-3.9-5-3.3-6.9c2-7.1,4.2-14.4,7.8-20.8c4.1-7.3,12.1-10,20-7c8,3,15.4,7.7,23.2,11.3    c1.9,0.9,4.3,0.7,6.5,1c-0.4-2.5,0.1-5.8-1.3-7.5c-7.1-8.9-14.6-17.5-22.1-26.2c-2.6-3-3.6-6.2-1.4-9.8c2.5-4.2,8.2-4.9,11.7-0.9    c8.5,9.7,17.2,19.3,24.9,29.6c8.7,11.6,3.2,27.7-10.2,30.3c-4.1,0.8-9-0.5-13-2.2c-6.1-2.6-11.6-6.6-17.6-9.6    c-6.9-3.5-8.8-2.6-11.5,4.7C74.4,172.1,74.1,173.4,73.6,175.2z"/>
		<path class="st0" d="M77,341.7c-5-0.4-9.7-0.8-14.4-1.2c-5.1-0.5-7.9-3.2-7.7-7.6c0.1-4.5,3.4-7.3,8.7-7.1    c5.5,0.2,11.1,0.5,16.6,1c3,0.3,4.8-0.6,6-3.5c2.2-5.1,4.8-10,7.4-14.9c2.4-4.5,6.2-6,10.1-4.2c4,1.9,5.4,6.2,3.2,10.8    c-1.9,4.1-4,8.1-6.4,13c4.8,0.3,8.8,0.5,12.8,0.7c6.1,0.3,9.8,3.6,9.3,8.3c-0.4,4.6-4.2,7-10.2,6.6c-5.5-0.4-11.1-0.8-16.6-1    c-1.1,0-2.8,0.5-3.2,1.3c-4.9,10.4-8,19.7,3.1,29c8.8-5.1,17.8-10.3,26.8-15.4c6.9-4,11-3.8,13.7,0.5c2.8,4.5,0.9,8.3-6.4,12.5    c-9.9,5.7-19.8,11.4-29.7,17.1c-5.8,3.3-8.2,3-13-1.7c-6.6-6.5-13.2-13.1-13.6-23c-0.2-5.3,1-10.6,1.8-15.9    C75.6,345.3,76.4,343.7,77,341.7z"/>
		<path class="st0" d="M398.4,148.5c-5-12.7-5-15.3-0.4-17.7c4.5-2.3,7-0.7,14.2,9.9c2.6-4.4,5.3-8.2,7.2-12.3    c2.6-5.4,5.8-7.5,10.1-5.8c4.6,1.8,6.4,6,3.6,11.3c-3.2,6-7.2,11.5-11.4,16.8c-1.7,2.1-2.5,3.4-0.8,5.8c1.7,2.5,3.2,5.3,4,6.7    c8.7-0.4,16.4-1.2,24.1-1c5.7,0.1,9.2,4,8.7,8.4c-0.5,3.6-4.2,7.5-10.3,6.3c-4.3-0.8-9-0.2-14.1-0.2c2.3,6.6,9.4,12.7,1,17.5    c-8.3,4.8-10.3-4.1-14.6-9.6c-2.6,4.6-5.1,8.5-7.2,12.7c-2.4,5-6.1,7.1-10.4,5.4c-3.9-1.6-5.9-6.1-3.5-10.7    c3.8-7.1,8.4-13.7,13.3-21.5c-1.2-2.2-3.3-5.8-4.6-8.1c-9.3,0.2-17.6,0.8-25.9,0.4c-5.1-0.3-7.4-3.8-6.9-8.2    c0.5-4.3,3.8-6.5,8.9-6.3C388.1,148.6,392.9,148.5,398.4,148.5z"/>
		<path class="st0" d="M361.9,392c3.4,5.9,6.9,11.5,9.9,17.5c2.1,4,4.4,6.3,9.3,5.5c3.9-0.6,7.1,1.7,7.3,5.5    c0.1,2.6-1.7,5.5-3.2,7.9c-0.6,0.9-2.6,1.1-4.1,1.2c-15.4,1.4-27.5,8.3-36.5,20.8c-3.3,4.6-7.3,5.7-11.2,3    c-3.6-2.5-4.2-6.8-1.1-11.2c2-2.8,2.1-4.9,0.2-7.8c-3.3-5.1-6.2-10.3-9-15.6c-1.4-2.7-2.9-3.6-6.1-3.2c-6.4,0.7-10.4-3.1-9.5-8.5    c0.8-4.8,4.3-6.2,8.5-6.4c10-0.5,18.6-4.5,26.2-10.7c3.5-2.8,6.4-6.4,9.2-10c3.3-4.1,7.2-5.5,10.9-3.1c3.8,2.4,4.4,6.9,1.5,11.6    C363.6,389.5,362.7,390.7,361.9,392z M345.8,427.4c5.1-3,9.7-5.6,14.5-8.4c-3.2-5.5-6.2-10.8-9.3-16.1c-5.1,3-9.8,5.7-14.5,8.5    C339.6,416.8,342.6,422,345.8,427.4z"/>
		<path class="st0" d="M434.6,336.2c6.8-1.1,13.4-1.2,19.6,2c4.7,2.5,6.4,6.4,4.5,10.4c-1.8,3.8-6.1,5.6-10.3,3.2    c-6.2-3.4-14.2-0.6-17,4.8c-3.2,6-1.7,11.7,4.7,17c3.5,2.9,4.4,7,2.2,10.3c-2.4,3.6-6.6,4.4-10.7,1.8c-6.3-3.8-9.9-9.7-12.1-16.4    c-17.8,2.6-30.6-5.1-34.3-20.6c-3.2-13.4,4.7-27.3,18-31.7C413.9,312.1,427,319.1,434.6,336.2z M407.6,330.5    c-6.9,0-12.5,5.7-12.4,12.4c0.1,6.6,5.7,12.1,12.2,12.2c6.9,0.1,12.4-5.4,12.4-12.3C420,335.7,414.7,330.5,407.6,330.5z"/>
		<path class="st0" d="M241.3,69.7c2.7-5.4,5.1-9.8,7.2-14.3c1.9-4,4.9-5.9,9.3-5.7c1.1,0,2.3-0.1,3.4,0c7.8,1.1,14.1-0.3,18.1-8.3    c2.1-4.1,6.8-4.4,10.2-2c3.4,2.4,4.6,7,1.6,10.3c-5.7,6.1-5,11.9-2.4,19.3c2.5,7.2,4,15.4,3.1,22.8c-1.6,13.3-18,19.7-29.3,12.4    c-4.3-2.8-5.6-6.6-3.5-10.3c2.1-3.8,6-4.8,10.5-2.8c5.5,2.5,9,0.5,8-5.4c-1-6.4-3.2-12.6-5-18.8c-0.2-0.8-1.1-1.7-1.9-2    c-5.1-1.9-10.4,0.3-13,5.4c-3.1,6.1-5.9,12.4-9.4,18.2c-1.4,2.3-4.6,4.7-7,4.7c-2.4,0-5.7-2.4-7-4.7c-5-8.8-9.3-17.9-13.8-26.9    c-2.3-4.7-1.2-8.9,2.7-10.9c4-2.1,7.9-0.6,10.4,4.2C236.1,59.4,238.4,64.1,241.3,69.7z"/>
		<path class="st0" d="M161.7,452.1c-12.1,0-23.1-7.6-27.2-18.9c-4.1-11.1-1-21.7,9.2-30c3.1-2.6,6.7-4.6,10.1-6.8    c2.5-1.6,5.2-2.9,7.4-4.8c1.5-1.3,3-3.3,3-5.1c0-1-2.8-2.1-4.4-3.1c-0.4-0.2-1-0.2-1.4-0.4c-3.8-1.6-5.9-4.4-5-8.4    c0.8-3.9,3.6-6.2,7.8-5.8c7.5,0.7,13.4,4.3,16.6,11.1c3.4,7.1,1.7,13.9-3.3,19.5c-3,3.3-7,5.7-10.7,8.4c-3.9,2.7-8.1,5-11.8,7.8    c-4,3.1-5.1,7.5-3.6,12.3c1.5,4.9,7.2,9.1,12.7,9.3c5,0.2,9-1.9,10.9-6.6c1.7-4.2,3.1-8.6,4.5-12.9c1.9-5.6,6.2-7.6,11.5-5    c1.7,0.9,3.5,1.8,5.1,3c5.1,3.7,4.2,10.2-1.3,13.1c-1.9,1-3.8,2.9-4.6,4.8C182.1,445.7,173.6,452.1,161.7,452.1z"/>
		<path class="st0" d="M160.9,76.7c-7.9,3.1-11.5,2.4-13.6-2.1c-2.1-4.4-0.3-7.6,6.5-11.6c4.7-2.7,9.3-5.4,14-8.1    c5.5-3.1,9.1-2.2,12.3,3.1c3.2,5.5,6.4,11,9.5,16.5c2.7,4.8,2,8.7-1.8,11.1c-3.6,2.3-7.5,1.1-10.8-3.2c-0.4-0.5-0.8-0.9-1.7-1.9    c-1.3,5-2.6,9.3-3.6,13.6c-0.2,0.7,0.3,2,0.9,2.4c3.7,2.2,5.4,5.3,3.9,9.5c-1.5,4.2-5.1,5.1-9.4,5.1c-1.8,6.4-3.5,12.8-5.3,19.2    c-1.5,5.5-5.1,8.1-9.4,6.8c-4.5-1.3-6.4-5.1-5-10.6c1.6-6.5,3.4-12.9,5.2-19.6c-4.4-2-6.8-5.1-5.4-9.8c1.3-4.5,5-5.6,9.4-5.2    C158.1,87,159.5,82.1,160.9,76.7z"/>
		<path class="st0" d="M435.8,247.6c4.1,0,8.2,0,12.2,0c4.4,0,7.1-2.3,7.7-6.6c0.6-3.7-2.3-6.7-6.6-7.6c-6-1.2-8.8-4.5-7.9-9.1    c0.9-4.5,4.9-6.6,10.8-5.6c15.6,2.7,23.4,19.4,15.3,33c-1.6,2.6-1.6,4.2,0,6.9c8.4,14.1-0.4,31.3-16.8,33.3    c-4.8,0.6-8.6-1.8-9.4-5.8c-0.9-4.4,1.8-7.7,6.9-9c2-0.5,4.6-1.1,5.5-2.5c1.2-1.9,2.2-5.3,1.4-7c-1.1-2.1-4.1-4.4-6.5-4.6    c-7.8-0.6-15.7-0.2-23.5-0.2c-1.5,0-3,0.1-4.4-0.2c-4.2-0.8-6.9-3.2-6.8-7.6c0.1-4.4,3-6.9,7.2-7.2    C426,247.5,430.9,247.7,435.8,247.6C435.8,247.7,435.8,247.7,435.8,247.6z"/>
		<path class="st0" d="M55.2,276.3c-16.9-7.8-17.4-24.6-11-33.3c1.7-2.3,3.7-5,6.2-6c4.5-2,5-5,4.8-9.2c-0.3-6,2.7-9.5,7.4-9.4    c4.5,0.1,7.2,3.5,7.2,9.2c0,3.9,0,7.8,0,11.7c-0.1,5.4-1.9,7.9-7.2,8.7c-4.4,0.6-7.2,2.8-7.3,7.1c-0.1,4.6,2.8,6.8,7.4,7.5    c5.3,0.8,7.1,3.3,7.1,8.8c0,4.4,0.1,8.8,0,13.2c-0.1,4.5-3.2,7.6-7.3,7.6c-4,0-7.1-3.1-7.3-7.6C55.1,281.9,55.2,279.3,55.2,276.3z    "/>
		<path class="st0" d="M258.9,403.8c7.5,2.3,15.2,4.2,22.5,7.1c4.9,2,6.2,6.5,4,10.4c-2.2,3.9-6.2,4.9-10.9,2.5    c-9.1-4.6-18.5-4.8-28-1.6c-2,0.7-3.9,1.8-5.4,3.2c-1,1-1.8,3-1.5,4.3c0.3,1.2,2.1,2.4,3.4,2.8c5.9,1.7,8.2,4.3,7.3,8.9    c-0.9,4.6-4.9,6.9-10.7,5.7c-7.5-1.5-12.6-5.9-14.7-13.4c-2.1-7.6,1.1-15.8,7.6-20.8c6.3-4.7,16-7.6,25.8-7.7    C258.6,404.7,258.7,404.2,258.9,403.8z"/>
		<path class="st0" d="M253.2,475.8c-7.3-2.1-14.7-3.8-21.8-6.5c-5.4-2-6.9-6.4-5-10.5c2.1-4.3,6.2-5.3,11.6-2.7    c9.1,4.4,18.5,4.6,28,1.2c1.8-0.6,3.6-1.6,5-2.9c3.1-2.9,2.1-6.1-2-7.1c-5.9-1.4-8.2-4.3-7.3-8.8c0.9-4.4,4.6-6.7,10.2-5.8    c7.6,1.3,12.7,5.6,15,13c2.2,7.4-0.8,16-7.1,21c-6.1,4.8-16.4,7.9-26.2,7.9C253.4,475,253.3,475.4,253.2,475.8z"/>
		<path class="st0" d="M368.6,101.5c-5.1,1.2-8.9-1.9-11.2-7.9c-0.6-1.7-1.3-3.5-2.4-4.7c-1.1-1.2-2.9-2.5-4.4-2.4    c-16.5,0.6-14,1.4-21-12.4c-1.2-2.3-2.4-4.6-3.4-7c-1.8-4.3-0.4-8.2,3.2-10c3.7-1.9,8.5-0.8,9.8,3.4c3,9.8,9.1,12.3,18.5,10.8    c2.2-0.3,6.4,2.3,7.1,4.4c2.9,9.3,8.8,11.8,17.9,10.3c2.2-0.4,5.7,1.6,7.1,3.6c1.2,1.6,0.9,5.1-0.1,7.1c-0.8,1.7-3.4,3.1-5.4,3.5    C379.7,101,374.9,101,368.6,101.5z"/>
		<path class="st0" d="M354.3,126.9c-5.3,1.4-9.5-1.8-11.6-8c-1.9-5.6-4.9-8.5-11.4-7c-7.3,1.8-12.1-1.4-14.6-8.6    c-1.3-3.7-3.5-7-5-10.6c-2-4.5-0.7-8.6,3.1-10.4c3.9-1.9,8.5-0.6,10,4.1c2.8,9.1,8.4,12,17.4,10.1c4.6-1,7.6,1.8,8.9,5.9    c2.2,7.6,6.8,10.8,14.6,8.8c1.1-0.3,2.3-0.1,3.4-0.1c4.1,0.2,7.2,3.2,7.3,7.1c0.1,3.8-2.8,7.1-6.9,7.5    C365,126.2,360.4,126.5,354.3,126.9z"/>
		<path class="st0" d="M99.2,254.6c0,9.6,0,19.2,0,28.8c0,5.2-2.9,8.6-7.3,8.6c-4.4,0.1-7.4-3.3-7.4-8.5c0-19.5,0-39.1,0-58.6    c0-5.2,2.9-8.6,7.2-8.6c4.4-0.1,7.4,3.3,7.4,8.5C99.2,234.7,99.2,244.7,99.2,254.6z"/>
	</g>
</g>
</svg>