<?xml version="1.0" encoding="utf-8"?>
<!-- Generator: Adobe Illustrator 27.1.1, SVG Export Plug-In . SVG Version: 6.00 Build 0)  -->
<svg version="1.1" id="Layer_1" xmlns="http://www.w3.org/2000/svg" xmlns:xlink="http://www.w3.org/1999/xlink" x="0px" y="0px"
	 viewBox="0 0 512 512" style="enable-background:new 0 0 512 512;" xml:space="preserve">
<style type="text/css">
	.st0{fill:#FAB03E;}
	.st1{fill:#E6E6E5;}
	.st2{fill:#CCCCCC;}
	.st3{fill:#E7E5E5;}
	.st4{fill:#CDCDCD;}
	.st5{fill:#ECB259;}
	.st6{fill:#F5DFC2;}
	.st7{fill:#F2CB8F;}
	.st8{fill:#FCFCFC;}
	.st9{fill:#F8E2C5;}
	.st10{fill:#E6E5E5;}
</style>
<g>
	<path class="st0" d="M51.5,259.5c-10.2-3.8-15.1-13.1-21.2-20.9c-9-11.5-14.9-24.8-19.6-38.5c-1.8-5.2-3.2-11,3.1-14.9
		c2.1,0,4.2,0,6.3-0.1c27.3,11.8,54.7,11.8,82.1,0.6c0.7-0.2,1.4-0.4,2.1-0.6c3.6,0.5,6.1-1.5,8.4-3.7c5.5-1,9.9-4.3,14.7-7
		c11.4-6.5,21.6-14.3,29.9-24.6c11.8-12.8,20.5-27.4,25.1-44.3c4.6-7.1,3.5-15.6,5.7-23.2c0-9.1,0-18.2-0.1-27.3
		c0.5-2.7,0.5-5.1-1.6-7.5c-3.8-4.4-3-8.6,2-11.8c2.8,0,5.6,0,8.4,0c5.7,9.8,17,12.4,24.9,19.3c2.5,4.6,7.9,5.7,11.3,9.3
		c1.2,1.2,2.3,2.3,3.5,3.5c2.1,7.3,9.2,10.7,12.8,16.8c0.8,1.4,1.7,2.8,2.5,4.2c-0.2,1.3,0.6,1.9,1.8,2.2c0.9,2.3,1.8,4.6,2.7,6.8
		c1.3,3.3,2.7,6.6,4,9.8c-0.3,2-0.8,3.5-3.3,4.3c-6.3,2.2-12.9,3.9-18.1,8.5c-7.6,2.1-13.1,7.5-18.7,12.6
		c-12.2,1.8-15.9,12-20.8,21.1c-3.2,3.6-6.4,7.2-6.8,12.3c-10.4,9.7-10.1,23.3-13.1,35.7c-3.5,9.1-1.4,18.6-1.4,27.9
		c0,7.7-2,10.4-10,10.2c-22.4-0.5-44.7-0.2-67.1-0.1c-3.5,0-8.1-1.8-9.4,3.8C77.7,247.9,63.9,251.9,51.5,259.5z"/>
	<path class="st1" d="M407.3,233.9c10.9,0.2,20.8,5.4,31.6,6.4c0.9,1.7,2.5,2,4.2,2.1c4.2,2.1,8.4,4.2,12.6,6.3
		c0.9,1.7,2.5,2.1,4.2,2.1c2.1,2.1,4.2,4.3,6.3,6.4c2.2,8.4,5.1,16.6,6.5,25.2c4.8,29.7,2,58.2-13.9,84.6
		c-23,38-58.9,51.6-100.6,51.9c-98.1,0.7-196.3,0.2-294.4,0.2c-4.2,0-8-1.4-12-2.4c-10.8-2.6-20.1-10.1-31.6-10.2
		c-0.7,0-1.4,0-2.1-0.1C7.9,388.2,1.3,368.9,3.4,347.8c1.5-15.4,2.5-31.3,12.4-44.4c2.4,1.7,2.3,4.2,2.1,6.6c-0.4,7,4.4,9.8,9.8,9.9
		c21.6,0.7,30.2,3.4,28.1-22.5c0-0.3,0-0.7,0-1c-0.7-7.1,2.4-10.1,9.7-9.9c13.3,0.3,26.6,0.1,39.8,0.1c16.3,0,21.8-7.8,16.5-23.5
		c-3.1-9.3-1.4-12.1,8.2-12.2c12.6-0.2,25.2-0.1,37.7-0.1c4.7,0,9.4,0.2,10.1-6.2c0-0.6,0.1-1.2,0.1-1.8c0.8-0.9,1.6-1.7,2.4-2.6
		c3.5-5.3,0.9-11.2,1.8-16.8c11.3-0.9,13.9-4.1,11.7-14.2c-5-22.9-5-23,18.2-23.6c6.2-0.1,11.4-1.4,11.9-8.6
		c0.5-6.9-3.4-9.5-10.1-10.6c-13.1-2-13.4-3-8.7-14.5c8.1,0,16.1-0.3,24.2,0.1c7.3,0.4,13.6-2.8,20.3-4.7c2.5-0.7,4.3-2.7,3.4-5.6
		c-0.9-2.7-3.2-2.2-5.2-1.5c-4.9,1.7-6.1-1.2-6.9-5.1c-1-4.8-2.7-9.4-2-14.4c5.2-4.6,11.8-6.3,18.1-8.5c2.5-0.9,3-2.3,3.3-4.3
		c1.3,0,2.5,0,3.8,0c1.1,1.5,2.8,2.4,4.5,1.9c11.7-3.6,23.7-1.8,35.5-1.9c0.8,0.6,1.6,1.6,2.5,1.8c23.4,3.4,43.4,13.2,60.2,30.1
		c6.3,6.3,10.3,15.1,19.3,18.7c-1.9,8.8,5,15.2,6.4,23.1c5.2,14.4,7.2,29.3,6.2,44.6C398.4,232.5,401.2,234.7,407.3,233.9z
		 M405.2,400.6c-5.1,1.1-8.8,1.4-12.2,2.7c-2.9,1.1-9,1-7.6,5c1.8,5.3,5.3,0.1,8-1C397,405.9,401.8,406.9,405.2,400.6z"/>
	<path class="st2" d="M20.1,406.5c11.5,0.1,20.8,7.6,31.6,10.2c4,1,7.8,2.4,12,2.4c98.1,0,196.3,0.5,294.4-0.2
		c41.7-0.3,77.6-13.9,100.6-51.9c16-26.4,18.8-54.9,13.9-84.6c-1.4-8.5-4.3-16.8-6.5-25.2c0.6,0,1.3,0,1.9,0
		c5.7,6.9,12,13.2,18.8,18.9c2.2,6.4,6.6,11.5,10.5,16.8c7,19.8,11.9,40.1,10.7,61.3c-1.8,32.7-13.3,60.8-39.3,82
		c-1.3,1-3.1,1.4-4.7,2.1c-15-6.4-23-1.5-23.3,14.4c-4.2,1.4-8.4,2.7-12.6,4.1c-0.7-1.1-1.4-3.3-2-3.3c-10.9,0.5-21.1-4.8-31.7-4.8
		c-97.4-0.3-194.7-0.3-292.1,0c-8.1,0-16.8,0.2-23.6,6.3c-4.2-0.8-8.3-1.7-12.5-2.5c-11-4.4-18.4-14.4-29.4-19
		C32.2,424.1,22.5,417.6,20.1,406.5z"/>
	<path class="st3" d="M177.9,244.5c-0.6,6.5-5.4,6.3-10.1,6.2c-12.6,0-25.2-0.2-37.7,0.1c-9.6,0.2-11.3,3-8.2,12.2
		c5.3,15.6-0.2,23.4-16.5,23.5c-13.3,0-26.6,0.2-39.8-0.1c-7.3-0.2-10.4,2.8-9.7,9.9c0,0.3,0,0.7,0,1c2,25.9-6.5,23.1-28.1,22.5
		c-5.4-0.2-10.2-3-9.8-9.9c0.1-2.4,0.3-5-2.1-6.6c5.9-19.5,21.6-31,35.7-43.8c12.4-7.6,26.2-11.6,40.1-15.4
		c3.5,0.1,6.9,0.1,10.4,0.2C127.3,244.4,152.6,244.5,177.9,244.5z"/>
	<path class="st4" d="M78.9,455c6.8-6.1,15.5-6.3,23.6-6.3c97.4-0.3,194.7-0.3,292.1,0c10.6,0,20.8,5.3,31.7,4.8
		c0.6,0,1.4,2.1,2,3.3c-7.2,2.8-14.6,4.4-22.4,4.4c-99.9,0-199.9,0.1-299.8-0.1C96.7,461.1,87.3,459.9,78.9,455z"/>
	<path class="st4" d="M441,452.7c0.3-15.9,8.3-20.8,23.3-14.4C458,445.5,449.9,449.7,441,452.7z"/>
	<path class="st3" d="M205.3,151.9c-4.7,11.5-4.4,12.5,8.7,14.5c6.7,1,10.6,3.6,10.1,10.6c-0.6,7.2-5.7,8.5-11.9,8.6
		c-23.2,0.5-23.2,0.6-18.2,23.6c2.2,10.1-0.4,13.3-11.7,14.2c-0.1-2.1-0.1-4.2-0.2-6.3c1.7-15.5,5.2-30.7,10.8-45.3
		c0.8-2,2.1-3.5-0.2-5.2c0.4-5.1,3.6-8.7,6.8-12.3c1.8-1,3.6-2,5.4-3L205.3,151.9z"/>
	<path class="st3" d="M238.9,120.6c-0.6,5,1,9.6,2,14.4c0.8,3.9,2,6.8,6.9,5.1c2.1-0.7,4.3-1.2,5.2,1.5c0.9,2.9-0.9,4.9-3.4,5.6
		c-6.7,1.9-12.9,5.1-20.3,4.7c-8-0.4-16.1-0.1-24.2-0.1c0,0-0.5-0.6-0.5-0.6c5.1-6,10.2-12.1,15.4-18.1
		C225.8,128.1,231.3,122.7,238.9,120.6z"/>
	<path class="st5" d="M102,244.3c-3.5-0.1-6.9-0.1-10.4-0.2c1.3-5.7,6-3.8,9.4-3.8c22.4-0.1,44.7-0.4,67.1,0.1
		c8,0.2,10.1-2.6,10-10.2c-0.1-9.3-2.1-18.8,1.4-27.9c0.3,4.9,0.5,9.9,0.8,14.8c0,7.7,0.1,15.4,0.1,23.1c-0.8,0.9-1.6,1.7-2.4,2.6
		c-23.5-0.1-46.9-0.3-70.4-0.4C105.5,242.4,103.3,242.2,102,244.3z"/>
	<path class="st6" d="M180.3,217.1c-0.3-4.9-0.5-9.9-0.8-14.8c3-12.4,2.7-26,13.1-35.7c2.3,1.7,0.9,3.2,0.2,5.2
		c-5.6,14.6-9,29.7-10.8,45.3C181.4,217.1,180.9,217.1,180.3,217.1z"/>
	<path class="st7" d="M220.2,133.2c-5.1,6-10.2,12.1-15.4,18.1c-1.8,1-3.6,2-5.4,3C204.3,145.2,207.9,135,220.2,133.2z"/>
	<path class="st8" d="M251.8,88.8c0.6,0.7,1.2,1.5,1.8,2.2C252.4,90.7,251.7,90.1,251.8,88.8z"/>
	<path class="st9" d="M102,244.3c1.4-2.1,3.6-2,5.6-2c23.5,0.1,46.9,0.2,70.4,0.4c0,0.6-0.1,1.2-0.1,1.8
		C152.6,244.5,127.3,244.4,102,244.3z"/>
	<path class="st10" d="M405.2,400.6c-3.4,6.3-8.1,5.3-11.8,6.7c-2.7,1.1-6.1,6.4-8,1c-1.4-4,4.7-3.9,7.6-5
		C396.4,402,400.1,401.6,405.2,400.6z"/>
	<path class="st9" d="M180.3,217.1c0.6,0,1.1,0,1.7,0c0.1,2.1,0.1,4.2,0.2,6.3c-0.9,5.6,1.7,11.5-1.8,16.8
		C180.4,232.5,180.3,224.8,180.3,217.1z"/>
</g>
</svg>
