<?xml version="1.0" encoding="utf-8"?>
<!-- Generator: Adobe Illustrator 26.5.0, SVG Export Plug-In . SVG Version: 6.00 Build 0)  -->
<svg version="1.1" id="Layer_1" xmlns="http://www.w3.org/2000/svg" xmlns:xlink="http://www.w3.org/1999/xlink" x="0px" y="0px"
	 viewBox="0 0 1024 1024" style="enable-background:new 0 0 1024 1024;" xml:space="preserve">
<style type="text/css">
	.st0{fill:#FFFFFF;}
</style>
<g id="icomoon-ignore">
</g>
<path id="XMLID_3087_" class="st0" d="M29.6,295.8c112.5-22.8,145-57.3,233.3-100.9c9.7,16,15.1,24.6,36.2,31.8
	c-1.2,7.1,4.1,12.8,4.1,12.8c3.9,50.2,15.7,91,15.7,91c10,37.9,5.1,33.5,26.8,44.9c46.2,22.5,61.7,34,61.7,34
	c20.9,15.8,43.1,8.2,52.3,8.8c1.3,0.1,2.5-0.5,3.3-1.4c6.4-6.8,12.7-16.4,17-29.5c-2.9,13-7.9,25.1-15.9,34
	c-0.6,0.6-0.8,1.5-0.6,2.3c7.2,30.5,40.9,54.1,40.9,54.1c16.5,16.4,26.4,50.6,44.5,64.5c-0.5,5.6-46.5,9.4-75.1,50.5
	c-37.1,14.5-55.7,27.6-64.4,35.6c-2.1,1.9-3.1,4.7-2.8,7.6c1.4,12.9,0.5,26.3-3,40.7c1.7-15.6,0.5-30.1-2-42.6
	c-19.1-63.3-48.8-40.4-48.8-40.4c-14.2,9.4-3.6,28.4-3.6,28.4c2.2,21,2.5,38.3,2.5,38.3c-4.4,9.1,1.6,16,1.6,16
	c-7,19.4,2.4,23.7,2.4,23.7c-3.7,7.9,1.5,16.3,1.5,16.3c0,22.6,13.2,21.5,13.2,21.5c0.3,6.3,10.2,17.4,10.2,17.4l30.1,99
	c-3.5,12.4,2.9,18.6,2.9,18.6c0.6,13.2,2.5,22.9,4.2,28.1c0.3,0.8,1.3,1.2,2,0.7c4.3-2.6,8.9-5,13.1-9.3c-4.3,5.3-8.9,9.7-13.9,13.4
	c-8.8,11.9-24.2,12.5-24.2,12.5c-27.3-1.2-35.6,12.7-32.7,21s8.8,9.4,8.8,9.4c3.2,5,8.9,1.6,8.9,1.6c2.6,4.6,7.1,2.9,7.1,2.9
	c3.4,4.6,5.5,0.4,5.5,0.4l5.9-0.1c0,0,0.1,2.2,2.1,3.4c2.8,1.7,5-0.9,5-0.9c5.7,4.2,7.8-0.7,7.8-0.7l7.2,0.4c0,0-0.9,1.7,0.7,3
	c2,1.6,5.8,1.3,6.6-0.1c0.8-1.4,1.1-2.6,1.1-2.6c23.6-10.8,41.3-0.1,65.6-7.6c0,2.4,0.6,3.1,2.2,3.7c1.5,0.6,6.5,0.3,7.7-0.8
	s0.7-3.9,0.7-3.9c42.1,2,19.3-37,7.7-53.1c-0.2-0.2-0.4-0.4-0.6-0.5c-8.6-4.4-16.2-10.7-23.1-19.1c6.8,6.9,13.4,9.6,19.9,12.4
	c1.5,0.7,3.2-0.5,3.2-2.2c-0.2-6.8-2.7-15.2-7-20.8c-0.2-0.3-0.5-0.5-0.8-0.7c-9.1-4.4-17.1-10.9-24.3-19.7
	c5.8,5.9,12,8.6,17.8,11.4c1.5,0.7,3.1-0.3,3.2-2c0.7-11.1-5-23-7.1-27.8c-0.1-0.3-0.4-0.5-0.7-0.7c-9.1-4.4-17.1-10.9-24.3-19.7
	c7.3,7.4,14.9,10.7,21.9,13.7c1.4,0.6,3-0.3,3.2-1.8c4.6-37-9.7-75.2-9.7-75.2c1-5.5-4.3-8.1-4.3-8.1c2.3-3.7-1.3-10.3-4.4-14.9
	c-1-0.8-2.5-1.9-3.5-2.7c-7.8-2.4-17.2-3.7-28.3-3c10-1.6,19.3-1.4,28.1,0.7c-4-6.1-7-12.9-9.3-20.7c3.5,8.8,7.8,15.9,12.3,21.5
	c0.2,0.2,0.5,0.3,0.7,0.4c17.2,4.1,41.4-7.4,41.4-7.4c42.2-17.8,64.3-21.6,72.9-22.5c1-0.1,1.8-0.9,1.9-2c0.5-8.2,0.4-17.7-3.1-28.3
	c3.9,8.9,6,17.6,6.4,26.3c0,0.4,0.5,0.6,0.8,0.3c4.7-5,10.3-9.4,16.9-13.3c-7.2,5.2-12.3,12.2-16.5,17.9c-0.4,0.5-0.5,1.1-0.3,1.7
	c13.3,51.1,75.6,105.9,90.5,118.8c11.8,0.2,23.5,3,35.5,8.7c-12-4.3-22.8-5.9-32.3-5.9l0,0c-34.9,1.8-37.4,30-34.7,46.2
	c1.5,9.4,23,2.2,47,14.6c10.3,8.8,19.7,7.9,19.7,7.9c8.4,11.9,21,6.8,21,6.8c7.4,7.9,15.9,4.3,15.9,4.3c17.5,7.8,26.1-1.7,26.1-1.7
	c0.7,1.5,13.8,0.3,13.8,0.3c125.1,26.8,108.1,33.4,117.6,31.8c29.8,1.7,23.6,13.9,32.9,8.1c0,0,16.3-10.7,23.8-20.4
	c-8.3,11-15.2,18.3-22.8,23.5l0,0c-0.2,0.1-0.3,0.2-0.4,0.3c-0.6,0.4-1.3,0.8-1.9,1.2c-9.3,6.8-9.3,20.7-6,21.7
	c50.3,17.2,70.3-20.9,65.5-38.2c15.5-20.1,25.1-43.1,7.4-51.3c-21.5-10.7-32.9-12.1-36-12.2c-0.6,0-1.2,0.1-1.7,0.4
	c-3.6,1.9-18.6,10.4-28.5,12.7c9.6-3.2,16.3-7.4,22-12c1.8-1.4,1.6-4.2-0.4-5.5c-11.6-7.1-18.9-6.2-22-5.4c-0.3,0.1-0.6,0.3-0.9,0.5
	c-8.6,7.8-19,13-31.7,15.9c11.2-3.8,19.2-9.4,25.5-15.1c1.7-1.5,1.4-4.1-0.5-5.3c-8.6-5.4-17-7.2-21.1-7.9c-0.9-0.2-1.8,0.1-2.5,0.6
	c-7.8,6-17,10.1-27.8,12.7c9.3-3.1,16-7.7,21.7-12.3c1.8-1.5,1.6-4.2-0.4-5.4c-15.6-9.1-41.7-18.7-41.7-18.7
	c-4.3-11.8-29-17.6-33.4-14.1c-31.6-5.7-45.1-3.2-45.1-3.2c-3.6-3.7-14.1-5.6-14.1-5.6c-2.9-23.6-42.8-99-49.6-107.3
	c-8.1-12.3-2.5-20.7-2.5-20.7c25.4-68.6-22.3-119.3-32.8-129.3c-6.3-14.8-18.9-29.2-18.9-29.2c-1.7-14.6-18.1-34.8-18.1-34.8
	c-0.6-19.1-19.3-34.1-19.3-34.1c-2-24.3-17-38.5-17-38.5c2.8-12.2-9.9-27.6-16.3-29.6c-10.5-84.1-41.9-102.3-41.9-102.3
	c4.3-20.8-0.2-52.9-6.3-62.6c-34.5-82.6-5.7-94.2-76-88.7c-7.7-5.8-39.5,0.9-51.7,12.3c-2.3,2.8-6.5,3-6.5,3
	c-0.1-1.1-2.8-4.8-2.8-4.8s14.4-6.6,13.9-8.8c-0.6-3.9-6.2-15.8-10.3-16C416.1,92.9,401,104,401,104l-4.4-2.4
	c-3.5-5.5-5.9-2.4-7.2-4.6c-5.5-10.9-28.7-9.4-35.3,0c-7.2-0.4-12.7,7.2-12.7,7.2c-8.7-1.3-14.1,7.4-14.1,7.4
	c-5.6-2.1-11.7,0.9-13.9,5.1c-5.7-1.7-5.6,0.2-15.3,3c-2.1-2.6-5.9-1.9-6.8,0c-26.1,6.6-31.1,41.2-31.1,41.2l-156.8,69.3
	C83.6,238.7,0.8,270.9,0.8,270.9C-5.8,295.8,29.6,295.8,29.6,295.8z M406.9,329.8h12.3c0.4,0,0.6,0.4,0.5,0.7
	c-1,2.1-2.4,6.8-2.8,8.3c-0.1,0.3-0.4,0.4-0.7,0.3c-2.3-0.8-7.7-6.3-9.7-8.4C406.2,330.4,406.4,329.8,406.9,329.8z M416.4,324.5
	l1.8,1.3h-10.7L416.4,324.5z M415.3,321.9l-13.7,1.9c-0.3,0-0.6-0.1-0.8-0.4l-6-13.6c-0.2-0.5,0.1-1,0.6-1l11.5-0.7
	c0.4,0,0.8,0.3,0.8,0.8c0,4.6,3,5.3,4,5.4c0.2,0,0.4,0.2,0.6,0.4l3.5,6.4C416.1,321.2,415.8,321.8,415.3,321.9z M322.7,164.3
	l14.4-7.3c0,0,7.2,9.9,33.9,8.5l12,3.7c4.2,4.6,15.3,7,20.7,1.1l12.8-4.8c0,0,7.9,6.2,17.1-3.6c0,0,25.4,8,30.9,4.7
	c0,0,6.9,4,15.6,1c0,0,1.3,22.4,1.3,26.6c-0.6,3,6.4,25.2,18.6,38c-11.3-9.8-19.2-20.3-23-33.3c-0.6-2-2.1-3.6-4.1-4.2
	c-4.8-1.3-12.8-3.1-26.2-3.9c-1.9-5.3-10.7-2.8-10.1,1.7c-36,10.8-46.1,29.6-49.2,74c0,0-20.5,5.4-18.8,8.5c0,0-1.2,2.8,27.7,0
	l6.1,5.2l-1.4,4.7l3.4,9.5c0,0-1.3,2.6,0.9,3.8c0,0-27.2,5.5-15.1,10.1l7.4,16.4c0,0-5.9,5.5,2.5,5.1l3.9,3.2c0,0-26.9-4.6-31.5-14
	c-9-38.3-28.8-56.1-36.3-85.1c0,0,10-8.1-4.1-31.9C317.8,178.5,322.7,164.3,322.7,164.3z"/>
</svg>
