<?xml version="1.0" encoding="utf-8"?>
<!-- Generator: Adobe Illustrator 27.1.1, SVG Export Plug-In . SVG Version: 6.00 Build 0)  -->
<svg version="1.1" id="Layer_1" xmlns="http://www.w3.org/2000/svg" xmlns:xlink="http://www.w3.org/1999/xlink" x="0px" y="0px"
	 viewBox="0 0 512 512" style="enable-background:new 0 0 512 512;" xml:space="preserve">
<style type="text/css">
	.st0{fill:#382A15;}
	.st1{fill:#F9CB8B;}
	.st2{fill:#FDFDFD;}
	.st3{fill:#3A2C16;}
	.st4{fill:#F28369;}
	.st5{fill:#C1D776;}
	.st6{fill:#A3C7EF;}
	.st7{fill:#E0DEDA;}
	.st8{fill:#76ACE7;}
	.st9{fill:#EE8167;}
	.st10{fill:#655A49;}
	.st11{fill:#9DC444;}
</style>
<g>
	<path class="st0" d="M507.2,340.6c1.3,6-2,11.1-3.3,16.6c-2.6,10.9-8.5,20.5-14.3,29.8c-7.3,11.6-16,22.4-27,31
		c-4.2,3.3-8.3,6.9-13,9.6c-2.9,1.7,0,2.9,0.9,3.6c5.6,4.3,11.3,8.5,17,12.7c0.2,0.6,0.5,1.1,1.2,0.9c7.4,7.2,15.5,13.7,21.1,22.6
		c8,12.7,5.4,26.5-8.6,33.4c-12.1,6-25,8-38.2,9.4c-15.2,1.6-30.4,1.2-45.6,1.7c-16,0.5-31.9-1.1-47.9-2.6c-5.7-0.6-11.5-1-17.3-1.3
		c-11.3-0.6-22.4-2.6-33.7-3.8c-8.4-0.9-16.7-2.2-25-3.5c-11.8-1.9-23.9-2.6-35.2-7.1c-0.1-0.7-0.2-1.4-0.2-2.1c-2-2.3,0.7-4.7,0-7
		c2.4-7.1,3.6-7.8,10.6-5.9c2.1,0.6,4.3,0.9,6.4,1.3c16.2,2.7,32.6,5.2,48.9,7.2c2.1,0.3,6.7,2.7,7-2.9c0.3-0.4,0.5-0.8,0.8-1.2
		c1.8-8.7,4.6-17.2,7.1-25.7c0.6-2.1,1.1-2.3,3.1-1.7c4.7,1.6,9.6,2.9,14.4,4.3c-2.6,8.8-5,17.6-7.6,26.2c-0.9,3.1-0.5,4.5,3.1,4.3
		c2.4-0.2,4.9-0.3,7.2,0.1c11.6,2.1,23.4,1.9,35.1,2.8c9.6,0.8,19.3,0.2,28.9,0.5c7.2,0.2,14.3,0,21.6,0.4
		c7.2,0.5,14.6-0.7,21.8-1.9c8.9-1.5,18-2.3,26.1-7c5.3-3.1,5.9-4.5,2.5-9c-10.6-14.1-24.7-24.1-39-33.9c-2.3-1.6-2.8-0.1-3.2,1.3
		c-1.3,4-2.2,8.1-3.4,12.1c-3.8,11.8-3.7,11.5-16.1,8c-4.1-1.2-3.9-3.2-3.1-5.9c2.1-7.3,4.4-14.5,6.7-21.7c1-3.1,1.5-5.6-2.2-7.7
		c-16-9.2-32.2-18.1-48.5-26.8c-14.7-7.8-30.1-14.4-44.9-22.1c-5.8-3-12.3-5.6-18.8-7.3c-0.1-1.2-0.7-1.8-1.8-1.8
		c-8.3-3.1-16.6-6.2-24.9-9.4c-2.4-0.9-2.6,0.8-3.3,2.3c-2,4.3-1.6,9-3.7,13.5c-2.7,5.8-5,12.1-5.6,18.7c-0.5,6-5.2,10.3-5.5,16.7
		c-0.4,6.8-3.8,13.4-5.1,20.4c-0.1,0.8-0.1,3.9-2.6,2.4c-3.7-2.2-7.9-2.8-11.7-4.7c-1.2-0.6-3-1.7-2.4-2.8
		c2.7-4.9,2.7-10.7,5.1-15.7c0.7-1.5,3.3-2.2,3.1-3.9c-1.3-9,2.9-17,4.8-25.4c2-8.6,4.8-17.1,7.1-25.6c0.2-0.8,1.7-2.6,0.1-2.8
		c-3.6-0.7-6.3-3.7-9.7-3.9c-5.5-0.3-10.5-1.8-15.7-3.5c-4-1.3-8.3-1.4-12.4-2.4c-7-1.9-14-0.8-21-0.9c-8.6-0.1-16.7,2.3-23.4,8.5
		c-8.9,8.3-13,19.2-16.8,30.3c-3.3,9.7-5.4,19.7-6.9,29.9c-1.2,7.9-0.3,15.6,2.8,22.3c5.4,11.8,16,18.7,27.7,23.4
		c9,3.6,9.5,3.9,5.2,12.8c-2.7,8.1-2.9,8.4-10,4.9c-7.1-3.4-14.5-6.4-20.3-12.1c0.5-1.7-0.4-2.5-1.9-2.9c-2-0.1-3.4-1-4.9-2.4
		c-8.6-7.7-13.5-17.5-15.8-28.7c-0.1-0.4-0.4-0.8-1.4-2.9c-2.3,2.9-3.8,5.3-5.8,7.4c-12.2,12.6-24.7,24.8-40,33.7
		c-10,5.8-20.3,12-32.5,10c-14.9-2.4-28.4-8.3-34.8-23.2c-7.1-16.4-2.9-30.6,10.1-42c0.7,0.2,1-0.1,0.8-0.8
		c3.8-4.2,9.2-6.2,13.4-10.4c-6.7-3.5-13.9-6.5-20.3-11.1c-10.1-7.4-18.1-15.8-21-28.7c-2.9-12.9,3.9-29.1,14-36.2
		c2.7-1.9,3.4-3.7,3.4-6.6c0-60.4,0.3-120.8-0.4-181.3c-0.1-9.5,5-14.9,9.5-21.1c13.8-19,28.2-37.5,42.5-56.2
		c1.3-1.7,1.2-3.5,1.2-5.3c0-14.8,0-29.6,0-44.4c0-7.4,3.1-10.5,10.6-10.5c51.6,0,103.3,0,154.9,0c1.8,0,3.8-0.6,5.2,1.3
		c0,2.6,1.7,3.3,3.9,3.2c1.8,2,1.7,4.4,1.7,6.8c0,11.4,0.7,22.8-0.2,34.1c-0.9,10.6,3.1,18.4,9.4,26.3c14.2,18,27.8,36.5,41.6,54.9
		c1.9,2.5,2.4,5.5,2.4,8.7c-0.1,15.5,0,31-0.1,46.5c0,2.9,0.8,3.6,3.7,3.8c18.6,1,34.8,8.4,50,18.7c2.6,1.8,5.2,3.4,8.3,5.5
		c1.5-12-1.6-22.6-4.8-33.2c-4.8-15.8-12.6-30.8-14.2-47.3c-1.6-15.9-0.4-32,7.2-46.9c0.4-0.7,0.6-1.5,0.9-2.3
		c0.3-0.4,0.5-0.8,0.8-1.1c0.3-2.8,1.6-3.6,4.1-2c0.3,0.2,0.7,0.2,1,0.4c4,2,9.7,3.2,11.6,6.4c1.9,3.4-3.2,7.6-4.6,11.7
		c-4.8,14.2-5,28.4-0.9,42.7c4.3,15.2,11.1,29.5,14.2,45c0.8,3.7,1.9,7.4,2.5,11.1c0.4,2.6,1.2,2.5,3.2,1.5
		c8.8-4.6,17.9-8.4,27.8-9.6c18.6-2.2,36.5-0.9,52.5,10.6c12.4,8.9,22,19.8,29.1,33.3c8.3,15.6,13.6,32.2,16.5,49.5
		c1.8,10.5,4,21.4,2.3,32c-1.4,8.6-0.3,17.5-3.1,25.8C507.9,338.1,506.8,338.9,507.2,340.6z M89.4,17.5c0.1-0.4,0.4-1,0.3-1.1
		c-0.7-0.5-1.1,0.1-1.4,0.6c-1.4,1.5-1.2,2.6,0.9,3.1c0.1,9.6,0.3,19.3,0.1,28.9c0,3.2,0.9,4.1,4.1,4.1c44.2-0.1,88.5-0.1,132.7,0
		c3,0,4.3-0.6,4.3-3.9c-0.2-9.1-0.2-18.2,0-27.4c0.1-3.2-1-4.1-4.1-4.1c-45.6,0.1-91.2,0.1-136.9,0.2L89.4,17.5z M238.3,77.8
		c-11.4,14.9-22.7,29.9-34.6,45.5c23.9,0,46.5,0,69.8,0C262.2,108,251.3,93,240.3,78.1c-0.1-0.8,0-1.7-1.1-1.7
		C238.9,76.4,238.6,77.3,238.3,77.8z M186.6,326.9c3.1-1.1,6.3-0.8,9.5-0.8c4.8,0,9.6-0.1,14.5,0c2.2,0,3.5-0.7,2.8-2.9
		c-1-3.1-0.2-6.2-0.4-9.3c-0.3-6.2-1-12.6,0.1-18.6c1.3-6.8,1.7-13.6,2.8-20.4c2.1-13.3,6.4-25.6,12.2-37.3
		c4.9-10.1,10.3-20,18.3-28.4c9.3-9.8,19.5-17.8,32.7-21.4c3.6-1,4.5-2.5,4.4-5.9c-0.2-11.9-0.2-23.8,0-35.6c0.1-4-0.9-5.2-5.1-5.2
		c-26.2,0.2-52.3,0.2-78.5,0c-4,0-5.1,0.9-5,5c0.2,39.4,0.1,78.8,0.1,118.2c0,8.9,0,8.9-8.5,9.4c-0.9-0.1-1.7-0.3-2.6-0.1
		c-5.3,0.9-6.8-1.1-6.7-6.6c0.4-16.7,0-33.4,0.2-50.1c0-3.8-0.6-5.3-5-5.3c-43.7,0.2-87.4,0.2-131.1,0c-4.3,0-5,1.4-5,5.3
		c0.1,29.4,0.1,58.8,0.1,88.3c0,4.1,0,8.2,0,13.2c2.9-2.9,5.4-3.5,8.4-1.6c2.8,1.8,5.4-2.1,8.4-0.7c0.4,0.3,0.7,0.6,1.1,0.8
		c4,2,8.1,0.1,12.7,1.3c-1.5-3.6-2.6-6.4-3.8-9.2c-4-9.7-6.7-20-3.2-30c4.4-12.6,12.7-21.2,27.3-23.3c19.8-2.9,34.8,3.4,45.5,19.3
		c13,19.4,18,41.8,22.8,64.2c0.3,1.4-0.5,3.9,1.2,4c1.5,0.1,3.5-1.3,4.5-2.7C167.8,332,176.9,328.9,186.6,326.9z M104.9,430.4
		c0.6,1,1.5,1.2,2.6,0.9c4.5-1.3,9.8-8.5,9.8-13.3c5.3-5.4,10.6-11,14.8-17.3c2.1-3.1,6-6.2,5.4-9.8c-0.5-3.5,0.5-6.2,1.1-9.2
		c1.1-5.8,4.5-11.1,3.5-17.3c-1.7-9.7-3-19.4-5.2-28.9c-3.7-16.2-8-32.2-16.1-46.9c-4.4-8-9.8-14.9-19.6-15.9
		c-6.7-0.7-13.7-1.6-19.3,3.8c-5.6,5.3-6.6,16.3-2.6,25.2c4.2,9.2,9.3,17.7,15.9,25.4c2.8,3.3,2.3,7.3,0.7,10.5
		c-1.7,3.4-5.5,4.9-9.3,3.9c-11.5-3-23-5.8-34.8-6.8c-9.1-0.8-18.5-1-25.7,5.2c-12.3,10.7-9.1,24.2,3.7,33.8
		c12.1,9.1,26.3,13.7,40.5,18.5c6.3,2.1,7.6,4.1,6.9,10.4c-0.6,4.8-4.4,6-8.1,7.2c-11.3,3.6-21.7,8.5-30.1,17.2
		c-6.7,6.9-8.5,13.1-4.5,21.1c5.4,11,20.5,15,33.1,9.4C81.8,451,93.5,440.9,104.9,430.4z M452.4,403.6c0.3-0.3,0.6-0.6,0.9-0.8
		c2.4-2.1,4.8-4.3,7.3-6.4c0-0.3,0-0.6,0-0.9c0.7-2.1,2.9-2.7,4.2-4.3c12.6-15.6,21.5-33,26.1-52.7c2.3-9.9,4-19.7,4.1-29.9
		c0-17.3-2.9-34.1-8.3-50.5c-5.5-16.7-14-31.4-27.2-43.2c-7.2-6.4-15.7-10.5-25.1-11.6c-18.7-2.2-35.7,3.4-51.4,13.4
		c-1.3,0.9-1.6,1.9-1.9,3.3c-1.3,7.1-2.7,14.3-4.1,21.4c-0.1,0.6-0.3,1.6-0.2,1.6c1.2,0.3,1.1-0.6,1.2-1.3c0.8-0.4,1.5-0.8,2.3-1.1
		c2.8-1.3,3.2-6.5,6.9-5.6c3.1,0.7,5.8,3.4,8.7,5.1c0.9,0.5,1.7,1.1,2.7,1.4c2.2,0.6,2.1,1.9,1,3.3c-5.6,7.6-12.4,13.6-21.6,16.5
		c-0.9-0.2-1.7-0.2-2.2,0.8c-8.3,5.4-17.2,3-25.6,1c-9.1-2.2-16.4-7.7-22.2-15.3c-3.8-5.1-3.9-5,1.4-7.9c2.5-1.4,5.1-2.8,7.5-4.4
		c1.9-1.2,3-1.2,4.5,0.8c2.7,3.5,6,6.6,10.2,8.5c2.6,1.2,5,1.9,6.1-1.6c1.2-3.7,2-7.5,3.1-11.2c0.3-1,0.5-1.9-0.6-2.7
		c-14.5-10.3-29.2-20.4-46.7-24.8c-2.3-0.6-4.2-2.5-6.7-1.9c-4.9,1.3-9.9,0.4-14.8,0.5c-1.5-1.4-1.8-0.2-2,1
		c-4.3,0.2-8.3,1.3-12.2,3.1c-7.9,3.7-14.2,9.4-20.1,15.6c-1.8,0.2-1.8,1.6-1.8,2.9c-6.9,8.5-12.3,17.6-15.8,28.2
		c-5.1,15.3-9.2,30.4-9.4,46.7c-0.1,7.8-0.1,15.6,0.3,23.4c0.2,3.8,1.6,5.5,5.6,6.5c15.9,4,31.6,8.7,46.9,14.7
		c21.1,8.2,41.9,17.2,62.2,27.4c13,6.5,26.3,12.5,39.1,19.3c14.3,7.5,28.6,15.2,42.2,24.1c2.2,1.4,4.3,1.7,7,0.3
		C440.6,412.7,446.8,408.6,452.4,403.6z M106.7,194c22.2,0,44.4,0,66.6,0.1c2.9,0,4.2-0.4,4.2-3.9c-0.2-15.2-0.2-30.3,0-45.5
		c0-3.1-1.1-3.6-3.9-3.6c-44.4,0.1-88.9,0.1-133.3,0c-3.3,0-4,1.1-3.9,4.1c0.1,14.8,0.2,29.6,0,44.4c-0.1,3.8,1.2,4.5,4.7,4.5
		C62.9,193.9,84.8,194,106.7,194z M221.2,70.7c-45.5,0-89.9,0-134.3,0c-2.1,0-3.3,0.7-4.5,2.4c-7.9,10.8-16,21.4-24,32.1
		c-4.4,5.9-8.9,11.8-13.3,17.7c0.7,0.5,0.8,0.6,0.9,0.6c44.4,0,88.8,0,133.2,0.1c2,0,3-0.8,4.1-2.3c6.9-9.2,13.9-18.3,20.8-27.5
		C209.6,86.4,215.1,78.9,221.2,70.7z"/>
	<path class="st1" d="M310.8,484.2c-0.3,5.6-4.9,3.2-7,2.9c-16.3-2.1-32.6-4.5-48.9-7.2c-2.1-0.3-4.3-0.7-6.4-1.3
		c-6.9-2-8.1-1.2-10.6,5.9c-16-1.6-30.9-7.2-46-12.1c-2.1-0.7-4.1-1.9-6.4-1.7c4.3-8.8,3.7-9.2-5.2-12.8
		c-11.7-4.7-22.3-11.6-27.7-23.4c-3.1-6.7-3.9-14.3-2.8-22.3c1.5-10.2,3.6-20.2,6.9-29.9c3.8-11,7.9-21.9,16.8-30.3
		c6.7-6.2,14.8-8.6,23.4-8.5c7,0.1,14-1,21,0.9c4.1,1.1,8.4,1.1,12.4,2.4c5.1,1.7,10.2,3.2,15.7,3.5c3.4,0.2,6.1,3.2,9.7,3.9
		c1.6,0.3,0.1,2.1-0.1,2.8c-2.2,8.6-5.1,17-7.1,25.6c-1.9,8.4-6,16.4-4.8,25.4c0.2,1.7-2.4,2.4-3.1,3.9c-2.4,5-2.4,10.7-5.1,15.7
		c-0.6,1.1,1.2,2.2,2.4,2.8c3.8,1.9,8,2.6,11.7,4.7c2.5,1.5,2.5-1.7,2.6-2.4c1.3-6.9,4.7-13.6,5.1-20.4c0.4-6.4,5-10.7,5.5-16.7
		c0.6-6.6,2.9-12.9,5.6-18.7c2.1-4.5,1.8-9.3,3.7-13.5c0.7-1.5,0.8-3.3,3.3-2.3c8.3,3.2,16.6,6.3,24.9,9.4c-0.3,1.6,0.3,2.2,1.8,1.8
		c6.5,1.7,13,4.3,18.8,7.3c14.8,7.7,30.2,14.3,44.9,22.1c16.3,8.7,32.5,17.6,48.5,26.8c3.7,2.1,3.2,4.6,2.2,7.7
		c-2.3,7.2-4.6,14.4-6.7,21.7c-0.8,2.7-1,4.7,3.1,5.9c12.3,3.5,12.3,3.9,16.1-8c1.3-4,2.2-8.1,3.4-12.1c0.4-1.4,0.9-2.9,3.2-1.3
		c14.3,9.8,28.4,19.8,39,33.9c3.4,4.6,2.7,6-2.5,9c-8.1,4.7-17.2,5.5-26.1,7c-7.2,1.2-14.6,2.4-21.8,1.9c-7.2-0.5-14.4-0.3-21.6-0.4
		c-9.6-0.2-19.3,0.3-28.9-0.5c-11.7-0.9-23.5-0.7-35.1-2.8c-2.3-0.4-4.8-0.3-7.2-0.1c-3.6,0.3-4-1.2-3.1-4.3
		c2.7-8.7,5.1-17.4,7.6-26.2c-4.8-1.4-9.7-2.7-14.4-4.3c-2-0.7-2.5-0.4-3.1,1.7c-2.5,8.5-5.3,17-7.1,25.7
		C311.1,483.2,310.7,483.5,310.8,484.2z"/>
	<path class="st0" d="M427.4,109.8c7.4,2.4,13.2,7.1,18.1,12.9c6.1,7.4,6.1,12.3-0.8,20c-14.7,16.8-39.2,21.8-58.8,8.6
		c-4.4-2.9-8.1-6.7-11.1-11c-5-6.9-4.1-11.7,2.2-18.9c8.8-10,19.6-15,32.9-14.8c0.7,0,1.4,0,2.1,0c4.5,0.3,9.2,0.1,13.4,2.3
		C425.7,110.2,426.6,110,427.4,109.8z M410.1,141.1c6.7,0.4,12.4-2.1,17.6-6c1.7-1.3,3.2-2.5,0.9-4.9c-8.2-8.4-27.2-8.4-35.2,0
		c-1.5,1.6-1.7,2.8,0,4.2C398.2,138.6,403.6,141,410.1,141.1z"/>
	<path class="st0" d="M246.4,4.6c-2.3,0.1-3.9-0.6-3.9-3.2C244.5,1.5,245.7,2.8,246.4,4.6z"/>
	<path class="st2" d="M507.2,340.6c-0.4-1.7,0.7-2.4,1.9-3.1C511.1,340.2,509.4,340.5,507.2,340.6z"/>
	<path class="st2" d="M153.5,460.7c1.5,0.4,2.4,1.2,1.9,2.9C153.5,463.4,153.5,462.1,153.5,460.7z"/>
	<path class="st2" d="M411.9,106.8c-0.7,0-1.4,0-2.1,0c0.1-0.7,0.2-1.4,1-1.4C411.7,105.3,411.8,106.1,411.9,106.8z"/>
	<path class="st2" d="M238.1,491.5c0.1,0.7,0.2,1.4,0.2,2.1c-0.7-0.1-1.7,0-1.6-1.1C236.7,492,237.6,491.8,238.1,491.5z"/>
	<path class="st2" d="M427.4,109.8c-0.9,0.2-1.7,0.3-2.1-0.8C426.2,108.7,427.3,107.9,427.4,109.8z"/>
	<path class="st2" d="M29.3,411.9c0.2,0.7-0.1,1-0.8,0.8C28.7,412.4,29,412.2,29.3,411.9z"/>
	<path class="st3" d="M353,78.9c-0.3,0.4-0.5,0.8-0.8,1.1C352,79.3,352.4,79.1,353,78.9z"/>
	<path class="st2" d="M468.8,444.8c-0.8,0.2-1-0.3-1.2-0.9C468,444.2,468.4,444.5,468.8,444.8z"/>
	<path class="st4" d="M376.8,241.3c1.4-7.1,2.8-14.2,4.1-21.4c0.3-1.4,0.5-2.5,1.9-3.3c15.7-9.9,32.6-15.6,51.4-13.4
		c9.5,1.1,17.9,5.2,25.1,11.6c13.2,11.8,21.7,26.5,27.2,43.2c5.4,16.5,8.4,33.2,8.3,50.5c0,10.1-1.7,19.9-4.1,29.9
		c-4.6,19.7-13.4,37-26.1,52.7c-1.3,1.6-3.5,2.2-4.2,4.3c-0.3,0.2-0.5,0.3-0.8,0.5c0.2,0.2,0.5,0.3,0.7,0.5
		c-2.4,2.1-4.8,4.3-7.3,6.4c-0.7-0.1-0.9,0.2-0.9,0.8c-5.6,5-11.7,9.1-18.4,12.6c-2.7,1.4-4.8,1.1-7-0.3
		c-13.6-8.9-27.9-16.6-42.2-24.1c-12.9-6.8-26.1-12.8-39.1-19.3c-20.3-10.2-41-19.2-62.2-27.4c-15.3-5.9-31-10.7-46.9-14.7
		c-3.9-1-5.3-2.7-5.6-6.5c-0.4-7.8-0.4-15.6-0.3-23.4c0.2-16.2,4.3-31.4,9.4-46.7c3.6-10.6,8.9-19.7,15.8-28.2
		c1.7-0.3,2-1.4,1.8-2.9c5.9-6.2,12.2-12,20.1-15.6c3.9-1.8,7.9-3,12.2-3.1c0.9,0.1,1.8,0.2,2-1c4.9-0.1,9.9,0.8,14.8-0.5
		c2.4-0.6,4.4,1.3,6.7,1.9c17.6,4.4,32.2,14.5,46.7,24.8c1.1,0.8,0.9,1.6,0.6,2.7c-1,3.7-1.9,7.5-3.1,11.2c-1.1,3.5-3.6,2.8-6.1,1.6
		c-4.2-1.9-7.5-4.9-10.2-8.5c-1.5-2-2.6-2-4.5-0.8c-2.4,1.6-5,3-7.5,4.4c-5.3,2.9-5.3,2.8-1.4,7.9c5.7,7.6,13.1,13.1,22.2,15.3
		c8.4,2,17.3,4.4,25.6-1c0.9,0.3,2.1,1.2,2.2-0.8c9.2-2.9,16-9,21.6-16.5c1.1-1.4,1.2-2.7-1-3.3c-1-0.3-1.8-0.8-2.7-1.4
		c-2.9-1.8-5.6-4.4-8.7-5.1c-3.7-0.9-4.1,4.3-6.9,5.6c-0.8,0.4-1.5,0.8-2.3,1.1C377.5,241.5,377.2,241.4,376.8,241.3z"/>
	<path class="st5" d="M104.9,430.4c-11.4,10.6-23.1,20.6-37.5,27.1c-12.6,5.6-27.7,1.6-33.1-9.4c-3.9-8-2.1-14.2,4.5-21.1
		c8.4-8.6,18.8-13.6,30.1-17.2c3.7-1.2,7.6-2.4,8.1-7.2c0.7-6.3-0.6-8.3-6.9-10.4c-14.1-4.8-28.4-9.4-40.5-18.5
		c-12.8-9.6-16-23.1-3.7-33.8c7.2-6.3,16.6-6,25.7-5.2c11.9,1,23.3,3.8,34.8,6.8c3.8,1,7.6-0.5,9.3-3.9c1.6-3.3,2.1-7.2-0.7-10.5
		c-6.6-7.7-11.7-16.2-15.9-25.4c-4-8.9-3-19.8,2.6-25.2c5.6-5.4,12.6-4.5,19.3-3.8c9.8,1,15.2,7.9,19.6,15.9
		c8.1,14.7,12.5,30.7,16.1,46.9c2.2,9.5,3.6,19.3,5.2,28.9c1.1,6.2-2.4,11.5-3.5,17.3c-0.6,3.1-1.7,5.7-1.1,9.2
		c0.5,3.5-3.3,6.6-5.4,9.8c-4.2,6.3-9.5,11.9-14.8,17.3C113.2,422.1,109,426.2,104.9,430.4z"/>
	<path class="st6" d="M53.3,315.9c-3-1.4-5.6,2.5-8.4,0.7c-3-1.9-5.5-1.3-8.4,1.6c0-5,0-9.1,0-13.2c0-29.4,0.1-58.8-0.1-88.3
		c0-3.9,0.8-5.3,5-5.3c43.7,0.2,87.4,0.2,131.1,0c4.4,0,5,1.5,5,5.3c-0.2,16.7,0.2,33.4-0.2,50.1c-0.1,5.4,1.4,7.5,6.7,6.6
		c0.8-0.1,1.7,0.1,2.6,0.1c0,17.8,0,35.6,0,53.4c-9.7,2-18.8,5.1-25.3,13.3c-1.1,1.3-3.1,2.8-4.5,2.7c-1.7-0.1-0.9-2.6-1.2-4
		c-4.8-22.4-9.7-44.8-22.8-64.2c-10.7-15.9-25.7-22.2-45.5-19.3c-14.6,2.1-22.9,10.7-27.3,23.3c-3.5,10.1-0.7,20.3,3.2,30
		c1.1,2.8,2.3,5.6,3.8,9.2c-4.6-1.2-8.8,0.7-12.7-1.3C54.2,316.2,54,315.8,53.3,315.9z"/>
	<path class="st7" d="M186.6,326.9c0-17.8,0-35.6,0-53.4c8.5-0.5,8.5-0.5,8.5-9.4c0-39.4,0.1-78.8-0.1-118.2c0-4.1,1.1-5,5-5
		c26.2,0.2,52.3,0.2,78.5,0c4.2,0,5.1,1.2,5.1,5.2c-0.3,11.9-0.2,23.7,0,35.6c0.1,3.5-0.8,5-4.4,5.9c-13.1,3.6-23.4,11.6-32.7,21.4
		c-8,8.4-13.4,18.3-18.3,28.4c-5.7,11.8-10.1,24.1-12.2,37.3c-1.1,6.7-1.5,13.6-2.8,20.4c-1.1,6-0.4,12.4-0.1,18.6
		c0.2,3.1-0.6,6.2,0.4,9.3c0.7,2.2-0.6,2.9-2.8,2.9c-4.8-0.1-9.6,0-14.5,0C192.9,326.1,189.7,325.9,186.6,326.9z"/>
	<path class="st7" d="M106.7,194c-21.9,0-43.7-0.1-65.6,0.1c-3.5,0-4.7-0.7-4.7-4.5c0.2-14.8,0.2-29.6,0-44.4c0-3,0.6-4.1,3.9-4.1
		c44.4,0.1,88.9,0.1,133.3,0c2.8,0,3.9,0.6,3.9,3.6c-0.2,15.2-0.2,30.3,0,45.5c0,3.4-1.2,3.9-4.2,3.9
		C151.1,193.9,128.9,194,106.7,194z"/>
	<path class="st7" d="M221.2,70.7c-6.1,8.3-11.6,15.7-17.2,23.1c-6.9,9.2-13.9,18.3-20.8,27.5c-1.1,1.5-2.1,2.3-4.1,2.3
		c-44.4-0.1-88.8-0.1-133.2-0.1c-0.1,0-0.2-0.1-0.9-0.6c4.5-5.9,8.9-11.8,13.3-17.7c8-10.7,16.1-21.4,24-32.1
		c1.2-1.7,2.4-2.4,4.5-2.4C131.3,70.7,175.7,70.7,221.2,70.7z"/>
	<path class="st8" d="M89.4,17.9c45.6,0,91.2,0,136.9-0.2c3.1,0,4.2,0.9,4.1,4.1c-0.2,9.1-0.2,18.2,0,27.4c0.1,3.4-1.3,3.9-4.3,3.9
		c-44.2-0.1-88.5-0.1-132.7,0c-3.2,0-4.1-0.9-4.1-4.1c0.1-9.6-0.1-19.3-0.1-28.9C89.2,19.4,89.3,18.6,89.4,17.9z"/>
	<path class="st7" d="M240.3,78.1c11,14.9,21.9,29.8,33.2,45.2c-23.3,0-45.9,0-69.8,0c11.9-15.6,23.2-30.6,34.6-45.5
		C239,77.9,239.6,78,240.3,78.1z"/>
	<path class="st0" d="M104.9,430.4c4.1-4.1,8.3-8.3,12.4-12.4c0,4.8-5.3,11.9-9.8,13.3C106.4,431.5,105.5,431.4,104.9,430.4z"/>
	<path class="st3" d="M89.4,17.9c-0.1,0.8-0.2,1.5-0.2,2.3c-2.1-0.5-2.3-1.6-0.9-3.1c0.4,0.2,0.8,0.3,1.1,0.5
		C89.4,17.5,89.4,17.9,89.4,17.9z"/>
	<path class="st3" d="M257.6,222.7c0.2,1.5-0.1,2.6-1.8,2.9C255.9,224.3,255.8,222.9,257.6,222.7z"/>
	<path class="st3" d="M292,202.9c-0.2,1.2-1.1,1.2-2,1C290.2,202.7,290.4,201.5,292,202.9z"/>
	<path class="st3" d="M302.4,372.4c-1.6,0.3-2.2-0.3-1.8-1.8C301.7,370.6,302.3,371.2,302.4,372.4z"/>
	<path class="st3" d="M240.3,78.1c-0.7-0.1-1.4-0.2-2-0.3c0.3-0.5,0.6-1.4,0.9-1.4C240.3,76.4,240.2,77.4,240.3,78.1z"/>
	<path class="st3" d="M376.8,241.3c0.3,0.1,0.7,0.2,1,0.3c-0.2,0.7-0.1,1.7-1.2,1.3C376.5,242.9,376.7,241.8,376.8,241.3z"/>
	<path class="st9" d="M377.8,261.2c-0.1,2-1.2,1.1-2.2,0.8C376.1,261,377,261,377.8,261.2z"/>
	<path class="st10" d="M89.4,17.5c-0.4-0.2-0.8-0.3-1.1-0.5c0.3-0.6,0.7-1.1,1.4-0.6C89.8,16.5,89.6,17.1,89.4,17.5z"/>
	<path class="st3" d="M53.3,315.9c0.7-0.1,0.9,0.3,1.1,0.8C54,316.5,53.6,316.2,53.3,315.9z"/>
	<path class="st3" d="M460.5,396.3c-0.2-0.2-0.5-0.3-0.7-0.5c0.3-0.2,0.5-0.3,0.8-0.5C460.5,395.7,460.5,396,460.5,396.3z"/>
	<path class="st3" d="M452.4,403.6c-0.1-0.7,0.2-1,0.9-0.8C453,403,452.7,403.3,452.4,403.6z"/>
	<path class="st0" d="M310.8,484.2c-0.2-0.7,0.2-1,0.8-1.2C311.4,483.4,311.1,483.8,310.8,484.2z"/>
	<path class="st11" d="M410.1,141.1c-6.4-0.1-11.9-2.5-16.7-6.7c-1.7-1.5-1.5-2.6,0-4.2c8-8.4,27-8.3,35.2,0
		c2.3,2.4,0.8,3.6-0.9,4.9C422.5,139,416.7,141.5,410.1,141.1z"/>
</g>
</svg>
