<?xml version="1.0" encoding="utf-8"?>
<svg xmlns="http://www.w3.org/2000/svg" version="1.1" xmlns:xlink="http://www.w3.org/1999/xlink" xmlns:svgjs="http://svgjs.com/svgjs" width="512" height="512" x="0" y="0" viewBox="0 0 24 24" style="enable-background:new 0 0 512 512" xml:space="preserve" class=""><g><path d="M10.75 4v4A2.752 2.752 0 0 1 8 10.75h-.25V20a.75.75 0 0 1-1.5 0v-9.25H6A2.752 2.752 0 0 1 3.25 8V4a.75.75 0 0 1 1.5 0v4c0 .689.561 1.25 1.25 1.25h.25V4a.75.75 0 0 1 1.5 0v5.25H8c.689 0 1.25-.561 1.25-1.25V4a.75.75 0 0 1 1.5 0zm9.297 1.333C19.213 4.028 18.074 3.25 17 3.25s-2.213.779-3.047 2.083c-.824 1.289-1.423 3.274-.634 4.981.478 1.033 1.537 2.067 2.931 2.352v7.333a.75.75 0 0 0 1.5 0v-7.333c1.394-.285 2.453-1.319 2.931-2.352.789-1.708.19-3.693-.634-4.981z" fill="#000000" data-original="#000000" class=""></path></g></svg>