<?xml version="1.0" encoding="utf-8"?>
<!-- Generator: Adobe Illustrator 26.5.0, SVG Export Plug-In . SVG Version: 6.00 Build 0)  -->
<svg version="1.1" id="Layer_1" xmlns="http://www.w3.org/2000/svg" xmlns:xlink="http://www.w3.org/1999/xlink" x="0px" y="0px"
	 viewBox="0 0 20 20" style="enable-background:new 0 0 20 20;" xml:space="preserve">
<style type="text/css">
	.st0{fill:#FFFFFF;}
</style>
<path class="st0" d="M18,11v7c0,1.1-0.9,2-2,2s-2-0.9-2-2v-5h-2V3c0-1.7,1.3-3,3-3h3V11z M4,10c-1.1,0-2-0.9-2-2V1c0-0.6,0.4-1,1-1
	s1,0.4,1,1v4h1V1c0-0.6,0.4-1,1-1s1,0.4,1,1v4h1V1c0-0.6,0.4-1,1-1s1,0.4,1,1v7c0,1.1-0.9,2-2,2v8c0,1.1-0.9,2-2,2s-2-0.9-2-2V10z"
	/>
</svg>
