<!-- Generated by IcoMoon.io -->
<svg xmlns="http://www.w3.org/2000/svg" version="1.1" xmlns:xlink="http://www.w3.org/1999/xlink" xmlns:svgjs="http://svgjs.com/svgjs" width="512" height="512" x="0" y="0" viewBox="0 0 682.667 682.667" style="enable-background:new 0 0 512 512" xml:space="preserve" class=""><g><defs><clipPath id="a" clipPathUnits="userSpaceOnUse"><path d="M0 512h512V0H0Z" fill="#000000" data-original="#000000"></path></clipPath><clipPath id="b" clipPathUnits="userSpaceOnUse"><path d="M0 512h512V0H0Z" fill="#000000" data-original="#000000"></path></clipPath></defs><g clip-path="url(#a)" transform="matrix(1.33333 0 0 -1.33333 0 682.667)"><path d="M0 0c39.856 0 70.052 35.985 63.131 75.236l-27.368 155.21c-6.971 39.534-41.321 68.357-81.464 68.357h-277.354c-40.143 0-74.493-28.823-81.464-68.357l-27.368-155.21C-438.808 35.985-408.612 0-368.756 0c28.618 0 53.105 20.547 58.074 48.729l3.657 20.738c2.792 15.837 16.552 27.383 32.633 27.383h180.028c16.081 0 29.842-11.546 32.634-27.383l3.656-20.738C-53.104 20.547-28.618 0 0 0" style="fill-opacity:1;fill-rule:nonzero;stroke:none" transform="translate(440.378 56.735)" fill="#7293df" data-original="#7293df" class=""></path><path d="M0 0c-40.144 0-74.493-28.822-81.464-68.356l-27.368-155.21c-6.921-39.251 23.274-75.237 63.131-75.237 28.618 0 53.104 20.547 58.074 48.73l3.656 20.737c2.792 15.837 16.553 27.383 32.634 27.383h9.607C8.999-156.659.103-61.169 10.477 0Z" style="fill-opacity:1;fill-rule:nonzero;stroke:none" transform="translate(117.323 355.538)" fill="#4677d5" data-original="#4677d5"></path><path d="M0 0c0 26.653-21.606 48.261-48.26 48.261-26.653 0-48.26-21.608-48.26-48.261 0-26.653 21.607-48.26 48.26-48.26C-21.606-48.26 0-26.653 0 0" style="fill-opacity:1;fill-rule:nonzero;stroke:none" transform="translate(169.212 258.27)" fill="#ff98c4" data-original="#ff98c4"></path><path d="M0 0h-43.697v-88.224c0-12.066 9.782-21.848 21.848-21.848C-9.782-110.072 0-100.29 0-88.224z" style="fill-opacity:1;fill-rule:nonzero;stroke:none" transform="translate(142.8 359.822)" fill="#efedff" data-original="#efedff"></path><path d="M0 0c0-13.128-10.642-23.771-23.77-23.771-13.127 0-23.77 10.643-23.77 23.771 0 13.127 10.643 23.77 23.77 23.77C-10.642 23.77 0 13.127 0 0" style="fill-opacity:1;fill-rule:nonzero;stroke:none" transform="translate(383.26 223.38)" fill="#ff98c4" data-original="#ff98c4"></path><path d="M0 0c0-13.128-10.643-23.77-23.771-23.77C-36.898-23.77-47.54-13.128-47.54 0s10.642 23.771 23.769 23.771C-10.643 23.771 0 13.128 0 0" style="fill-opacity:1;fill-rule:nonzero;stroke:none" transform="translate(426.577 292.51)" fill="#f8ea69" data-original="#f8ea69"></path><path d="M0 0h-48.929c-7.067 0-12.797-5.729-12.797-12.798v-16.348c0-7.068 5.73-12.797 12.797-12.797H0c7.068 0 12.798 5.729 12.798 12.797v16.348C12.798-5.729 7.068 0 0 0" style="fill-opacity:1;fill-rule:nonzero;stroke:none" transform="translate(280.464 255.047)" fill="#f8ea69" data-original="#f8ea69"></path><path d="M0 0a88.401 88.401 0 0 1 21.849-2.73c7.537 0 14.857.949 21.848 2.73v48.924H0Z" style="fill-opacity:1;fill-rule:nonzero;stroke:none" transform="translate(99.103 310.898)" fill="#d4d4ff" data-original="#d4d4ff"></path><path d="M0 0c0-32.336-26.213-58.549-58.548-58.549S-117.096-32.336-117.096 0c0 32.335 26.213 58.548 58.548 58.548S0 32.335 0 0" style="fill-opacity:1;fill-rule:nonzero;stroke:none" transform="translate(179.5 396.717)" fill="#ffbcd6" data-original="#ffbcd6"></path><path d="M0 0c-69.858-15.247-98.102 52.212-72.622 82.318-21.946-8.448-37.527-29.72-37.527-54.643 0-32.336 26.213-58.549 58.548-58.549C-29.276-30.874-9.876-18.377 0 0" style="fill-opacity:1;fill-rule:nonzero;stroke:none" transform="translate(172.553 369.042)" fill="#ff98c4" data-original="#ff98c4"></path><path d="M0 0c0-13.128-10.642-23.771-23.77-23.771-13.127 0-23.77 10.643-23.77 23.771 0 13.127 10.643 23.77 23.77 23.77C-10.642 23.77 0 13.127 0 0Z" style="stroke-width:15;stroke-linecap:round;stroke-linejoin:round;stroke-miterlimit:10;stroke-dasharray:none;stroke-opacity:1" transform="translate(383.26 223.38)" fill="none" stroke="#000000" stroke-width="15" stroke-linecap="round" stroke-linejoin="round" stroke-miterlimit="10" stroke-dasharray="none" stroke-opacity="" data-original="#000000" class=""></path><path d="M0 0c0-13.128-10.643-23.77-23.771-23.77C-36.898-23.77-47.54-13.128-47.54 0s10.642 23.771 23.769 23.771C-10.643 23.771 0 13.128 0 0Z" style="stroke-width:15;stroke-linecap:round;stroke-linejoin:round;stroke-miterlimit:10;stroke-dasharray:none;stroke-opacity:1" transform="translate(426.577 292.51)" fill="none" stroke="#000000" stroke-width="15" stroke-linecap="round" stroke-linejoin="round" stroke-miterlimit="10" stroke-dasharray="none" stroke-opacity="" data-original="#000000" class=""></path><path d="M0 0h-48.929c-7.067 0-12.797-5.729-12.797-12.798v-16.348c0-7.068 5.73-12.797 12.797-12.797H0c7.068 0 12.798 5.729 12.798 12.797v16.348C12.798-5.729 7.068 0 0 0Z" style="stroke-width:15;stroke-linecap:round;stroke-linejoin:round;stroke-miterlimit:10;stroke-dasharray:none;stroke-opacity:1" transform="translate(280.464 255.047)" fill="none" stroke="#000000" stroke-width="15" stroke-linecap="round" stroke-linejoin="round" stroke-miterlimit="10" stroke-dasharray="none" stroke-opacity="" data-original="#000000" class=""></path><path d="M0 0c0-32.336-26.213-58.549-58.548-58.549S-117.096-32.336-117.096 0c0 32.335 26.213 58.548 58.548 58.548S0 32.335 0 0Z" style="stroke-width:15;stroke-linecap:round;stroke-linejoin:round;stroke-miterlimit:10;stroke-dasharray:none;stroke-opacity:1" transform="translate(179.5 396.717)" fill="none" stroke="#000000" stroke-width="15" stroke-linecap="round" stroke-linejoin="round" stroke-miterlimit="10" stroke-dasharray="none" stroke-opacity="" data-original="#000000" class=""></path><path d="M0 0h-224.306" style="stroke-width:15;stroke-linecap:round;stroke-linejoin:round;stroke-miterlimit:10;stroke-dasharray:none;stroke-opacity:1" transform="translate(386.868 355.538)" fill="none" stroke="#000000" stroke-width="15" stroke-linecap="round" stroke-linejoin="round" stroke-miterlimit="10" stroke-dasharray="none" stroke-opacity="" data-original="#000000" class=""></path><path d="M0 0c9.019-4.89 19.384-7.689 30.501-7.689 28.618 0 53.104 20.546 58.074 48.729l3.656 20.737c2.793 15.837 16.553 27.383 32.634 27.383h180.028c16.081 0 29.841-11.546 32.633-27.383l3.657-20.737c4.969-28.183 29.456-48.729 58.074-48.729 39.856 0 70.052 35.985 63.131 75.236l-27.368 155.21c-5.228 29.65-25.857 53.275-52.78 63.235" style="stroke-width:15;stroke-linecap:round;stroke-linejoin:round;stroke-miterlimit:10;stroke-dasharray:none;stroke-opacity:1" transform="translate(41.121 64.425)" fill="none" stroke="#000000" stroke-width="15" stroke-linecap="round" stroke-linejoin="round" stroke-miterlimit="10" stroke-dasharray="none" stroke-opacity="" data-original="#000000" class=""></path><path d="M0 0c-25.787-10.432-45.397-33.529-50.475-62.325l-27.368-155.21c-2.696-15.293.241-30.09 7.19-42.457" style="stroke-width:15;stroke-linecap:round;stroke-linejoin:round;stroke-miterlimit:10;stroke-dasharray:none;stroke-opacity:1" transform="translate(86.334 349.507)" fill="none" stroke="#000000" stroke-width="15" stroke-linecap="round" stroke-linejoin="round" stroke-miterlimit="10" stroke-dasharray="none" stroke-opacity="" data-original="#000000" class=""></path><path d="M0 0v-70.8c0-12.066 9.782-21.848 21.849-21.848 12.066 0 21.848 9.782 21.848 21.848V0" style="stroke-width:15;stroke-linecap:round;stroke-linejoin:round;stroke-miterlimit:10;stroke-dasharray:none;stroke-opacity:1" transform="translate(99.103 342.398)" fill="none" stroke="#000000" stroke-width="15" stroke-linecap="round" stroke-linejoin="round" stroke-miterlimit="10" stroke-dasharray="none" stroke-opacity="" data-original="#000000" class=""></path><path d="M0 0c-15.67-7.973-26.411-24.24-26.411-43.027 0-26.654 21.606-48.26 48.26-48.26 26.653 0 48.259 21.606 48.259 48.26C70.108-24.24 59.367-7.973 43.697 0" style="stroke-width:15;stroke-linecap:round;stroke-linejoin:round;stroke-miterlimit:10;stroke-dasharray:none;stroke-opacity:1" transform="translate(99.103 301.297)" fill="none" stroke="#000000" stroke-width="15" stroke-linecap="round" stroke-linejoin="round" stroke-miterlimit="10" stroke-dasharray="none" stroke-opacity="" data-original="#000000" class=""></path><path d="M0 0v-12" style="stroke-width:15;stroke-linecap:round;stroke-linejoin:round;stroke-miterlimit:10;stroke-dasharray:none;stroke-opacity:1" transform="translate(193.552 317.33)" fill="none" stroke="#000000" stroke-width="15" stroke-linecap="round" stroke-linejoin="round" stroke-miterlimit="10" stroke-dasharray="none" stroke-opacity="" data-original="#000000" class=""></path><path d="M0 0v-12" style="stroke-width:15;stroke-linecap:round;stroke-linejoin:round;stroke-miterlimit:10;stroke-dasharray:none;stroke-opacity:1" transform="translate(318.448 317.33)" fill="none" stroke="#000000" stroke-width="15" stroke-linecap="round" stroke-linejoin="round" stroke-miterlimit="10" stroke-dasharray="none" stroke-opacity="" data-original="#000000" class=""></path><path d="M0 0c4.003-4.594 9.892-7.501 16.464-7.501 6.572 0 12.461 2.907 16.464 7.501" style="stroke-width:15;stroke-linecap:round;stroke-linejoin:round;stroke-miterlimit:10;stroke-dasharray:none;stroke-opacity:1" transform="translate(239.536 305.688)" fill="none" stroke="#000000" stroke-width="15" stroke-linecap="round" stroke-linejoin="round" stroke-miterlimit="10" stroke-dasharray="none" stroke-opacity="" data-original="#000000" class=""></path></g><g clip-path="url(#b)" transform="matrix(1.33333 0 0 -1.33333 0 682.667)"><path d="M0 0c6.049 8.049 13.922 16.565 22.296 24.271 10.773 9.916 28.21 5.531 33.092-8.274 103.207-291.876-41.21-391.416-184.922-391.416-143.189 0-287.077 98.816-186.038 388.236 4.95 14.182 23.099 18.159 33.495 7.315 8.621-8.993 17.033-18.548 23.101-27.397 3.364-4.905 10.741-4.463 13.58.763 14.452 26.593 48.885 63.207 70.775 103.872 12.135 22.544 41.582 29.141 62.243 14.021C-72.547 82.242-28.388 31.85-12.34 1.077-9.85-3.699-3.236-4.307 0 0" style="fill-opacity:1;fill-rule:nonzero;stroke:none" transform="translate(912.777 384.952)" fill="#f8ea69" data-original="#f8ea69"></path></g></g></svg>