<?xml version="1.0" encoding="utf-8"?>
<!-- Generator: Adobe Illustrator 27.1.1, SVG Export Plug-In . SVG Version: 6.00 Build 0)  -->
<svg version="1.1" id="Layer_1" xmlns="http://www.w3.org/2000/svg" xmlns:xlink="http://www.w3.org/1999/xlink" x="0px" y="0px"
	 viewBox="0 0 512 512" style="enable-background:new 0 0 512 512;" xml:space="preserve">
<style type="text/css">
	.st0{fill:#F7941E;}
	.st1{fill:#F78F1F;}
	.st2{fill:#FBAC18;}
	.st3{fill:#FFD800;}
	.st4{fill:#FFC225;}
	.st5{fill:#FFFDF9;}
	.st6{fill:#FFD700;}
	.st7{fill:#FEBF10;}
	.st8{fill:#FBAE18;}
	.st9{fill:#FEBF0F;}
</style>
<g id="Twji4x.tif">
	<g>
		<path class="st0" d="M511.5,177.3c-2.9,6.2-8,10.6-12.8,15.3c-18.4,18.3-37,36.3-54.9,55.1c-26.8,27.9-54.5,54.9-81.7,82.4
			c-15.1,15.3-30.2,30.7-45.7,45.6c-39.8,38.2-78.1,77.8-117.3,116.6c-4.2,4.1-7.6,9.1-12.7,12.3c-0.4,0.3-0.7,0.6-1.1,0.9l-0.4,0.1
			c0,0-0.4,0-0.4,0c-2-0.1-3.9,0.1-5.9,0.6c-5.9,1.4-15.1-2.8-17.3-7.6c0.3-0.7,0.7-1.3,1-2c1.4-1.2,2.8-2.3,4.1-3.6
			c111.4-111.4,222.8-222.8,334.2-334.1c1.3-1.3,2.7-2.4,4.1-3.6c4,2.2,4.7,6.6,6.9,10C511.5,169.3,511.5,173.3,511.5,177.3z"/>
		<path class="st1" d="M161.4,498.5c2.2,4.8,11.3,9,17.3,7.6c2-0.5,3.9-0.7,5.9-0.6c-2,3.5-6.2,3.8-9.2,5.9c-3.3,0-6.7,0-10,0
			c-5.9-2.3-10.3-6.6-14.7-11c-47-47.1-94.1-94.2-141.3-141.3c-3.5-3.5-7.3-6.9-8-12.1c-0.8-6-1.4-12.1,2.4-17.5
			c0.8-1.1,1.4-2.8,3.4-2c-0.2,4.3-0.7,8.5-0.4,12.8c0.4,4.7,1.8,9.3,6.7,11.6c0.3,2,1.9,3.1,3.2,4.3c10.5,10.4,21.1,20.6,31.6,30.9
			c36.2,35.6,72,71.7,107.9,107.6C157.8,496.3,158.9,498.4,161.4,498.5z"/>
		<path class="st2" d="M504.7,155.3c-1.4,1.2-2.8,2.3-4.1,3.6C389.2,270.2,277.8,381.6,166.4,492.9c-1.3,1.3-2.7,2.4-4.1,3.6
			c0.4-1.8,0.6-3.6,1.3-5.3c6.2-15.5,12.4-31,18.7-46.5c10.6-26.4,21.3-52.8,31.9-79.2c15.3-38,30.5-76.1,45.7-114.1
			c9.5-23.7,18.8-47.4,28.3-71c18.9-47.3,38-94.6,56.8-142c3.8-9.5,8.3-18.7,10.9-28.7c0.4-0.8,0.8-1.5,1.2-2.3
			c48.4,48.4,96.9,96.8,145.3,145.3C503.2,153.5,503.9,154.4,504.7,155.3z M423.9,159.8c-4-0.5-8.1-1.4-12.1-1.4
			c-12.6,0.1-25.2-1.8-37.8-1.1c-3.4,0.2-4.3-1.1-4.2-4.3c0.6-13.9-1.7-27.7-1.9-41.6c0-1.3,0.2-3.2-1.5-3.2c-1.7,0-1.4,1.8-1.6,3.1
			c-1.5,13.8-1,27.8-1.9,41.6c-0.2,3-0.7,4.5-4.1,4.4c-12.9-0.4-25.8,1.5-38.7,1.1c-3.6-0.1-7.1,0.9-10.7,1.4
			c6.1,3.2,12.5,2.8,18.6,3.3c10.4,0.8,20.9-0.5,31.3,1c2.8,0.4,3.5,1.3,3.6,3.9c0.4,10.9,0.8,21.9,1.1,32.8
			c0.2,5.7,0.2,11.7,2.4,18.2c0.6-2.3,1.2-3.7,1.3-5.1c0.9-14.2,2.1-28.4,2-42.6c0-7.7,0.2-7.9,8.2-8c9.1-0.1,18.3,0.2,27.4-0.2
			C411.7,162.9,418,162.8,423.9,159.8z M367.7,105.7c-0.4-0.4-0.6-0.9-1-1c-0.4-0.1-1,0.1-1.2,0.3c-0.4,0.7,0,1.2,0.8,1.2
			C366.7,106.2,367.1,105.9,367.7,105.7z"/>
		<path class="st3" d="M357.1,7.4c-0.4,0.8-0.8,1.5-1.2,2.3c-3.1,2.2-5.7,4.9-8,8c-1.1,1-2.3,1.9-3.4,2.9
			c-59.1,59.1-118.2,118.2-177.3,177.3c-1,1-1.9,2.2-2.9,3.4c-3.4,2.6-6.4,5.6-9,9c-2.7,1.9-5.1,4.3-7,7c-1.4,1.2-2.8,2.3-4.1,3.6
			c-24,24.6-49,48.1-72.5,73.3c-11,11.8-22.7,22.9-34.1,34.2c-8,8-16.1,15.8-24.2,23.7c-4.9-2.3-6.3-6.9-6.7-11.6
			c-0.3-4.2,0.2-8.5,0.4-12.8c0,0,0-0.2,0-0.2c1.1-0.6,1.6-1.5,1.3-2.7c0,0-0.1,0.1-0.1,0.1c0.4-0.3,0.8-0.5,1.3-0.8
			c0.8-0.5,1-1.3,0.9-2.2c0,0-0.1,0.1-0.1,0.1c0.3-0.4,0.7-0.7,1-1.1c18.1-18.2,36.3-36.3,54.2-54.7c8.1-8.3,17.4-15.1,24.8-24.1
			c0.3-0.4,0.5-0.7,0.8-1.1c1.1-1.2,2.2-2.5,3.3-3.7c47.9-47.9,95.8-95.8,143.8-143.8c27.7-27.7,55.5-55.4,83.1-83.1
			c7.5-7.6,15.9-12.2,26.8-8.7C351.8,2.8,354.9,4.4,357.1,7.4z"/>
		<path class="st1" d="M80.6,77.5c1.4,1.7,2.2,3.6,2.1,5.7c-0.7,13.3,2.1,26.4,1.3,39.6c-0.2,3.8,1,5,4.7,4.6
			c6.9-0.7,14.1-1.1,20.6-0.5c9.6,1,19.5,0.4,29.1,3.9c-3.1,0.5-6.1,1.2-9.2,1.5c-13.4,1.4-26.8,1.1-40.2,0.9
			c-3.6,0-5.3,0.6-5.1,4.8c0.6,15.3-1.5,30.5-1.6,45.7c0,1.4-0.8,2.8-1.4,5c-1.4-2.8-2.2-5.1-2.3-7.6c-0.8-14.5-1.3-29.1-0.9-43.7
			c0.1-3.1-0.7-4.3-4-4.2c-8.3,0.3-16.6,0.1-24.9,0.1c-8.6,0-17.2-1-26.9-2.4c4-2.7,7.5-2.4,10.7-2.6c13.5-0.6,27.1-1.2,40.7-1.4
			c3.9-0.1,4.7-1.4,4.5-4.9c-0.3-7.1,0.3-14.3-0.2-21.4C77,93.2,79.9,86,78.6,78.5C79.3,78.3,80.2,78.5,80.6,77.5z"/>
		<path class="st4" d="M172.1,73.7c-4.7-3.5-9.4-7-13.3-11.3c-4.5-4.9-4.6-4.8-9.5-0.2c-4.2,3.9-7.3,8.9-12.7,11.4
			c-0.2-0.2-0.4-0.4-0.6-0.6c3.4-6.4,9.8-10.1,13.9-15.8c1.5-2.1,1-2.8-0.4-4.1c-5.2-4.9-10.1-10.2-14.2-16.2
			c0.2-0.3,0.5-0.6,0.7-0.9c6.5,4.9,12.1,10.8,17.7,16.3c7.4-4.5,12.1-11.8,19.2-16.3c0.2,0.3,0.4,0.5,0.6,0.8
			c-1.5,4.1-5.3,6.2-8,9.3c-1.9,2.3-4.1,4.4-6.1,6.5c-1.9,2-2.1,3.5,0.2,5.6c4.9,4.7,9.7,9.5,13.8,14.9
			C172.8,73.3,172.5,73.5,172.1,73.7z"/>
		<path class="st5" d="M80.6,77.5c-0.3,1-1.3,0.8-2,1C78.8,77.3,78.9,76,80.6,77.5z"/>
		<path class="st5" d="M134.4,75.8c-0.2,0.7-0.4,1.7-1.4,1.1c-0.7-0.4-0.2-1,0.4-1.4C133.7,75.6,134.1,75.7,134.4,75.8z"/>
		<path class="st1" d="M8.6,324.7c0.3,1.2-0.2,2.2-1.3,2.7C6.3,325.9,6.3,324.7,8.6,324.7z"/>
		<path class="st4" d="M173.9,73.7c0.7,0.6,1.9,1.2,1,2.3c-0.3,0.4-1.3-0.6-1.7-1.3C173.4,74.3,173.6,74,173.9,73.7z"/>
		<path class="st4" d="M134.4,75.8c-0.3-0.1-0.7-0.2-1-0.3c0.1-0.9,0.8-1.2,1.6-1.4c0.2,0.1,0.3,0.3,0.5,0.4
			C135.1,75,134.8,75.4,134.4,75.8z"/>
		<path class="st0" d="M10.7,321.8c0.1,0.9-0.1,1.7-0.9,2.2c0-0.4-0.1-0.8-0.1-1.2C10,322.5,10.4,322.2,10.7,321.8z"/>
		<path class="st1" d="M9.7,322.8c0,0.4,0.1,0.8,0.1,1.2c-0.4,0.3-0.8,0.5-1.3,0.8C7.9,323.5,9,323.3,9.7,322.8z"/>
		<path class="st4" d="M135.2,36.8c-0.2-0.3-0.3-0.6-0.5-0.9c0.4,0,0.8,0,1.2,0C135.6,36.2,135.4,36.5,135.2,36.8z"/>
		<path class="st4" d="M174.9,34.1c0.4-0.1,0.7-0.1,1.1-0.2c-0.2,0.3-0.4,0.5-0.5,0.8C175.3,34.5,175.1,34.3,174.9,34.1z"/>
		<path class="st4" d="M175.5,34.7c-0.4,0.3-0.7,0.6-1.1,0.9c-0.2-0.2-0.4-0.4-0.6-0.6c0.4-0.3,0.8-0.6,1.2-0.9
			C175.1,34.3,175.3,34.5,175.5,34.7z"/>
		<path class="st6" d="M91.5,241c-0.3,0.4-0.5,0.7-0.8,1.1C90.6,241.4,91,241.2,91.5,241z"/>
		<path class="st4" d="M173.2,74.7c-0.4-0.3-0.7-0.6-1.1-0.9c0.4-0.2,0.7-0.5,1.1-0.7c0.3,0.2,0.5,0.4,0.7,0.7
			C173.6,74,173.4,74.3,173.2,74.7z"/>
		<path class="st4" d="M136.5,73.6c-0.3,0.3-0.7,0.6-1,1c-0.2-0.1-0.3-0.3-0.5-0.4c0.3-0.4,0.6-0.8,0.9-1.2
			C136.1,73.1,136.3,73.4,136.5,73.6z"/>
		<path class="st0" d="M11.7,320.8c-0.3,0.4-0.7,0.7-1,1.1C11,321.6,11.3,321.2,11.7,320.8z"/>
		<path class="st4" d="M174.4,35.7c-0.3,0.3-0.6,0.7-1,1c-0.2-0.2-0.5-0.5-0.6-0.8c0.3-0.3,0.7-0.6,1-0.9
			C174,35.2,174.2,35.4,174.4,35.7z"/>
		<path class="st1" d="M185.3,505.4c0.4-0.3,0.7-0.6,1.1-0.9C186.2,505,186.1,505.6,185.3,505.4z"/>
		<path class="st7" d="M155.4,210.2c2.6-3.4,5.6-6.4,9-9c2.1,0.3,3.4-0.9,4.7-2.2c11.6-11.3,23.4-22.5,34.8-33.9
			c33.3-33.4,67-66.4,99.6-100.5c6.4-6.7,13.3-12.8,19.6-19.6c7-7.5,14.5-14.6,21.8-21.9c1.5-1.5,3.3-2.9,2.9-5.4c2.3-3,4.9-5.7,8-8
			c-2.6,10-7.1,19.2-10.9,28.7c-18.8,47.4-37.9,94.7-56.8,142c-9.5,23.7-18.8,47.4-28.3,71c-15.2,38-30.5,76.1-45.7,114.1
			c-10.6,26.4-21.3,52.8-31.9,79.2c-6.2,15.5-12.5,31-18.7,46.5c-0.7,1.7-0.8,3.5-1.3,5.3c-0.3,0.7-0.7,1.3-1,2
			c-2.5-0.1-3.6-2.2-5.1-3.7c-36-35.9-71.7-71.9-107.9-107.6c-10.5-10.3-21.1-20.6-31.6-30.9c-1.3-1.3-2.9-2.3-3.2-4.3
			c8.1-7.9,16.1-15.8,24.2-23.7c11.4-11.4,23.1-22.5,34.1-34.2c23.5-25.1,48.5-48.7,72.5-73.3c1.3-1.3,2.7-2.4,4.1-3.6
			C152.6,216.7,154.9,214.4,155.4,210.2z M178.3,233.1c0-0.3,0-0.7,0-1c-0.1-1.3,0.1-2.8-1.9-2.9c-0.9,0-1.7,0.2-1.9,1.2
			c-0.4,1.4,0,2.7,1.3,3.3c0.7,0.3,1.6,0.3,2.4,0.4c0.3,0.7,0.7,1.3,1,2c-1,5.6,3,6.3,7,7c2.7,3,5.3,6,8,9c-1.1,1.1-2.4,2.1-2,4
			c-2.3,2.7-4.7,5.3-7,8c-4.5,0.1-6.9,2.5-7,7c-0.3,0.3-0.6,0.7-1,1c-2.1,0.3-2.6,1.5-1.3,2.9c1.4,1.5,2.8,1.5,3.2-1
			c0.3-0.3,0.7-0.6,1-1c4.6-0.1,6.9-2.4,7-7c2.2-3.1,4.9-5.7,8-8c1.9,2.1,2.6-0.9,4-1c2.5,2.5,5.9,3.9,8,7c0.4,5.3,2.5,7.4,7,7
			c0.7,0.3,1.3,0.7,2,1c0.1,1.5-0.1,3.4,1.8,3.4c1.8,0,1.2-2,1.5-3.1c1-4.3-1.5-5.5-5.3-5.3c-1.7-0.9-3-2.3-4-4
			c0.2-2.1-0.6-3.9-1.9-5.4c-2-2.2-3.4-4.7-4-7.6c2.3-2.7,4.7-5.3,7-8c5.1-0.4,6.4-1.7,6-6c0.7-0.7,1.3-1.3,2-2
			c2-0.1,3.1-1.1,2.9-3.2c-0.1-1.2-0.9-1.7-2-1.7c-2,0.1-1.8,1.6-1.9,2.9c-0.3,0-0.6,0-1,0c-3.9,0.1-6.5,1.5-6,6c-2.5,3.2-6,5.3-9,8
			c-3.2,0.2-6.3,0.2-8.4-2.8c-0.8-1.2-2.3-1.2-3.6-1.2c-1.7-1.3-3.3-2.7-5-4c-0.8-4.9-1.3-5.4-5-4.9
			C179.6,233.1,179,233.1,178.3,233.1C178.3,233.1,178.3,233.1,178.3,233.1z"/>
		<path class="st6" d="M423.9,159.8c-5.9,3-12.2,3.1-18.4,3.3c-9.1,0.4-18.3,0.1-27.4,0.2c-8,0.1-8.2,0.3-8.2,8
			c0,14.2-1.1,28.4-2,42.6c-0.1,1.4-0.7,2.8-1.3,5.1c-2.2-6.5-2.3-12.4-2.4-18.2c-0.3-10.9-0.7-21.9-1.1-32.8
			c-0.1-2.7-0.8-3.5-3.6-3.9c-10.4-1.4-20.9-0.2-31.3-1c-6.2-0.5-12.5-0.1-18.6-3.3c3.6-0.5,7.2-1.5,10.7-1.4
			c13,0.4,25.8-1.5,38.7-1.1c3.5,0.1,3.9-1.4,4.1-4.4c0.9-13.9,0.3-27.8,1.9-41.6c0.1-1.3-0.1-3.2,1.6-3.1c1.6,0,1.4,1.9,1.5,3.2
			c0.2,13.9,2.5,27.7,1.9,41.6c-0.1,3.2,0.8,4.5,4.2,4.3c12.6-0.8,25.2,1.1,37.8,1.1C415.8,158.4,419.8,159.3,423.9,159.8z"/>
		<path class="st8" d="M367.7,105.7c-0.6,0.3-1,0.6-1.4,0.6c-0.7,0-1.2-0.5-0.8-1.2c0.2-0.3,0.8-0.4,1.2-0.3
			C367,104.8,367.3,105.2,367.7,105.7z"/>
		<path class="st9" d="M347.9,17.6c0.4,2.5-1.4,3.9-2.9,5.4c-7.3,7.3-14.8,14.4-21.8,21.9c-6.3,6.8-13.3,12.9-19.6,19.6
			c-32.6,34.1-66.3,67.1-99.6,100.5c-11.5,11.5-23.2,22.6-34.8,33.9c-1.4,1.3-2.7,2.5-4.7,2.2c1-1.1,1.9-2.3,2.9-3.4
			c59.1-59.1,118.2-118.2,177.3-177.3C345.6,19.5,346.8,18.6,347.9,17.6z"/>
		<path class="st9" d="M155.4,210.2c-0.5,4.2-2.8,6.5-7,7C150.3,214.4,152.7,212.1,155.4,210.2z"/>
		<path class="st6" d="M216.2,272.1c-0.7-0.3-1.3-0.7-2-1c-1.9-2.7-4.3-5-7-7c-2-3.1-5.4-4.5-8-7c-1.9-1.9-3-0.6-4,1
			c-3,2.3-5.7,4.9-8,8c-2.8,1.9-5,4.3-7,7c-0.3,0.3-0.7,0.6-1,1c-1.3,0-2-0.6-1.9-1.9c0.3-0.3,0.6-0.7,1-1c2.7-2,5.1-4.3,7-7
			c2.3-2.7,4.7-5.3,7-8c1-1.2,4-1.4,2-4c-2.7-3-5.3-6-8-9c-1.9-2.7-4.3-5-7-7c-0.3-0.7-0.7-1.3-1-2c0-0.3,0-0.7,0-1c0.7,0,1.3,0,2,0
			c1.3,2,2.9,3.7,5,4.9c1.7,1.3,3.3,2.7,5,4c1.4,1.6,3,3.1,4.3,4.8c3.1,4.1,5.5,3.1,7.7-0.8c2.9-2.7,6.5-4.8,9-8
			c2.4-1.6,4.4-3.6,6-6c0.3,0,0.6,0,1,0c0.8,0.4,1,1.2,1,2c-0.7,0.7-1.3,1.3-2,2c-2.4,1.6-4.4,3.6-6,6c-2.3,2.7-4.7,5.3-7,8
			c-1.4,1.2-4.2,2.2-1.9,4.4c2.8,2.7,4.3,6.6,7.9,8.6c1,1.7,2.3,3,4,4C215.1,268.6,216.7,270,216.2,272.1z"/>
		<path class="st9" d="M210.2,263.1c-3.6-2-5.1-5.9-7.9-8.6c-2.3-2.2,0.5-3.2,1.9-4.4c0.6,2.9,2.1,5.4,4,7.6
			C209.6,259.2,210.4,261,210.2,263.1z"/>
		<path class="st9" d="M202.3,246.1c-2.2,3.9-4.6,4.9-7.7,0.8c-1.3-1.7-2.8-3.2-4.3-4.8c1.3-0.1,2.8,0,3.6,1.2
			C196,246.3,199.1,246.3,202.3,246.1z"/>
		<path class="st9" d="M216.2,272.1c0.4-2.1-1.1-3.4-2-5c3.7-0.2,6.2,1,5.3,5.3c-0.2,1.1,0.3,3.2-1.5,3.1
			C216.1,275.5,216.3,273.5,216.2,272.1z"/>
		<path class="st9" d="M207.3,264.1c2.7,1.9,5,4.3,7,7C209.8,271.5,207.6,269.4,207.3,264.1z"/>
		<path class="st9" d="M179.3,236.1c2.7,2,5,4.3,7,7C182.3,242.4,178.4,241.7,179.3,236.1z"/>
		<path class="st9" d="M180.3,273c2-2.7,4.3-5.1,7-7C187.2,270.6,184.8,272.9,180.3,273z"/>
		<path class="st9" d="M185.3,264c-1.9,2.8-4.3,5-7,7C178.4,266.5,180.8,264.2,185.3,264z"/>
		<path class="st9" d="M211.3,242.1c1.6-2.4,3.6-4.4,6-6C217.7,240.4,216.4,241.7,211.3,242.1z"/>
		<path class="st9" d="M178.3,233.1c0,0.3,0,0.7,0,1c-0.8-0.1-1.7-0.1-2.4-0.4c-1.4-0.6-1.7-1.9-1.3-3.3c0.3-1,1.1-1.2,1.9-1.2
			c1.9,0.1,1.8,1.6,1.9,2.9C177.6,232.4,177.6,232.8,178.3,233.1L178.3,233.1z"/>
		<path class="st9" d="M219.2,234.1c0-0.8-0.2-1.6-1-2c0.1-1.3-0.1-2.8,1.9-2.9c1.1,0,1.9,0.4,2,1.7
			C222.2,233,221.2,234,219.2,234.1z"/>
		<path class="st9" d="M217.3,232.1c-1.6,2.4-3.6,4.4-6,6C210.8,233.6,213.4,232.2,217.3,232.1z"/>
		<path class="st9" d="M185.3,238.1c-2.1-1.3-3.7-2.9-5-4.9C184,232.7,184.5,233.2,185.3,238.1z"/>
		<path class="st9" d="M177.4,272c0,1.3,0.6,1.9,1.9,1.9c-0.4,2.5-1.9,2.5-3.2,1C174.8,273.5,175.3,272.3,177.4,272z"/>
		<path class="st9" d="M195.3,258.1c1-1.6,2.1-2.9,4-1C197.9,257.1,197.2,260.2,195.3,258.1z"/>
		<path class="st9" d="M194.3,252.1c2,2.7-1,2.8-2,4C191.9,254.2,193.2,253.2,194.3,252.1z"/>
		<path class="st6" d="M178.3,233.1c-0.7-0.3-0.7-0.7,0-1C178.3,232.4,178.3,232.8,178.3,233.1z"/>
	</g>
</g>
</svg>
