<?xml version="1.0" encoding="utf-8"?>
<!-- Generator: Adobe Illustrator 27.7.0, SVG Export Plug-In . SVG Version: 6.00 Build 0)  -->
<svg version="1.1" id="SvgjsSvg1078" xmlns:svgjs="http://svgjs.com/svgjs"
	 xmlns="http://www.w3.org/2000/svg" xmlns:xlink="http://www.w3.org/1999/xlink" x="0px" y="0px" viewBox="0 0 256 256"
	 style="enable-background:new 0 0 256 256;" xml:space="preserve">
<style type="text/css">
	.st0{fill:#54E360;}
	.st1{fill:#00AB5E;}
	.st2{fill:#A8EBFA;}
</style>
<g>
	<path class="st0" d="M138,13.3H39.7c-10.4,0-18.9,8.8-18.9,19.6v215.7h136.1V32.9C156.9,22.1,148.4,13.3,138,13.3z"/>
	<path class="st1" d="M194.8,44.7v23.5c0,13,10.2,23.5,22.7,23.5c12.5,0,22.7-10.5,22.7-23.5V44.7H194.8z"/>
	<path class="st2" d="M51.1,44.7h75.6v62.8H51.1V44.7z"/>
	<path d="M240.1,37.4h-0.5V21.2c0-4-3.2-7.3-7.1-7.3s-7.1,3.3-7.1,7.3v16.2h-16.1V21.2c0-4-3.2-7.3-7.1-7.3c-3.9,0-7.1,3.3-7.1,7.3
		v16.2h-0.5c-3.9,0-7.1,3.3-7.1,7.3v23.5c0,14.5,9.7,26.7,22.7,30v103.4c0,4.6-3.6,8.4-8.1,8.4c-4.4,0-8.1-3.8-8.1-8.4V131
		c0-18.8-13-34.6-30.3-38V32.9C164,18.1,152.4,6,138,6H39.7c-14.3,0-26,12.1-26,26.9v208.4h-0.5c-3.9,0-7.1,3.3-7.1,7.3
		s3.2,7.3,7.1,7.3h151.3c3.9,0,7.1-3.3,7.1-7.3s-3.2-7.3-7.1-7.3H164V108.1c9.3,3.1,16.1,12.2,16.1,22.9v70.6c0,12.7,10,23,22.2,23
		c12.2,0,22.2-10.3,22.2-23V98.2c13-3.3,22.7-15.5,22.7-30V44.7C247.2,40.7,244,37.4,240.1,37.4z M27.9,241.4V32.9
		c0-6.8,5.3-12.3,11.8-12.3H138c6.5,0,11.8,5.5,11.8,12.3v208.4H27.9z M233.1,68.2c0,8.9-7,16.2-15.6,16.2
		c-8.6,0-15.6-7.3-15.6-16.2V52h31.3V68.2z"/>
	<path d="M126.7,37.4H51.1c-3.9,0-7.1,3.3-7.1,7.3v62.8c0,4,3.2,7.3,7.1,7.3h75.6c3.9,0,7.1-3.3,7.1-7.3V44.7
		C133.8,40.7,130.6,37.4,126.7,37.4z M119.6,100.1H58.1V52h61.5V100.1z M104.9,170.7H84.2l11-22.7c1.7-3.6,0.3-8-3.2-9.8
		c-3.5-1.8-7.7-0.3-9.5,3.3l-16.1,33.3c-1.7,3.6-0.3,8,3.2,9.8c1,0.5,2.1,0.8,3.2,0.8h20.7l-11,22.7c-1.7,3.6-0.3,8,3.2,9.8
		c1,0.5,2.1,0.8,3.2,0.8c2.6,0,5.1-1.5,6.3-4.1l16.1-33.3c1.7-3.6,0.3-8-3.2-9.8C107.1,171,106,170.7,104.9,170.7L104.9,170.7z"/>
</g>
</svg>
