<svg xmlns="http://www.w3.org/2000/svg" data-name="Layer 1" viewBox="0 0 512 512"><path fill="#ededed" d="M427.85 33.7v444.6a10.996 10.996 0 0 1-4.99 9.21l-23.21 15.15a11.296 11.296 0 0 1-12.35 0l-22.02-14.37a11.31 11.31 0 0 0-12.36 0l-22.01 14.37a11.312 11.312 0 0 1-12.36 0l-22.02-14.37a11.31 11.31 0 0 0-12.36 0l-10.07 6.57-11.94 7.8a11.312 11.312 0 0 1-12.36 0l-11.89-7.76-10.12-6.61a11.31 11.31 0 0 0-12.36 0l-22 14.37a11.312 11.312 0 0 1-12.36 0l-22.01-14.37a11.31 11.31 0 0 0-12.36 0l-22 14.37a11.312 11.312 0 0 1-12.36 0l-23.2-15.15a10.972 10.972 0 0 1-4.99-9.21V33.7a10.973 10.973 0 0 1 4.99-9.21l23.2-15.15a11.312 11.312 0 0 1 12.36 0l22 14.37a11.312 11.312 0 0 0 12.36 0l22.01-14.37a11.312 11.312 0 0 1 12.36 0l22 14.37a11.312 11.312 0 0 0 12.36 0L249.8 9.34a11.312 11.312 0 0 1 12.36 0l22.01 14.37a11.312 11.312 0 0 0 12.36 0l22.02-14.37a11.312 11.312 0 0 1 12.36 0l22.01 14.37a11.312 11.312 0 0 0 12.36 0L387.3 9.34a11.296 11.296 0 0 1 12.35 0l23.21 15.15a10.997 10.997 0 0 1 4.99 9.21Z"/><path fill="#dadadc" d="M170.43 23.71a11.312 11.312 0 0 0 12.36 0l16.324-10.657-5.684-3.713a11.312 11.312 0 0 0-12.36 0l-16.324 10.658zm-68.73 0a11.312 11.312 0 0 0 12.36 0l16.324-10.657L124.7 9.34a11.312 11.312 0 0 0-12.36 0L96.018 19.999zm137.47 0a11.312 11.312 0 0 0 12.36 0l16.324-10.653-5.694-3.717a11.312 11.312 0 0 0-12.36 0l-16.32 10.655zm68.75 0a11.312 11.312 0 0 0 12.36 0l16.324-10.653-5.694-3.717a11.312 11.312 0 0 0-12.36 0l-16.324 10.653zm-56.39 464.58a11.31 11.31 0 0 0-12.36 0l-5.693 3.714 4.433 2.896 11.89 7.76a11.312 11.312 0 0 0 12.36 0l5.692-3.719zm68.75 0a11.31 11.31 0 0 0-12.36 0l-5.694 3.717 16.324 10.653a11.312 11.312 0 0 0 12.36 0l5.694-3.717zm-206.22 0a11.31 11.31 0 0 0-12.36 0l-5.682 3.711 16.322 10.66a11.312 11.312 0 0 0 12.36 0l5.684-3.713z"/><path fill="#e1e1e3" d="M422.86 24.49 399.65 9.34a11.296 11.296 0 0 0-12.35 0l-16.327 10.655 6.887 4.495a10.997 10.997 0 0 1 4.99 9.21v444.6a10.996 10.996 0 0 1-4.99 9.21l-6.887 4.495L387.3 502.66a11.296 11.296 0 0 0 12.35 0l23.21-15.15a10.996 10.996 0 0 0 4.99-9.21V33.7a10.997 10.997 0 0 0-4.99-9.21Z"/><path fill="#dadadc" d="m192.91 494.9-10.12-6.61a11.31 11.31 0 0 0-12.36 0l-5.684 3.712 16.324 10.658a11.312 11.312 0 0 0 12.36 0l5.683-3.712Z"/><path fill="#aeadb3" d="M311.435 312.184a48.217 48.217 0 0 1 18.966-12.443c10.372-3.581 16.487-1.36 22.658-5.884 3.78-2.77 8.12-8.532 8.721-22.069h-63.01Z"/><path fill="#8b8893" d="M346.78 271.788c-.6 13.537-4.941 19.299-8.72 22.07-6.172 4.522-12.287 2.302-22.66 5.883a44.278 44.278 0 0 0-6.902 3.075l2.937 9.368a48.22 48.22 0 0 1 18.966-12.443c10.372-3.581 16.487-1.361 22.658-5.884 3.78-2.77 8.12-8.532 8.721-22.069Z"/><path fill="#aeadb3" d="M307.08 390.558c4.096-4.574 13.819-14.463 23.32-17.673 10.216-3.45 16.388-1.287 22.66-5.884 3.779-2.77 8.12-8.532 8.72-22.068h-63.01Z"/><path fill="#8b8893" d="M346.78 344.933c-.6 13.536-4.941 19.298-8.72 22.068-6.272 4.597-12.444 2.433-22.66 5.884a39.722 39.722 0 0 0-10.482 5.803l2.162 11.87c4.096-4.574 13.819-14.463 23.32-17.673 10.216-3.45 16.388-1.287 22.66-5.884 3.779-2.77 8.12-8.532 8.72-22.068Z"/><path fill="#aeadb3" d="M200.565 312.184a48.217 48.217 0 0 0-18.966-12.443c-10.372-3.581-16.487-1.36-22.658-5.884-3.78-2.77-8.12-8.532-8.721-22.069h63.01zm4.355 78.374c-4.096-4.574-13.819-14.463-23.32-17.673-10.216-3.45-16.388-1.287-22.66-5.884-3.779-2.77-8.12-8.532-8.72-22.068h63.01zm-4.355-151.518a48.216 48.216 0 0 0-18.966-12.444c-10.372-3.58-16.487-1.36-22.658-5.883-3.78-2.77-8.12-8.533-8.721-22.07h63.01zm110.87 0a48.216 48.216 0 0 1 18.966-12.444c10.372-3.58 16.487-1.36 22.658-5.883 3.78-2.77 8.12-8.533 8.721-22.07h-63.01z"/><path fill="#8b8893" d="M346.78 198.644c-.6 13.536-4.941 19.298-8.72 22.069-6.172 4.522-12.287 2.302-22.66 5.883a44.323 44.323 0 0 0-6.902 3.076l2.937 9.368a48.214 48.214 0 0 1 18.966-12.444c10.372-3.58 16.487-1.36 22.658-5.883 3.78-2.77 8.12-8.533 8.721-22.069Z"/><path fill="#aeadb3" d="M274.1 399.37v95.49l-11.94 7.8a11.312 11.312 0 0 1-12.36 0l-11.89-7.76v-95.53Z"/><rect width="110.92" height="243.441" x="200.515" y="170.928" fill="#787681" rx="42.597"/><path fill="#57565c" d="M268.838 170.928h-25.727q-1.075 0-2.136.054a42.597 42.597 0 0 1 40.46 42.542v158.248a42.597 42.597 0 0 1-40.46 42.543q1.062.052 2.136.054h25.727a42.596 42.596 0 0 0 42.597-42.597V213.524a42.597 42.597 0 0 0-42.597-42.596Z"/><circle cx="255.975" cy="365.793" r="18.576" fill="#56bc8d"/><circle cx="255.975" cy="219.504" r="18.576" fill="#eb304a"/><path fill="#e4222e" d="M255.975 200.928a18.573 18.573 0 0 0-5.421.808 18.576 18.576 0 0 1 0 35.535 18.576 18.576 0 1 0 5.42-36.343Z"/><circle cx="255.975" cy="292.648" r="18.576" fill="#fddd5a"/><path fill="#fed030" d="M255.975 274.072a18.573 18.573 0 0 0-5.421.809 18.576 18.576 0 0 1 0 35.535 18.576 18.576 0 1 0 5.42-36.344Z"/><path fill="#24b378" d="M255.975 347.217a18.573 18.573 0 0 0-5.421.808 18.576 18.576 0 0 1 0 35.535 18.576 18.576 0 1 0 5.42-36.343Z"/><rect width="209" height="55" x="151.5" y="67.5" fill="#fff" rx="15"/><path fill="#3c3b41" d="M255.975 339.717a26.076 26.076 0 1 0 26.076 26.076 26.105 26.105 0 0 0-26.076-26.076Zm0 37.152a11.076 11.076 0 1 1 11.076-11.076 11.089 11.089 0 0 1-11.076 11.076ZM426.962 18.204l-23.21-15.147a18.811 18.811 0 0 0-20.555 0l-22.02 14.37a3.805 3.805 0 0 1-4.157 0L335.006 3.06a18.803 18.803 0 0 0-20.558-.001l-22.014 14.369a3.81 3.81 0 0 1-4.16 0l-22.012-14.37a18.81 18.81 0 0 0-20.558 0l-22.012 14.369a3.808 3.808 0 0 1-4.16 0L197.526 3.06a18.812 18.812 0 0 0-20.56 0L154.96 17.426a3.8 3.8 0 0 1-4.16 0L128.798 3.06a18.81 18.81 0 0 0-20.559 0L85.036 18.205a18.44 18.44 0 0 0-8.387 15.491v444.608a18.44 18.44 0 0 0 8.388 15.491l23.201 15.146a18.814 18.814 0 0 0 20.56 0l22.003-14.367a3.8 3.8 0 0 1 4.16 0l22.006 14.367a18.811 18.811 0 0 0 20.559 0l22.006-14.368a3.809 3.809 0 0 1 4.16 0l22.012 14.369a18.81 18.81 0 0 0 20.558 0l22.012-14.37a3.803 3.803 0 0 1 4.16 0l22.014 14.37a18.804 18.804 0 0 0 20.557 0l22.016-14.37a3.805 3.805 0 0 1 4.158 0l22.018 14.372a18.811 18.811 0 0 0 20.555 0l23.21-15.149a18.443 18.443 0 0 0 8.389-15.492V33.697a18.445 18.445 0 0 0-8.39-15.493ZM266.604 490.806l-8.541 5.575a3.807 3.807 0 0 1-4.16 0l-8.495-5.545V421.87h21.196Zm-23.493-83.937a35.136 35.136 0 0 1-35.096-35.096v-58.725a7.527 7.527 0 0 0 0-1.666v-71.481a7.535 7.535 0 0 0 0-1.661v-24.715a35.136 35.136 0 0 1 35.096-35.097h25.727a35.136 35.136 0 0 1 35.097 35.097v158.248a35.136 35.136 0 0 1-35.097 35.096Zm177.24 71.434a3.49 3.49 0 0 1-1.586 2.93l-23.21 15.148a3.81 3.81 0 0 1-4.16 0l-22.018-14.37a18.804 18.804 0 0 0-20.557 0l-22.015 14.37a3.804 3.804 0 0 1-4.157 0l-22.015-14.37a18.802 18.802 0 0 0-19.03-.886v-60.91a50.309 50.309 0 0 0 32.603-27.227 7.467 7.467 0 0 0 1.588-1.332A40.207 40.207 0 0 1 332.8 379.99a45.817 45.817 0 0 1 9.803-1.985c4.79-.581 9.74-1.182 14.887-4.954 7.235-5.3 11.2-14.648 11.781-27.786a7.498 7.498 0 0 0-7.492-7.832h-42.845v-22.096a39.488 39.488 0 0 1 13.913-8.507 45.166 45.166 0 0 1 10.033-2.068c4.705-.571 9.571-1.16 14.611-4.855 7.235-5.302 11.198-14.65 11.78-27.787a7.498 7.498 0 0 0-7.492-7.832h-42.845v-22.096a39.479 39.479 0 0 1 13.913-8.505 45.191 45.191 0 0 1 10.034-2.07c4.705-.57 9.57-1.16 14.61-4.854 7.235-5.303 11.198-14.651 11.78-27.787a7.498 7.498 0 0 0-7.492-7.832h-48.01c-.044 0-.086.006-.13.006a50.144 50.144 0 0 0-44.802-27.722H243.11a50.144 50.144 0 0 0-44.801 27.72c-.027 0-.053-.004-.08-.004h-48.01a7.5 7.5 0 0 0-7.493 7.832c.583 13.136 4.546 22.484 11.78 27.787 5.04 3.693 9.906 4.283 14.611 4.854a45.188 45.188 0 0 1 10.034 2.07 39.46 39.46 0 0 1 13.863 8.46v22.141H150.22a7.5 7.5 0 0 0-7.493 7.832c.583 13.136 4.546 22.485 11.78 27.787 5.041 3.695 9.907 4.284 14.612 4.854a45.2 45.2 0 0 1 10.032 2.068 39.501 39.501 0 0 1 13.864 8.462v22.142H150.22a7.5 7.5 0 0 0-7.493 7.832c.583 13.136 4.546 22.485 11.78 27.785 5.147 3.773 10.1 4.374 14.889 4.955a45.825 45.825 0 0 1 9.803 1.985 40.201 40.201 0 0 1 17.007 11.666 7.49 7.49 0 0 0 1.516 1.286 50.31 50.31 0 0 0 32.686 27.291v60.916a18.81 18.81 0 0 0-19.076.864l-22.005 14.367a3.81 3.81 0 0 1-4.161 0l-22.005-14.365a18.804 18.804 0 0 0-20.561-.001l-22.002 14.366a3.813 3.813 0 0 1-4.16 0l-23.202-15.146a3.488 3.488 0 0 1-1.587-2.93V33.696a3.488 3.488 0 0 1 1.587-2.93l23.201-15.146a3.81 3.81 0 0 1 4.16 0L142.6 29.986a18.809 18.809 0 0 0 20.56 0l22.006-14.366a3.809 3.809 0 0 1 4.16 0l22.007 14.368a18.81 18.81 0 0 0 20.559 0l22.011-14.369a3.807 3.807 0 0 1 4.16 0l22.012 14.37a18.808 18.808 0 0 0 20.558 0l22.014-14.37a3.805 3.805 0 0 1 4.159 0l22.013 14.37a18.809 18.809 0 0 0 20.557 0l22.019-14.37a3.809 3.809 0 0 1 4.16 0l23.209 15.147a3.491 3.491 0 0 1 1.587 2.931Zm-101.964-272.16h34.904c-.822 3.517-2.245 6.747-4.666 8.521-1.799 1.319-3.614 1.585-7.549 2.062a59.289 59.289 0 0 0-13.123 2.781 51.978 51.978 0 0 0-9.018 4.127v-10.11a50.268 50.268 0 0 0-.548-7.38Zm.548 73.145h34.355c-.821 3.517-2.244 6.746-4.665 8.52-1.799 1.32-3.614 1.586-7.549 2.062a59.25 59.25 0 0 0-13.124 2.782 52.018 52.018 0 0 0-9.017 4.127Zm0 73.145h34.356c-.822 3.516-2.245 6.746-4.666 8.52-1.902 1.393-3.774 1.67-7.827 2.16A59.889 59.889 0 0 0 328 365.78a50.635 50.635 0 0 0-9.065 4.115Zm-125.372-146.29a50.268 50.268 0 0 0-.548 7.382v10.078a51.984 51.984 0 0 0-8.968-4.096 59.295 59.295 0 0 0-13.123-2.781c-3.935-.477-5.75-.743-7.55-2.062-2.42-1.774-3.843-5.004-4.664-8.52Zm-.548 73.145v17.46a51.985 51.985 0 0 0-8.969-4.097 59.278 59.278 0 0 0-13.122-2.78c-3.935-.477-5.75-.744-7.55-2.062-2.42-1.775-3.843-5.004-4.665-8.52Zm0 73.145v17.433a50.655 50.655 0 0 0-9.016-4.087 59.885 59.885 0 0 0-12.797-2.666c-4.053-.49-5.926-.767-7.828-2.162-2.42-1.773-3.843-5.002-4.665-8.518ZM345.5 60h-179A22.526 22.526 0 0 0 144 82.5v25a22.526 22.526 0 0 0 22.5 22.5h179a22.526 22.526 0 0 0 22.5-22.5v-25A22.526 22.526 0 0 0 345.5 60Zm7.5 47.5a7.508 7.508 0 0 1-7.5 7.5h-179a7.508 7.508 0 0 1-7.5-7.5v-25a7.508 7.508 0 0 1 7.5-7.5h179a7.508 7.508 0 0 1 7.5 7.5Zm-97.025 159.072a26.076 26.076 0 1 0 26.076 26.077 26.105 26.105 0 0 0-26.076-26.077Zm0 37.153a11.076 11.076 0 1 1 11.076-11.076 11.089 11.089 0 0 1-11.076 11.076Zm0-110.297a26.076 26.076 0 1 0 26.076 26.076 26.105 26.105 0 0 0-26.076-26.076Zm0 37.152a11.076 11.076 0 1 1 11.076-11.076 11.089 11.089 0 0 1-11.076 11.076Z"/></svg>