<?xml version="1.0" encoding="utf-8"?>
<!-- Generator: Adobe Illustrator 27.7.0, SVG Export Plug-In . SVG Version: 6.00 Build 0)  -->
<svg version="1.1" id="Layer_1" xmlns="http://www.w3.org/2000/svg" xmlns:xlink="http://www.w3.org/1999/xlink" x="0px" y="0px"
	 viewBox="0 0 512 512" style="enable-background:new 0 0 512 512;" xml:space="preserve">
<style type="text/css">
	.st0{fill:#E8EFF7;}
	.st1{fill:#ADD4FF;}
	.st2{fill:#5096E6;}
	.st3{fill:#4989D1;}
	.st4{fill:#1E3957;}
	.st5{fill:#346195;}
	.st6{fill:#F2B755;}
	.st7{fill:#E06963;}
</style>
<g id="SvgjsG1104">
	<rect x="188.3" y="24.6" class="st0" width="313.3" height="457.2"/>
	<path class="st1" d="M357.6,354.8H95.1l38.1-65.6c6.9-11.8,19.8-19.1,33.7-19.1h131c16.1,0,30.6,9.7,36.3,24.3l20.1,51.9
		L357.6,354.8z"/>
	<path class="st2" d="M387.7,447.9H92c-9.2,0-18.3-0.7-27.4-1.9l-23.8-3.4c-12.5-1.8-21.8-12.5-21.8-25.2v-30.2
		c0-14,9.9-26,23.5-28.7l61.1-12.2h267.5c20.6,0,37.3,16.7,37.3,37.3v43.6C408.4,438.7,399.1,447.9,387.7,447.9z"/>
	<rect x="112.1" y="346.3" class="st3" width="245.5" height="101.6"/>
	<circle class="st4" cx="112.1" cy="439.4" r="42.3"/>
	<circle class="st4" cx="323.7" cy="439.4" r="42.3"/>
	<rect x="213.7" y="270.1" class="st5" width="16.9" height="177.8"/>
	<circle class="st6" cx="112.1" cy="439.4" r="16.9"/>
	<circle class="st6" cx="323.7" cy="439.4" r="16.9"/>
	<path class="st4" d="M196.7,380.2h-16.9c-4.7,0-8.5-3.8-8.5-8.5s3.8-8.5,8.5-8.5h16.9c4.7,0,8.5,3.8,8.5,8.5
		S201.4,380.2,196.7,380.2z M332.2,380.2h-16.9c-4.7,0-8.5-3.8-8.5-8.5s3.8-8.5,8.5-8.5h16.9c4.7,0,8.5,3.8,8.5,8.5
		S336.9,380.2,332.2,380.2z"/>
	<path class="st6" d="M61.3,354.8v25.7c0,9.2-7.4,16.6-16.6,16.6H18.9v-9.9c0-14,9.9-26,23.5-28.7L61.3,354.8z M408.4,422.5h-16.8
		c-4.8,0-8.6-3.9-8.6-8.6v-16.7c0-4.8,3.9-8.6,8.6-8.6h16.8V422.5z"/>
	<path class="st5" d="M264.5,134.6h-42.3c-4.7,0-8.5-3.8-8.5-8.5V58.4c0-4.7,3.8-8.5,8.5-8.5s8.5,3.8,8.5,8.5v59.3h33.9
		c4.7,0,8.5,3.8,8.5,8.5C272.9,130.9,269.1,134.6,264.5,134.6z M332.2,134.6h-42.3c-4.7,0-8.5-3.8-8.5-8.5V58.4
		c0-4.7,3.8-8.5,8.5-8.5h42.3c4.7,0,8.5,3.8,8.5,8.5v67.7C340.7,130.9,336.9,134.6,332.2,134.6z M298.3,117.7h25.4V66.9h-25.4V117.7
		z M399.9,134.6c-4.7,0-8.5-3.8-8.5-8.5V66.9h-25.4v59.3c0,4.7-3.8,8.5-8.5,8.5s-8.5-3.8-8.5-8.5V58.4c0-4.7,3.8-8.5,8.5-8.5h42.3
		c4.7,0,8.5,3.8,8.5,8.5v67.7C408.4,130.9,404.6,134.6,399.9,134.6z"/>
	<path class="st5" d="M399.9,100.8h-42.3c-4.7,0-8.5-3.8-8.5-8.5c0-4.7,3.8-8.5,8.5-8.5h42.3c4.7,0,8.5,3.8,8.5,8.5
		C408.4,97,404.6,100.8,399.9,100.8z M467.7,134.6c-2.9,0-5.6-1.5-7.2-4L433.8,88v38.2c0,4.7-3.8,8.5-8.5,8.5s-8.5-3.8-8.5-8.5V58.4
		c0-3.8,2.5-7.1,6.1-8.1c3.6-1,7.5,0.4,9.5,3.7l26.7,42.7V58.4c0-4.7,3.8-8.5,8.5-8.5s8.5,3.8,8.5,8.5v67.7c0,3.8-2.5,7.1-6.1,8.1
		C469.2,134.5,468.4,134.6,467.7,134.6z"/>
	<path class="st7" d="M467.7,236.2H222.1c-4.7,0-8.5-3.8-8.5-8.5c0-4.7,3.8-8.5,8.5-8.5h245.5c4.7,0,8.5,3.8,8.5,8.5
		C476.1,232.5,472.3,236.2,467.7,236.2z M467.7,304h-93.1c-4.7,0-8.5-3.8-8.5-8.5s3.8-8.5,8.5-8.5h93.1c4.7,0,8.5,3.8,8.5,8.5
		S472.3,304,467.7,304z M467.7,371.7h-25.4c-4.7,0-8.5-3.8-8.5-8.5c0-4.7,3.8-8.5,8.5-8.5h25.4c4.7,0,8.5,3.8,8.5,8.5
		C476.1,367.9,472.3,371.7,467.7,371.7z M467.7,439.4h-25.4c-4.7,0-8.5-3.8-8.5-8.5c0-4.7,3.8-8.5,8.5-8.5h25.4
		c4.7,0,8.5,3.8,8.5,8.5C476.1,435.7,472.3,439.4,467.7,439.4z"/>
	<circle class="st7" cx="103.6" cy="160" r="93.1"/>
	<path class="st6" d="M61.3,210.8c-2.2,0-4.3-0.8-6-2.5c-3.3-3.3-3.3-8.7,0-12l84.7-84.7c3.3-3.3,8.7-3.3,12,0c3.3,3.3,3.3,8.7,0,12
		l-84.7,84.7C65.6,210,63.4,210.8,61.3,210.8z M69.7,151.6c-14,0-25.4-11.4-25.4-25.4s11.4-25.4,25.4-25.4s25.4,11.4,25.4,25.4
		S83.7,151.6,69.7,151.6z M69.7,117.7c-4.7,0-8.5,3.8-8.5,8.5s3.8,8.5,8.5,8.5c4.7,0,8.5-3.8,8.5-8.5S74.4,117.7,69.7,117.7z
		 M137.5,219.3c-14,0-25.4-11.4-25.4-25.4s11.4-25.4,25.4-25.4s25.4,11.4,25.4,25.4S151.5,219.3,137.5,219.3z M137.5,185.4
		c-4.7,0-8.5,3.8-8.5,8.5s3.8,8.5,8.5,8.5c4.7,0,8.5-3.8,8.5-8.5S142.1,185.4,137.5,185.4z"/>
	<path d="M501.5,16.1H188.3c-4.7,0-8.5,3.8-8.5,8.5v68.3c-18.6-21.1-45.9-34.5-76.2-34.5C47.6,58.4,2,104,2,160
		s45.6,101.6,101.6,101.6c30.3,0,57.6-13.4,76.2-34.5v34.5h-6.7c-16.6,0-31.9,9-40,23.4l-29.7,52.8c-0.5,0-1,0.1-1.5,0.2l-61.1,12.2
		c-17.6,3.5-30.3,19.1-30.3,37v30.2c0,16.8,12.5,31.2,29.1,33.5l23.8,3.4c0,0,0.1,0,0.1,0c6.4,20.8,25.7,35.9,48.6,35.9
		c22.1,0,40.9-14.2,47.9-33.9h19.8v25.4c0,4.7,3.8,8.5,8.5,8.5h313.3c4.7,0,8.5-3.8,8.5-8.5V24.6C510,19.9,506.2,16.1,501.5,16.1z
		 M103.6,244.7c-46.7,0-84.7-38-84.7-84.7s38-84.7,84.7-84.7s84.7,38,84.7,84.7S150.3,244.7,103.6,244.7z M168.9,323.4l-16.9-16.9
		c-3-3-7.6-3.3-10.9-0.9l6.9-12.2c5.1-9.1,14.8-14.8,25.3-14.8h40.5v59.3h-50.8h-23.4l13.3-6.6l4.2,4.2c1.7,1.7,3.8,2.5,6,2.5
		s4.3-0.8,6-2.5C172.2,332.1,172.2,326.7,168.9,323.4z M137.5,311.8c-0.2,2.4,0.6,4.8,2.4,6.6l0.2,0.2l-9,4.5L137.5,311.8z
		 M27.4,387.3c0-9.9,7-18.5,16.7-20.4l8.7-1.7v15.4c0,4.5-3.7,8.1-8.1,8.1H27.4V387.3z M61.3,437L42,434.2
		c-8.3-1.2-14.6-8.4-14.6-16.8v-11.8h17.3c13.8,0,25.1-11.3,25.1-25.1v-18.8l33.9-6.8v34.4C80.4,393.3,62.5,412.9,61.3,437z
		 M112.1,473.3c-18.7,0-33.9-15.2-33.9-33.9s15.2-33.9,33.9-33.9s33.9,15.2,33.9,33.9S130.7,473.3,112.1,473.3z M162.9,439.4
		c0-25.1-18.3-46-42.3-50.1v-34.6h93.1v84.7H162.9z M196.7,473.3v-16.9h79.1c2.2,6.3,5.7,12,10.1,16.9H196.7z M272.9,439.4h-42.3
		v-84.7h118.5v40.7c-7.5-4.3-16.2-6.8-25.4-6.8C295.7,388.6,272.9,411.4,272.9,439.4z M230.6,337.8v-59.3h69.3
		c12,0,22.9,7.6,27.2,18.8l15.2,40.4H230.6z M323.7,473.3c-18.7,0-33.9-15.2-33.9-33.9s15.2-33.9,33.9-33.9s33.9,15.2,33.9,33.9
		S342.4,473.3,323.7,473.3z M493.1,473.3H361.6c4.4-4.9,7.8-10.6,10.1-16.9h16.1c16.1,0,29.1-13.1,29.1-29.1v-43.6
		c0-25.2-20.5-45.8-45.8-45.8h-10.8l-17.4-46.4c-6.7-17.8-24-29.8-43-29.8H196.7v-61c5.4-12.4,8.5-26.2,8.5-40.6s-3-28.1-8.5-40.6
		V33h296.3V473.3z M391.6,380.2c-9.4,0-17.1,7.7-17.1,17.1v16.7c0,9.4,7.7,17.1,17.1,17.1h7.7c-1.6,4.9-6.2,8.5-11.6,8.5h-13.2
		c0-10.4-3.1-20-8.5-28v-56.6h5c14.7,0,26.9,11.1,28.6,25.4H391.6z M399.9,397.1V414h-8.3c-0.1,0-0.1-0.1-0.1-0.1v-16.7
		c0-0.1,0.1-0.1,0.1-0.1H399.9z"/>
	<path d="M112.1,414c-14,0-25.4,11.4-25.4,25.4c0,14,11.4,25.4,25.4,25.4s25.4-11.4,25.4-25.4C137.5,425.4,126.1,414,112.1,414z
		 M112.1,447.9c-4.7,0-8.5-3.8-8.5-8.5c0-4.7,3.8-8.5,8.5-8.5s8.5,3.8,8.5,8.5C120.5,444.1,116.7,447.9,112.1,447.9z M323.7,414
		c-14,0-25.4,11.4-25.4,25.4c0,14,11.4,25.4,25.4,25.4c14,0,25.4-11.4,25.4-25.4C349.1,425.4,337.7,414,323.7,414z M323.7,447.9
		c-4.7,0-8.5-3.8-8.5-8.5c0-4.7,3.8-8.5,8.5-8.5c4.7,0,8.5,3.8,8.5,8.5C332.2,444.1,328.4,447.9,323.7,447.9z M196.7,363.2h-16.9
		c-4.7,0-8.5,3.8-8.5,8.5s3.8,8.5,8.5,8.5h16.9c4.7,0,8.5-3.8,8.5-8.5S201.4,363.2,196.7,363.2z M315.3,380.2h16.9
		c4.7,0,8.5-3.8,8.5-8.5s-3.8-8.5-8.5-8.5h-16.9c-4.7,0-8.5,3.8-8.5,8.5S310.6,380.2,315.3,380.2z M222.1,134.6h42.3
		c4.7,0,8.5-3.8,8.5-8.5c0-4.7-3.8-8.5-8.5-8.5h-33.9V58.4c0-4.7-3.8-8.5-8.5-8.5s-8.5,3.8-8.5,8.5v67.7
		C213.7,130.9,217.5,134.6,222.1,134.6z M289.9,134.6h42.3c4.7,0,8.5-3.8,8.5-8.5V58.4c0-4.7-3.8-8.5-8.5-8.5h-42.3
		c-4.7,0-8.5,3.8-8.5,8.5v67.7C281.4,130.9,285.2,134.6,289.9,134.6z M298.3,66.9h25.4v50.8h-25.4V66.9z M357.6,134.6
		c4.7,0,8.5-3.8,8.5-8.5v-25.4h25.4v25.4c0,4.7,3.8,8.5,8.5,8.5c4.7,0,8.5-3.8,8.5-8.5V58.4c0-4.7-3.8-8.5-8.5-8.5h-42.3
		c-4.7,0-8.5,3.8-8.5,8.5v67.7C349.1,130.9,352.9,134.6,357.6,134.6z M391.5,66.9v16.9h-25.4V66.9H391.5z M425.3,134.6
		c4.7,0,8.5-3.8,8.5-8.5V88l26.7,42.7c1.6,2.5,4.3,4,7.2,4c0.8,0,1.6-0.1,2.3-0.3c3.6-1,6.1-4.4,6.1-8.1V58.4c0-4.7-3.8-8.5-8.5-8.5
		s-8.5,3.8-8.5,8.5v38.2L432.5,54c-2-3.2-5.9-4.7-9.5-3.7c-3.6,1-6.1,4.4-6.1,8.1v67.7C416.9,130.9,420.7,134.6,425.3,134.6z
		 M222.1,236.2h245.5c4.7,0,8.5-3.8,8.5-8.5c0-4.7-3.8-8.5-8.5-8.5H222.1c-4.7,0-8.5,3.8-8.5,8.5
		C213.7,232.5,217.5,236.2,222.1,236.2z M467.7,287h-93.1c-4.7,0-8.5,3.8-8.5,8.5s3.8,8.5,8.5,8.5h93.1c4.7,0,8.5-3.8,8.5-8.5
		S472.3,287,467.7,287z M467.7,354.8h-25.4c-4.7,0-8.5,3.8-8.5,8.5c0,4.7,3.8,8.5,8.5,8.5h25.4c4.7,0,8.5-3.8,8.5-8.5
		C476.1,358.6,472.3,354.8,467.7,354.8z M467.7,422.5h-25.4c-4.7,0-8.5,3.8-8.5,8.5c0,4.7,3.8,8.5,8.5,8.5h25.4
		c4.7,0,8.5-3.8,8.5-8.5C476.1,426.3,472.3,422.5,467.7,422.5z M151.9,111.7c-3.3-3.3-8.7-3.3-12,0l-84.7,84.7
		c-3.3,3.3-3.3,8.7,0,12c1.7,1.7,3.8,2.5,6,2.5s4.3-0.8,6-2.5l84.7-84.7C155.2,120.4,155.2,115,151.9,111.7z M95.1,126.2
		c0-14-11.4-25.4-25.4-25.4s-25.4,11.4-25.4,25.4s11.4,25.4,25.4,25.4S95.1,140.2,95.1,126.2z M61.3,126.2c0-4.7,3.8-8.5,8.5-8.5
		c4.7,0,8.5,3.8,8.5,8.5s-3.8,8.5-8.5,8.5C65.1,134.6,61.3,130.8,61.3,126.2z M137.5,168.5c-14,0-25.4,11.4-25.4,25.4
		s11.4,25.4,25.4,25.4s25.4-11.4,25.4-25.4S151.5,168.5,137.5,168.5z M137.5,202.4c-4.7,0-8.5-3.8-8.5-8.5s3.8-8.5,8.5-8.5
		c4.7,0,8.5,3.8,8.5,8.5S142.1,202.4,137.5,202.4z"/>
</g>
</svg>
