<?xml version="1.0" encoding="utf-8"?>
<!-- Generator: Adobe Illustrator 27.7.0, SVG Export Plug-In . SVG Version: 6.00 Build 0)  -->
<svg version="1.1" id="SvgjsSvg1078" xmlns:svgjs="http://svgjs.com/svgjs"
	 xmlns="http://www.w3.org/2000/svg" xmlns:xlink="http://www.w3.org/1999/xlink" x="0px" y="0px" viewBox="0 0 256 256"
	 style="enable-background:new 0 0 256 256;" xml:space="preserve">
<style type="text/css">
	.st0{fill:#7A7A7A;}
	.st1{fill:#DE4C3C;}
	.st2{fill:#87CED9;}
	.st3{fill:#4398D1;}
	.st4{fill:#FEC9A3;}
</style>
<g>
	<g transform="matrix(2.8 0 0 2.8 1.964 1.964)">
		<path d="M15.3,26.6c15.9-0.8,31.8-0.8,47.8,0"/>
		<path class="st0" d="M69.8,51v9.4c0,1.2-0.9,2.1-2.1,2.1h-9.2c-1.2,0-2.1-0.9-2.1-2.1v-4.7 M8,51v9.4c0,1.2,0.9,2.1,2.1,2.1h9.2
			c1.2,0,2.1-0.9,2.1-2.1v-4.7"/>
		<path class="st1" d="M69.9,55.5l0.8-6.3l0.4-6.9c0.2-4.5-1.4-8.8-4.5-12l-3.5-3.7l-4.2-10.4c-0.6-1.5-2-2.6-3.6-2.8
			c-10.7-1.3-21.5-1.3-32.2,0c-1.6,0.2-3,1.3-3.6,2.8l-4.2,10.4l-3.5,3.7c-3.1,3.2-4.7,7.6-4.5,12l0.4,6.9c0.2,3.5,3.1,6.3,6.6,6.3
			h13.3H69.9z"/>
		<ellipse transform="matrix(0.89 -0.456 0.456 0.89 -11.7569 32.4955)" class="st2" cx="61.5" cy="40.6" rx="4.6" ry="5.8"/>
		<ellipse transform="matrix(0.456 -0.89 0.89 0.456 -26.9105 37.1657)" class="st2" cx="16.9" cy="40.6" rx="5.8" ry="4.6"/>
		<path class="st2" d="M15.3,26.6c15.9-0.8,31.8-0.8,47.8,0l-4.2-10.4c-0.6-1.5-2-2.6-3.6-2.8c-10.7-1.3-21.5-1.3-32.2,0
			c-1.6,0.2-3,1.3-3.6,2.8L15.3,26.6L15.3,26.6z"/>
		<path class="st3" d="M89.2,84.1H75.6V57h13.6V84.1z"/>
		<path class="st4" d="M3.2,69.8l28.4,12c2.1,0.9,4.3,1.4,6.5,1.4l8,0.1c1.3,0,2.7-0.1,4-0.4l14.5-3.2c1.7-0.4,3.3-0.6,5-0.6h5.4
			V61.4l-1.8,0.1c-0.9,0-1.8-0.3-2.4-0.9c-5.3-4.7-10.2-5.8-15.2-5.8c-5.7,0-12.4,4.5-18.6,4.5l-1.9,0.1c-4.2,0.1-7.6,3.4-8,7.5h0
			l0,0c-7.3-1.7-15.1-4.1-21.5-5.2c-2.1-0.4-4.2,0.9-4.8,3C0.2,66.7,1.2,69,3.2,69.8z"/>
		<g>
			<path d="M27.2,67.9C27.1,67.9,27.1,67.9,27.2,67.9c-0.6-0.1-1.1-0.5-1-1.1c0.4-4.7,4.2-8.3,8.9-8.4l1.9-0.1c3,0,6.2-1.1,9.3-2.3
				c3.1-1.1,6.3-2.2,9.3-2.2c4.5,0,9.8,0.7,15.9,6c0.5,0.4,1.1,0.7,1.7,0.7l2.3-0.1c0.5,0,1,0.4,1.1,1c0,0,0,0,0,0
				c0,0.6-0.4,1-1,1.1l-2.3,0.1h0c-1.1,0-2.2-0.4-3.1-1.2c-5.6-4.9-10.5-5.5-14.6-5.5c-2.6,0-5.5,1-8.6,2.1c-3.3,1.2-6.7,2.4-10,2.4
				h0l-1.9,0.1c-3.7,0.1-6.7,3-7,6.6C28.1,67.5,27.7,67.9,27.2,67.9L27.2,67.9z"/>
			<path d="M46.5,84.4l-0.3,0l-8-0.1c-2.4,0-4.7-0.5-6.9-1.5l-28.4-12c-2.5-1.1-3.8-3.8-3-6.4c0.8-2.6,3.3-4.1,6-3.7
				c4,0.7,8.4,1.9,13.1,3.1c11.5,3,24.5,6.5,29.5,1.8c0.4-0.4,1-0.3,1.4,0.1s0.3,1-0.1,1.4C44,72.5,31,69.1,18.4,65.7
				c-4.6-1.2-9-2.4-12.9-3.1c-1.6-0.3-3.2,0.7-3.7,2.3c-0.5,1.6,0.3,3.3,1.8,4l28.4,12c2,0.8,4,1.3,6.2,1.3l8,0.1
				c1.3,0,2.5-0.1,3.8-0.4l14.5-3.2c1.7-0.4,3.5-0.6,5.3-0.6h5.9c0.6,0,1,0.5,1,1c0,0.6-0.5,1-1,1h-5.9c-1.6,0-3.2,0.2-4.8,0.5
				l-14.5,3.2C49.1,84.2,47.8,84.4,46.5,84.4L46.5,84.4z"/>
			<path d="M75.6,85.1c-0.6,0-1-0.5-1-1V57c0-0.6,0.5-1,1-1h13.6c0.6,0,1,0.5,1,1v27.1c0,0.6-0.5,1-1,1H75.6
				C75.6,85.1,75.6,85.1,75.6,85.1z M88.2,58H76.6v25.1h11.6V58z"/>
			<path d="M14.3,26.7c0-0.6,0.4-1,0.9-1.1c15.9-0.8,31.9-0.8,47.9,0c0.5,0,1,0.5,0.9,1c0,0.6-0.5,1-1,1c-15.9-0.8-31.8-0.8-47.7,0
				l-0.1,0C14.8,27.6,14.4,27.2,14.3,26.7z M25.2,47c0-0.6,0.5-1,1-1h26.1c0.6,0,1,0.5,1,1s-0.5,1-1,1H26.2
				C25.6,48,25.2,47.5,25.2,47z M7,60.4V51c0-0.6,0.5-1,1-1s1,0.5,1,1v9.4c0,0.6,0.5,1.1,1.1,1.1h9.2c0.6,0,1.1-0.5,1.1-1.1v-4.7
				c0-0.6,0.5-1,1-1s1,0.5,1,1v4.7c0,1.7-1.4,3.1-3.1,3.1h-9.2C8.4,63.5,7,62.1,7,60.4z M29.2,41.6c0-0.6,0.5-1,1-1h18.1
				c0.6,0,1,0.5,1,1s-0.5,1-1,1H30.2C29.6,42.6,29.2,42.1,29.2,41.6z M62.3,47.2c-2.3,0-4.6-1.5-5.9-4c-1.7-3.3-0.8-7.2,1.9-8.6
				c1.4-0.7,3-0.7,4.6,0c1.5,0.7,2.7,1.9,3.6,3.5c0.8,1.6,1.1,3.3,0.7,4.9c-0.3,1.7-1.3,3-2.7,3.7C63.9,47,63.1,47.2,62.3,47.2
				L62.3,47.2z M59.3,36.4c-1.8,0.9-2.3,3.6-1.1,5.9s3.6,3.5,5.4,2.6c0.8-0.4,1.4-1.2,1.6-2.3c0.2-1.1,0-2.4-0.6-3.6
				c-0.6-1.2-1.5-2.1-2.6-2.6c-0.5-0.2-1-0.3-1.5-0.3C60.1,36,59.7,36.1,59.3,36.4z M57.3,42.7L57.3,42.7L57.3,42.7z M13.9,46.6
				c-2.8-1.4-3.6-5.3-1.9-8.6c0.8-1.6,2.1-2.8,3.6-3.5c1.6-0.7,3.2-0.7,4.6,0c2.8,1.4,3.6,5.3,1.9,8.6c-0.8,1.6-2.1,2.8-3.6,3.5
				c-0.7,0.3-1.5,0.5-2.3,0.5C15.3,47.2,14.5,47,13.9,46.6z M16.3,36.4c-1.1,0.5-2,1.4-2.6,2.6c-1.2,2.3-0.7,5,1.1,5.9
				c0.8,0.4,1.8,0.4,2.8,0c1.1-0.5,2-1.4,2.6-2.6c1.2-2.3,0.7-5-1.1-5.9c-0.4-0.2-0.8-0.3-1.3-0.3C17.3,36.1,16.8,36.2,16.3,36.4z"
				/>
			<path d="M14.3,56.5c-4.1,0-7.4-3.2-7.6-7.2l-0.4-6.9c-0.3-4.7,1.5-9.4,4.8-12.8l3.4-3.5l4.1-10.2c0.7-1.9,2.4-3.2,4.4-3.4
				c10.8-1.3,21.7-1.3,32.4,0c2,0.2,3.7,1.6,4.4,3.4L64,26.1l3.4,3.5c3.3,3.4,5,8.1,4.8,12.8l-0.4,6.9c0,0.6-0.5,1-1.1,0.9
				s-1-0.5-0.9-1.1l0.4-6.9c0.2-4.2-1.3-8.3-4.2-11.3l-3.5-3.7c-0.1-0.1-0.2-0.2-0.2-0.3L58,16.6c-0.5-1.2-1.5-2-2.8-2.2
				c-10.6-1.3-21.3-1.3-31.9,0c-1.3,0.2-2.3,1-2.8,2.2L16.3,27c0,0.1-0.1,0.2-0.2,0.3L12.5,31c-2.9,3-4.4,7.1-4.2,11.3l0.4,6.9
				c0.2,3,2.6,5.3,5.6,5.3h13.3c0.6,0,1,0.5,1,1c0,0.6-0.5,1-1,1H14.3L14.3,56.5z"/>
		</g>
	</g>
</g>
</svg>
