<?xml version="1.0" encoding="utf-8"?>
<!-- Generator: Adobe Illustrator 27.7.0, SVG Export Plug-In . SVG Version: 6.00 Build 0)  -->
<svg version="1.1" id="SvgjsSvg1078" xmlns:svgjs="http://svgjs.com/svgjs"
	 xmlns="http://www.w3.org/2000/svg" xmlns:xlink="http://www.w3.org/1999/xlink" x="0px" y="0px" viewBox="0 0 256 256"
	 style="enable-background:new 0 0 256 256;" xml:space="preserve">
<style type="text/css">
	.st0{fill:#D8F2F1;}
	.st1{fill:#F14742;}
	.st2{fill:#2D2C2E;}
	.st3{fill:#3C3B3D;}
	.st4{fill:#74829C;}
	.st5{fill:#ECF0F1;}
</style>
<g id="SvgjsG1126">
	<path class="st0" d="M222.2,100.4h27.9v48h-69.3l13.2-29.6C198.9,107.6,210,100.4,222.2,100.4z"/>
	<path class="st1" d="M143.4,185.7c0-2.9,0.3-5.7,0.9-8.3c0.6-2.7,1.5-5.2,2.7-7.7c6-12.6,18.8-21.3,33.7-21.3h69.3v21.3V223h-32
		c0-11.8-9.5-21.3-21.3-21.3c-11.7,0-21.1,9.3-21.3,21c-5-0.7-9.7-2.4-13.9-4.9c-4.5-2.7-8.4-6.4-11.4-10.7
		C145.9,201,143.4,193.6,143.4,185.7z"/>
	<path class="st2" d="M202.1,223c0,2.9-2.4,5.3-5.3,5.3c-2.9,0-5.3-2.4-5.3-5.3s2.4-5.3,5.3-5.3C199.7,217.7,202.1,220.1,202.1,223z
		"/>
	<path class="st3" d="M196.7,201.7c11.8,0,21.3,9.6,21.3,21.3s-9.5,21.3-21.3,21.3c-11.8,0-21.3-9.6-21.3-21.3c0-0.1,0-0.3,0-0.4
		C175.6,211,185.1,201.7,196.7,201.7z M196.7,228.4c2.9,0,5.3-2.4,5.3-5.3s-2.4-5.3-5.3-5.3c-2.9,0-5.3,2.4-5.3,5.3
		S193.8,228.4,196.7,228.4z"/>
	<path class="st4" d="M58.1,201.7c0,5.9-4.8,10.7-10.7,10.7c-5.9,0-10.7-4.8-10.7-10.7S41.5,191,47.4,191
		C53.3,191,58.1,195.8,58.1,201.7z M170.1,97.7c0,7.4-6,13.3-13.3,13.3c-7.4,0-13.3-6-13.3-13.3s6-13.3,13.3-13.3
		C164.1,84.4,170.1,90.3,170.1,97.7z M234.1,49.7c0,4.4-3.6,8-8,8c-4.4,0-8-3.6-8-8s3.6-8,8-8C230.5,41.7,234.1,45.3,234.1,49.7z"/>
	<path class="st5" d="M123.5,99.8c0,6.5-2.5,12.3-6.5,16.7c4,3.4,6.5,8.5,6.5,14.1c0,7.6-4.6,14.2-11.2,17
		c5.9,4.4,9.8,11.4,9.8,19.3c0,13.3-10.7,24-24,24c-12.4,0-22.6-9.4-23.9-21.5c-12.1-1.3-21.5-11.5-21.5-23.9
		c0-5.1,1.6-9.9,4.4-13.8c-1-2.3-1.5-4.8-1.5-7.4c0-5.2,2.1-9.8,5.5-13.2c-1.7,0.5-3.6,0.8-5.5,0.8c-10.2,0-18.5-8.3-18.5-18.5
		c0-2.2,0.4-4.3,1.1-6.2c-0.4,0-0.7,0-1.1,0C20,87.4,6.1,73.6,6.1,56.6C6.1,39.5,20,25.7,37,25.7c11.6,0,21.7,6.4,27,15.8
		c5.6-6,13.6-9.7,22.4-9.7c17.1,0,30.9,13.8,30.9,30.9c0,0.3,0,0.7,0,1c0,0.1,0,0.3,0,0.4c0,0.2,0,0.3,0,0.5c0,0.2,0,0.3,0,0.5
		c0,0.3,0,0.6-0.1,0.8c0,0.1,0,0.3-0.1,0.4c0,0.3-0.1,0.5-0.1,0.8c0,0,0,0,0,0c-0.1,0.4-0.1,0.7-0.2,1.1c-0.1,0.4-0.1,0.7-0.2,1.1
		c-0.1,0.4-0.2,0.7-0.3,1.1c-0.1,0.4-0.2,0.8-0.3,1.1c-0.1,0.3-0.2,0.6-0.3,0.9c-0.8,2.4-1.9,4.6-3.2,6.7c0,0,0,0,0,0
		C119.1,83.7,123.5,91.2,123.5,99.8z M67,100.1c0.6,0.2,1.1,0.3,1.7,0.3c2.2,0,4.3-1.4,5.1-3.6c0.2-0.6,0.3-1.1,0.3-1.7
		c0-2.2-1.4-4.3-3.6-5.1c-2.8-0.9-5.8,0.6-6.7,3.4c-0.2,0.6-0.3,1.1-0.3,1.7C63.4,97.3,64.8,99.3,67,100.1z"/>
	<path d="M22.4,106c2.2,0.7,3.6,2.8,3.6,5.1c0,0.6-0.1,1.1-0.3,1.7c-0.7,2.2-2.8,3.6-5.1,3.6c-0.6,0-1.1-0.1-1.7-0.3
		c-2.2-0.7-3.6-2.8-3.6-5.1c0-0.6,0.1-1.1,0.3-1.7C16.6,106.5,19.6,105,22.4,106z M22.4,191.3c2.2,0.7,3.6,2.8,3.6,5.1
		c0,0.6-0.1,1.1-0.3,1.7c-0.7,2.2-2.8,3.6-5.1,3.6c-0.6,0-1.1-0.1-1.7-0.3c-2.2-0.7-3.6-2.8-3.6-5.1c0-0.6,0.1-1.1,0.3-1.7
		C16.6,191.9,19.6,190.4,22.4,191.3z M70.4,90c2.2,0.7,3.6,2.8,3.6,5.1c0,0.6-0.1,1.1-0.3,1.7c-0.7,2.2-2.8,3.6-5.1,3.6
		c-0.6,0-1.1-0.1-1.7-0.3c-2.2-0.7-3.6-2.8-3.6-5.1c0-0.6,0.1-1.1,0.3-1.7C64.6,90.5,67.6,89,70.4,90z M102.4,207.3
		c2.2,0.7,3.6,2.8,3.6,5.1c0,0.6-0.1,1.1-0.3,1.7c-0.7,2.2-2.8,3.6-5.1,3.6c-0.6,0-1.1-0.1-1.7-0.3c-2.2-0.7-3.6-2.8-3.6-5.1
		c0-0.6,0.1-1.1,0.3-1.7C96.6,207.9,99.6,206.4,102.4,207.3z M145.1,36.6c2.2,0.7,3.6,2.8,3.6,5.1c0,0.6-0.1,1.1-0.3,1.7
		c-0.7,2.2-2.8,3.6-5.1,3.6c-0.6,0-1.1-0.1-1.7-0.3c-2.2-0.7-3.6-2.8-3.6-5.1c0-0.6,0.1-1.1,0.3-1.7
		C139.3,37.2,142.3,35.7,145.1,36.6z M198.4,20.6c2.2,0.7,3.7,2.8,3.7,5.1c0,0.6-0.1,1.1-0.3,1.7c-0.7,2.2-2.8,3.6-5.1,3.6
		c-0.6,0-1.1-0.1-1.7-0.3c-2.2-0.7-3.6-2.8-3.6-5.1c0-0.6,0.1-1.1,0.3-1.7C192.6,21.2,195.6,19.7,198.4,20.6z M203.8,68.6
		c2.2,0.7,3.7,2.8,3.7,5.1c0,0.6-0.1,1.1-0.3,1.7c-0.7,2.2-2.8,3.6-5.1,3.6c-0.6,0-1.1-0.1-1.7-0.3c-2.2-0.7-3.6-2.8-3.6-5.1
		c0-0.6,0.1-1.1,0.3-1.7C197.9,69.2,201,67.7,203.8,68.6z M186.1,223c0-5.9,4.8-10.7,10.7-10.7c5.9,0,10.7,4.8,10.7,10.7
		c0,5.9-4.8,10.7-10.7,10.7S186.1,228.9,186.1,223z M178.6,153.2c-2.7-1.2-3.9-4.3-2.7-7l13.2-29.6c5.8-13.1,18.8-21.5,33.1-21.5
		h27.9c2.9,0,5.3,2.4,5.3,5.3v48c0,2.9-2.4,5.3-5.3,5.3c-2.9,0-5.3-2.4-5.3-5.3v-42.7h-22.6c-10.1,0-19.3,6-23.4,15.2l-13.2,29.6
		c-0.9,2-2.8,3.2-4.9,3.2C180,153.7,179.3,153.5,178.6,153.2z"/>
	<path d="M170.1,223c0-0.2,0-0.4,0-0.5c0.3-14.4,12.2-26.1,26.7-26.1c14.7,0,26.7,12,26.7,26.7c0,14.7-12,26.7-26.7,26.7
		C182,249.7,170.1,237.7,170.1,223z M180.7,222.7c0,0,0,0.1,0,0.1c0,0.1,0,0.1,0,0.2c0,8.8,7.2,16,16,16c8.8,0,16-7.2,16-16
		s-7.2-16-16-16C188.1,207,180.9,214.1,180.7,222.7z M196.7,169.7c0-2.9,2.4-5.3,5.3-5.3h48c2.9,0,5.3,2.4,5.3,5.3
		c0,2.9-2.4,5.3-5.3,5.3h-48C199.1,175,196.7,172.6,196.7,169.7z"/>
	<path d="M15.4,244.4c0-2.9,2.4-5.3,5.3-5.3h213.3c2.9,0,5.3,2.4,5.3,5.3c0,2.9-2.4,5.3-5.3,5.3H20.7
		C17.8,249.7,15.4,247.3,15.4,244.4z M138.1,212.4c0-5.9,4.8-10.7,10.7-10.7h1.4c2.9,0,5.3,2.4,5.3,5.3s-2.4,5.3-5.3,5.3h11.4
		c2.9,0,5.3,2.4,5.3,5.3s-2.4,5.3-5.3,5.3h-12.8C142.9,223,138.1,218.2,138.1,212.4z"/>
	<path d="M212.7,223c0-2.9,2.4-5.3,5.3-5.3h26.7v-64h-64c-12.3,0-23.6,7.2-28.9,18.3c-1,2.1-1.8,4.3-2.3,6.6
		c-0.5,2.3-0.8,4.7-0.8,7.1c0,6.6,2,12.9,5.7,18.3c2.6,3.7,6,6.8,9.8,9.2c3.6,2.2,7.6,3.6,11.8,4.2c2.6,0.3,4.7,2.6,4.7,5.3
		c0,2.9-2.4,5.3-5.3,5.3c-0.3,0-0.5,0-0.8-0.1c-5.7-0.8-11-2.7-15.9-5.7c-5.1-3.1-9.6-7.3-13-12.2c-5-7.2-7.7-15.6-7.7-24.4
		c0-3.2,0.4-6.4,1.1-9.5c0.7-3,1.7-6,3-8.8c7-14.8,22.2-24.4,38.6-24.4h69.3c2.9,0,5.3,2.4,5.3,5.3V223c0,2.9-2.4,5.3-5.3,5.3h-32
		C215.1,228.4,212.7,226,212.7,223z M116.8,69.5c-2.9-0.2-5.1-2.8-4.9-5.8c0-0.1,0-0.1,0-0.2c0-0.3,0-0.5,0-0.8
		c0-2.9,2.4-5.3,5.3-5.3c2.9,0,5.3,2.4,5.3,5.3c0,0.4,0,0.8,0,1.2c0,0.2,0,0.4,0,0.6c-0.2,2.8-2.6,4.9-5.3,4.9
		C117.1,69.5,117,69.5,116.8,69.5z"/>
	<path d="M116.7,70.4c-2.9-0.3-5.1-2.9-4.8-5.8c0-0.1,0-0.1,0-0.2c0.1-2.9,2.5-5.2,5.3-5.2c0.1,0,0.1,0,0.2,0
		c2.9,0.1,5.3,2.5,5.2,5.5c0,0.3,0,0.6-0.1,0.8c-0.2,2.8-2.6,4.9-5.3,4.9C117.1,70.5,116.9,70.4,116.7,70.4z"/>
	<path d="M116.1,72.5c-2.9-0.5-4.9-3.2-4.4-6.1c0-0.2,0.1-0.3,0.1-0.5c0-0.1,0-0.2,0-0.2c0-0.1,0-0.2,0-0.2c0.3-2.9,2.9-5.1,5.9-4.7
		c2.9,0.3,5.1,2.9,4.7,5.9c0,0.2,0,0.4-0.1,0.5c0,0.3-0.1,0.7-0.1,1c-0.4,2.6-2.7,4.5-5.3,4.5C116.7,72.5,116.4,72.5,116.1,72.5z"/>
	<path d="M115,75.6c-2.9-0.7-4.6-3.6-3.8-6.5c0.1-0.3,0.1-0.5,0.2-0.8c0,0,0-0.1,0-0.1c0.1-0.3,0.1-0.6,0.2-0.8
		c0.1-0.3,0.1-0.6,0.1-0.9c0.4-2.9,3.1-5,6-4.6c2.9,0.4,5,3.1,4.6,6c-0.1,0.4-0.1,0.9-0.2,1.3c-0.1,0.4-0.2,0.8-0.3,1.3
		c-0.1,0.4-0.2,0.8-0.3,1.3c-0.6,2.4-2.8,4-5.2,4C115.9,75.8,115.4,75.7,115,75.6z"/>
	<path d="M81.1,93.6c0-2.9,2.4-5.3,5.3-5.3c8.8,0,16.9-4.4,21.6-11.9c1.1-1.7,2-3.6,2.7-5.6c0.1-0.2,0.2-0.5,0.2-0.7
		c0.8-2.8,3.8-4.5,6.6-3.7c2.8,0.8,4.5,3.8,3.7,6.6c-0.1,0.4-0.2,0.8-0.4,1.2c-0.9,2.8-2.2,5.4-3.8,7.9C110.3,92.7,98.9,99,86.4,99
		C83.5,99,81.1,96.6,81.1,93.6z"/>
	<path d="M69.6,174.2c-12.9-3.2-22.2-14.8-22.2-28.5c0-5.1,1.3-10,3.8-14.4c-0.7-2.2-1-4.5-1-6.8c0-2.5,0.4-5,1.2-7.4
		c-11.2-2-19.7-11.8-19.7-23.5c0-0.4,0-0.8,0-1.2C14.2,89.8,0.8,74.7,0.8,56.6c0-20,16.2-36.2,36.2-36.2c10.9,0,21.2,4.9,28,13.2
		c6.2-4.5,13.7-7,21.4-7c20,0,36.2,16.2,36.2,36.2c0,0.4,0,0.8,0,1.2c0,0.1,0,0.3,0,0.4c0,0.2,0,0.3,0,0.5c0,0.1,0,0.3,0,0.4l0,0.1
		c0,0,0,0.1,0,0.1c0,0.3-0.1,0.6-0.1,1c0,0.2,0,0.3-0.1,0.5c0,0.3-0.1,0.5-0.1,0.8c0,0,0,0.1,0,0.1h0c-0.1,0.4-0.1,0.8-0.2,1.3
		c-0.1,0.4-0.2,0.9-0.3,1.3c-0.1,0.4-0.2,0.8-0.3,1.3c0,0,0,0,0,0.1l0,0.1c-0.1,0.4-0.2,0.8-0.3,1.2c-0.1,0.4-0.2,0.8-0.4,1.1
		c-0.4,1.2-0.9,2.5-1.5,3.7c6,5.6,9.5,13.5,9.5,21.9c0,5.9-1.7,11.6-4.9,16.4c3.1,4.1,4.9,9.2,4.9,14.5c0,6.9-3,13.4-8,17.8
		c4.2,5.2,6.6,11.7,6.6,18.5c0,16.2-13.2,29.3-29.3,29.3C84.4,196.4,72.8,187.1,69.6,174.2z M107.8,81.8c-0.9-1.7-0.9-3.8,0.2-5.4
		c1.1-1.7,2-3.6,2.7-5.6c0.1-0.3,0.2-0.5,0.2-0.7c0.1-0.3,0.2-0.6,0.3-0.9l0-0.1c0.1-0.3,0.1-0.5,0.2-0.8c0,0,0-0.1,0-0.1
		c0.1-0.3,0.1-0.6,0.2-0.8c0-0.3,0.1-0.5,0.1-0.8c0-0.1,0-0.2,0-0.3c0-0.2,0-0.3,0.1-0.5c0-0.1,0-0.2,0-0.2c0-0.1,0-0.2,0-0.2
		c0-0.2,0-0.5,0.1-0.7l0-0.3c0-0.1,0-0.1,0-0.2l0-0.1c0-0.1,0-0.3,0-0.4l0-0.2c0-0.3,0-0.5,0-0.8c0-14.1-11.5-25.5-25.5-25.5
		c-7.1,0-13.7,2.8-18.6,8c-1.2,1.2-2.9,1.8-4.5,1.6c-1.7-0.2-3.2-1.2-4-2.7C54.8,36,46.3,31,37,31c-14.1,0-25.5,11.5-25.5,25.5
		c0,14.1,11.5,25.5,25.5,25.5c0.2,0,0.4,0,0.6,0l0.3,0c1.8-0.1,3.4,0.8,4.5,2.2c1,1.4,1.3,3.3,0.7,4.9c-0.5,1.4-0.8,2.9-0.8,4.4
		c0,7.3,5.9,13.2,13.2,13.2c1.3,0,2.7-0.2,3.9-0.6c2.3-0.7,4.9,0.2,6.2,2.3c1.3,2.1,0.9,4.8-0.8,6.5c-2.5,2.5-3.9,5.8-3.9,9.4
		c0,1.8,0.4,3.6,1.1,5.3c0.7,1.7,0.5,3.7-0.5,5.2c-2.2,3.2-3.4,6.9-3.4,10.7c0,9.6,7.2,17.6,16.7,18.6c2.5,0.3,4.5,2.2,4.7,4.7
		c1,9.5,9,16.7,18.6,16.7c10.3,0,18.7-8.4,18.7-18.7c0-6-2.8-11.5-7.6-15c-1.5-1.1-2.4-3-2.1-4.9c0.2-1.9,1.4-3.5,3.2-4.3
		c4.8-2.1,8-6.8,8-12.1c0-3.9-1.7-7.5-4.7-10.1c-1.1-0.9-1.8-2.3-1.9-3.7c-0.1-1.4,0.4-2.9,1.4-3.9c3.3-3.6,5.1-8.3,5.1-13.1
		c0-6.5-3.2-12.5-8.6-16.1c-0.3-0.2-0.5-0.4-0.8-0.6C108.4,82.7,108.1,82.3,107.8,81.8z M159.4,57.7c0-2.9,2.4-5.3,5.3-5.3
		c5.9,0,10.7-4.8,10.7-10.7S170.6,31,164.7,31c-1.2,0-2.4,0.2-3.6,0.6c-1.7,0.6-3.5,0.3-5-0.7c-1.4-1.1-2.2-2.8-2.1-4.6
		c0-0.2,0-0.4,0-0.6c0-5.9-4.8-10.7-10.7-10.7s-10.7,4.8-10.7,10.7c0,2.9-2.4,5.3-5.3,5.3s-5.3-2.4-5.3-5.3
		c0-11.8,9.6-21.3,21.3-21.3c9.9,0,18.3,6.8,20.7,16c0.2,0,0.4,0,0.7,0c11.8,0,21.3,9.6,21.3,21.3S176.5,63,164.7,63
		C161.8,63,159.4,60.6,159.4,57.7z"/>
	<path d="M15.1,165.4c-10.1-6-13.4-19.1-7.4-29.2c2.9-4.9,7.6-8.4,13.1-9.8c5.5-1.4,11.3-0.6,16.2,2.4c2.5,1.5,3.4,4.8,1.9,7.3
		c-1.5,2.5-4.8,3.4-7.3,1.9c-2.4-1.5-5.3-1.9-8.1-1.2c-2.8,0.7-5.1,2.4-6.5,4.9c-3,5.1-1.4,11.6,3.7,14.6c2.5,1.5,3.4,4.8,1.9,7.3
		c-1,1.7-2.8,2.6-4.6,2.6C16.9,166.2,16,166,15.1,165.4z M31.4,201.7c0-8.8,7.2-16,16-16s16,7.2,16,16s-7.2,16-16,16
		S31.4,210.5,31.4,201.7z M42.1,201.7c0,2.9,2.4,5.3,5.3,5.3s5.3-2.4,5.3-5.3s-2.4-5.3-5.3-5.3S42.1,198.8,42.1,201.7z M212.7,49.7
		c0-7.4,6-13.3,13.3-13.3c7.4,0,13.3,6,13.3,13.3s-6,13.3-13.3,13.3S212.7,57,212.7,49.7z M223.4,49.7c0,1.5,1.2,2.7,2.7,2.7
		c1.5,0,2.7-1.2,2.7-2.7c0-1.5-1.2-2.7-2.7-2.7S223.4,48.2,223.4,49.7z M138.1,97.7c0-10.3,8.4-18.7,18.7-18.7s18.7,8.4,18.7,18.7
		s-8.4,18.7-18.7,18.7S138.1,108,138.1,97.7z M148.7,97.7c0,4.4,3.6,8,8,8s8-3.6,8-8s-3.6-8-8-8S148.7,93.3,148.7,97.7z"/>
</g>
</svg>
