<?xml version="1.0" encoding="utf-8"?>
<!-- Generator: Adobe Illustrator 27.1.1, SVG Export Plug-In . SVG Version: 6.00 Build 0)  -->
<svg version="1.1" id="Layer_1" xmlns="http://www.w3.org/2000/svg" xmlns:xlink="http://www.w3.org/1999/xlink" x="0px" y="0px"
	 viewBox="0 0 512 512" style="enable-background:new 0 0 512 512;" xml:space="preserve">
<style type="text/css">
	.st0{fill:#26262F;}
	.st1{fill:#222733;}
	.st2{fill:#21272D;}
	.st3{fill:#FBFBFA;}
	.st4{fill:#00B068;}
	.st5{fill:#003020;}
	.st6{fill:#15B46F;}
	.st7{fill:#00AE60;}
	.st8{fill:#656F88;}
	.st9{fill:#41B880;}
	.st10{fill:#474D5A;}
	.st11{fill:#FFE75F;}
	.st12{fill:#F5E07D;}
	.st13{fill:#342D16;}
	.st14{fill:#A29CA0;}
</style>
<g id="_x34_t6ihU.tif">
	<g>
		<path class="st0" d="M492.7,271.6c0.6,2.4,2.1,4.2,3.8,5.9c1.2,2.2,2.3,4.4,3.5,6.6c0.5,0.4,1,0.9,1.5,1.3
			c2.8,5.5,6,10.7,9.9,15.5c0,3.3,0,6.5,0,9.8c-10.2,4.9-20.4,9.8-30.5,14.7c-2.8,1.4-6.7,2.2-8.2,4.5c-1.4,2.1,3.2,4.2,3.5,7.1
			c-4.6,1.1-9.5,1.6-13.2,5.2c-2.3-1.4-1.9-6.7-6.6-4.5c-7.4,3.5-14.8,7.1-22.3,10.6c-1.5,0.7-2.3,1.2-1,3.2
			c4.5,7.1,8.8,14.3,13.1,21.6c8.6,14.9,20.1,28.3,25,45.2c-3.2,3.5-7.1,4.5-11.7,3.8c-0.6-1.3-1.5-2.3-2.8-2.9
			c-0.1-1.4-0.8-2.4-2-3l0,0c-0.4-2-1.2-3.8-3-4.9l0,0c-0.1-2.4-1.9-4-3.1-5.8c-9.1-15-18.3-29.9-27.3-44.9
			c-2.2-3.7-4.1-4.9-8.1-2.5c-4.8,2.8-9.9,4.9-14.9,7.4c-7.4,3.6-15.1,4.1-22.8,1.6c-7.7-2.5-13-8.4-18-14.5c0-0.3-0.1-0.6-0.2-0.9
			c-0.4-1.1-0.5-2.3-1.7-3c-1.8-2.6-2.3-5.9-4.9-7.9c-7.9-14.7-16.5-28.9-25.4-43c-0.1-1.3-0.7-2.3-1.9-3c-0.1-1.7-1.2-2.8-2-4.2
			c-4-7-8-14.1-12.1-21.1c6.9-0.2,12.3,2.1,14.9,9c1.7,4.4,4.8,5.2,8.9,3.6c0.5,0.4,1.1,0.7,1.4,1.3c11.9,20.1,23.9,40.2,35.6,60.4
			c3.3,5.6,7.6,9.2,14.3,9.9c2.9,0.3,3.8-0.8,3.4-3.5c-1.5-9.9-2.8-19.8-4.4-29.6c-2-12.5-4.1-24.9-6.2-37.4c9.3,0,9.6,0.4,9.6,9.5
			c0,5.8,0,11.7,0,17.5c0,1.6-0.1,3.4,1.9,4c1.1,0.4,2.4,0.6,3.2-0.3c1.3-1.3,1.1-3.3,0.4-4.6c-2.5-4.5-1.4-9.2-1.6-13.8
			c-0.1-2.1,0.3-4.2-0.8-6.2c-1.8-3.1-0.2-4.4,2.6-5.3c0.1,1.6,0,3.3,0.3,4.8c1.9,9.3,3.6,18.6,4.9,28c1.1,8.2,2.5,16.3,3.9,24.4
			c0.5,2.8,1,5.6,5.3,3.5c12-6.1,24.2-11.8,36.4-17.7c7.3-3.6,7.3-3.6,4.3-10.6c1.9-1,2.5-2.8,2.9-4.7c0.8-4,0.6-7.8-1.2-11.6
			c-0.9-1.9-2.3-4.9,2-5.2c0.1,0.3,0.2,0.5,0.2,0.9c0,1.5-0.2,3,2.1,2.9l-0.1,0c0.2,0.4,0.4,0.7,0.7,1.1c0.1,0.3,0.2,0.6,0.2,0.9
			c0.3,0.3,0.5,0.7,0.8,1c0.1,0.6,0.1,1.2,0.2,1.8c0,1.4,0.2,3-0.2,4.3c-0.8,2.7-0.7,4.8,1.1,7.5c2.7,4.2,4.7-0.7,6.8,0.2
			c0.3,0.3,0.6,0.6,0.9,0.9c0.2,0.9,0.5,1.9,1.8,1.8c1-0.1,1.1-0.9,1.4-1.7c2.2-0.4,4.7-1.5,6.6-0.9c5.6,1.6,7.2-1.5,8.1-5.9
			c3.9-0.9,8-1.6,10.1-5.7l0.2,0c1.6,1,2.2,0.2,2.3-1.4c0-0.2,0-0.4,0-0.7c-0.2-0.4-0.5-0.8-0.7-1.2c-0.1-0.2-0.2-0.5-0.2-0.8
			c-0.3-0.4-0.6-0.8-1-1.1l0,0c-0.1-1.6,0.6-3.5-1.9-4c-0.1-1.4-0.1-2.7-1.9-3c-0.1-1.4-0.2-2.7-1.9-3c-0.2-1.3-0.2-2.8-2.1-2.8l0,0
			c-0.3-0.3-0.5-0.7-0.8-1c-0.2-0.2-0.3-0.4-0.3-0.6c-0.3-0.4-0.7-0.8-1-1.3c0,0,0,0,0,0c0-2.2,0.4-4.6-2.8-5c-1-1.4-2-2.7-3-4.1
			c-0.1-4.3-2.5-7.3-5.8-9.7c-0.2-1.4-0.2-2.8-2.2-2.8l0.1,0c-0.3-0.4-0.5-0.7-0.8-1.1c-0.4-0.6-0.7-1.2-1.1-1.9
			c0-0.9-0.1-1.7-1.1-2c-0.3-0.3-0.6-0.6-0.9-0.9c0-1,0-2,0-3c3-1.4,6-1.6,8.9,0.1c2.2,1.3,3.6,0.4,5-1.1c1.2,0.2,0.4,2,1.7,2.1
			c3.6,5.2,6.5,10.9,10.7,15.8c0,0,0,0,0,0C491.8,270.5,491.6,271.4,492.7,271.6z"/>
		<path class="st0" d="M92,83.5c3.3,0,6.5,0,9.8,0c1.3,0.1,2.6,0.2,3.9,0.2c0.3,1.1,1.2,0.9,2,0.7c2,0.1,3.9,0.2,5.9,0.3
			c0,3.6,2.1,4.8,5.4,4.7c8.6-0.1,17.3,0,25.9,0c1.8,0,4.2-0.4,4.6,1.7c0.8,4.4,3.9,4.1,7,4.1c11.2,0,22.5,0,33.7,0
			c9.2,0,9.2,0,7.6-8.6c2.6,0.6,5.2,1.2,7.8,0.6c0.7,0,1.3,0,2,0c7.4-0.6,13.9,2,20.5,5c5.1,2.3,10.5,4.1,15.7,6.1
			c1,0.6,2,1.1,3,1.7c3.3,1.3,6.5,2.6,9.8,3.8c0.3,0.1,0.6,0.2,1,0.2c0.1,0.6,0.3,1,1,0.8c0.9,0.5,1.7,1.4,2.9,1.2
			c5.5,2.3,11,4.7,16.5,7c1.4,0.6,2.7-0.1,3-1c0.9-2.2,3.3-3.1,4.2-5.1c3.5-0.7,6.9-2.5,10.6-1.9c5.4,1.1,10.2,3.9,15.7,4.6
			c0.9,0.5,1.7,1.6,2.9,1c6.1,2.2,11.8,5.6,18.6,4.9c1.3-0.7,2.6-1.3,3.9-2c0.8,0.1,1.6,0.3,2-0.7c0.6,0,1.3,0,1.9,0
			c0,1.8,1.6,1.8,2.7,2.3c6.5,3,6.7,5.1,1,9.7c-0.4,0.3-0.5,1.1-0.8,1.7c0,0,0,0,0,0c-2.4,0.3-5.3-1.1-6.9,1.9
			c-4.9,1.4-9.7-0.1-14.6-0.1c-1.7-3-4.4-2.2-7-1.8c-0.3,0-0.6-0.1-0.9-0.2c-5.3-4.9-12.5-5.4-18.9-7.6c-0.4-0.1-1.1,0.5-1.7,0.8
			c-0.6,1.3-1.2,2.7-1.8,4c-1,2.6-2.1,5.2-3.1,7.7c-4.9,6.1-7.1,13.5-9.6,20.7c-1.9,3.4-4.1,6.8-5,10.7c-0.3-0.4-0.8-0.7-0.9-1.1
			c-0.4-2,0.1-4.5-3-4.7c-1.9-0.1-3.8-0.2-5.1,1.9c-1.4,2.5-0.9,4.7,0.6,6.8c3,4,5.9,8.3,11.9,8c0.7,0,1.5,0.6,2.2,0.9
			c-1.3,2.5,2.8,5.7-1.1,7.9c-1.3-0.6-2.6-1.2-3.8-1.9l0.1-0.4c-0.4-0.3-0.8-0.5-1.2-0.8c-3.4-1.9-6.7-4-10.2-5.7
			c-1.2-0.6-1.3-1.1-1.4-2.1c1.7-2.3,0.2-3.2-1.7-3.9c0-0.3,0-0.7,0-1c3.6-2.7,0.5-5.3-0.3-7.8c0.9-2-0.7-2.8-1.9-3.7
			c4.3-2.3,4.6-9.9,11.5-8.8c0.1,0,0.4-0.5,0.5-0.8c2-5.5,5.2-10.5,6.5-16.2c0.8-3.4-0.4-5.9-4-6.4c-4.4-0.6-7.8-3-10.9-5.9
			c-3-2.8-6.5-4.4-10.6-3.8c-2,0.3-3.8,1.9-6,1.8c-4.3-1-8.3-2.6-12.3-4.4c-11.9-5.4-23.6-11.6-37.4-9.4c-1.8-3.4-4-4.6-6.9-1.1
			c-3.3,0-6.5,0-9.8,0c-0.2-1-0.5-1.8-1.7-1.7c-1,0.1-1.1,0.9-1.3,1.6l0,0.3c-0.6,0-1.3,0-1.9,0c-0.3-0.1-0.7-0.1-1-0.2
			c-4.8-1.6-9.7-1.1-14.6-0.3c-5.3,0.8-10.5-0.7-15.8-0.5c-1.7,0-3.3-0.1-5-0.1c-10.5-0.1-21.1,0.5-31.5-1c-4.7-0.7-6.5,1.3-5.9,5.8
			c-1.1,2.3-1.1,4.6,0,6.9c-0.1,1-0.1,1.9-0.2,2.9c-2.3,0.1-3.9,0.7-3.2,3.5c0.8,3.1,8.6,9.2,11.8,9.2c10.4,0,20.7,0.1,31.1,0
			c3.6-0.1,5.2,1.2,4.8,4.8c-17.7,0.5-35.5,0.1-53.2-0.9c-0.9,0-1.8-0.5-2.6-0.8c-2.4-1.3-3.1-3.7-3.1-6.1
			c-0.1-11.3-0.1-22.7,0.1-34C86.1,86,88.2,83.8,92,83.5z"/>
		<path class="st0" d="M77.5,135.5c1.7,1.7,1.2,4.6,3.6,5.9c3.7,8.7,7.5,17.4,10.9,26.2c4,10.4,7.7,21.3,5.6,32.3
			c-5.2,26.3-29,39.6-54.6,34.6c-2.9-1-5.9-2.1-8.8-3.1c-6.5-3.4-11.3-8.9-16.6-13.8c0.1-1.5-0.6-2.3-1.9-2.8c-0.2-0.7,0.1-1.7-1-2
			c-2.8-6.6-5-13.1-5.2-20.5c-0.3-9.8,3-18,8.7-25.5c12.4-16.3,27.8-29.6,44-42c2.5-1.9,5.4-1,8.2-0.2c1,0.8,1.9,1.5,2.9,2.3
			c0.1,0.7-0.1,1.6,0.9,1.9C75.4,131,76.4,133.3,77.5,135.5z M77.4,211c0.3-0.3,0.6-0.7,0.9-1c3.1-0.4,2.8-2.7,3-4.9
			c3.7-1.9,3.7-5.5,3.8-8.8c0.3-10.2-3.1-19.7-7-28.9c-1.8-4.3-3.2-8.9-6.5-12.5c0.3-4.5-2.4-7.8-4.4-11.4c-0.7-1.2-1.6-0.6-2.5-0.3
			c-5,1.2-7.2,5.9-10.9,8.7c-2.5,0.2-3.5,2.4-4.9,3.9l0,0c-1.9-0.1-2.7,1.6-3.9,2.7c-8.2,8-16.1,16.1-20.7,26.9
			c-2.1,4.3-2.6,8.5,0.3,12.7c1.3,1.7,1.8,3.6,1.9,5.7c0.3,0.4,0.5,0.8,0.8,1.3c0.2,0.2,0.2,0.5,0.1,0.7c0.2,1.9,0.4,3.8,2.9,4.1
			c0.3,0.3,0.6,0.7,0.9,1c0.3,0.3,0.7,0.7,1,1c0,0-0.1-0.1-0.1-0.1c0.3,0.3,0.7,0.7,1,1c0,0-0.1-0.1-0.1-0.1c0.4,0.3,0.8,0.7,1.2,1
			c0.9,0.7,1.8,1.5,2.7,2.2c1.8,4.8,5.8,4.8,9.9,4.7c0.3,0,0.6,0,0.8,0.2c0.3,0.5,0.6,1.4,1.1,1.5c9.7,2.1,17.7-2.4,25.7-6.7
			c0.6-0.3,0.6-1.8,0.8-2.7c0.3-0.4,0.6-0.7,0.9-1.1c0,0,0,0,0,0C76.7,211.6,77.1,211.3,77.4,211z"/>
		<path class="st1" d="M333.2,282.3c-4.1,1.6-7.2,0.8-8.9-3.6c-2.6-6.9-8-9.2-14.9-9c-0.3,0-0.5-0.1-0.8-0.1c-0.3-0.3-0.5-0.7-0.8-1
			c-0.1-0.6-0.2-1.2-0.3-1.9c1.1-0.8,1.3-2,1-3c-1.4-5.1-1.8-9.8,4.5-12.1c0.4-0.1,0.4-1.2,0.6-1.8c1.7,0.8,2.9-0.7,4.4-0.9
			c1.4-0.3,2.8-0.6,4.2-0.9c-1,4.1,2.7,5.6,4.7,7.8c1.9,2.1,3.2-1.2,5.1-1.1c5.5,0.3,7.6-5.5,12.5-6.9c2.8-0.8,0.4-3.3-1.2-4.2
			c-1.5-0.9-3.5-1.1-3.5-3.4c0-0.6,0-1.3,0.1-1.9c1.6,0,3.2,0,4.8-0.1c2.5-0.1,4.8,0.2,6.3,2.6c0.7,1,1.7,1.5,2.9,1
			c1.2-0.5,1.6-1.5,1.6-2.7c0-1.3,0-2.6,0-3.8c4-0.5,4.7-4.4,7-6.7c1.5-0.3,3.5,0.4,3.9-2c4.8-0.7,9.3-2,12.7-5.7
			c0.6-0.1,1.2-0.2,1.8-0.3c6.2,2,12.7-1.3,18.8,1c0.3,0,0.6,0.1,0.9,0.2c0.5,0.7,1.2,0.9,2,0.8l0,0c0.4,0.3,0.7,0.7,1.1,1
			c0.3,0,0.5,0,0.8,0.2c0.4,0.3,0.8,0.5,1.1,0.8l-0.1-0.1c0.4,1,1.3,1.1,2.2,1c0.3,0.3,0.5,0.6,0.8,0.9c0.3,0.3,0.7,0.7,1,1l0,0
			c0.3,0.3,0.7,0.7,1,1l0,0c0.4,6-1.8,10.2-7.9,11.9c-5.2-6-12.3-7.9-19.2-5.5c-11.2,3.9-21.8,9.5-32.7,14.3c-0.9-0.1-2.2-0.3-2,1
			c0.1,1.4,1.3,0.7,2.1,0.5c10.4-0.4,20.7-0.1,29.2,7.1c-0.4,1-1.4,2.2-0.2,3.1c3.4,2.5,5.1,6.6,8.9,8.7c0.4,1,1.6,1.6,1.3,2.9
			c-1.9,0.2-2.4,1.4-2,3c0.4,1.8,1.3,3.2,3.5,3c0.5,2,0.9,4,1.4,5.9l-0.4-0.1c-2.8,0.8-4.4,2.2-2.6,5.3c1.2,1.9,0.7,4.1,0.8,6.2
			c0.2,4.6-0.8,9.4,1.6,13.8c0.7,1.3,0.9,3.3-0.4,4.6c-0.8,0.9-2.2,0.7-3.2,0.3c-2-0.7-1.9-2.4-1.9-4c0-5.8,0-11.7,0-17.5
			c0-9.1-0.3-9.5-9.6-9.5c-1-12.5-8-17.4-16.6-17.6c-11.8-0.3-23.6,0.1-35.5,0.2c-0.2,0-0.5,0.1-0.7,0.1c0.2,0.3,0.4,0.5,0.7,0.8
			C326.8,272.5,331.4,276.7,333.2,282.3z"/>
		<path class="st0" d="M82.1,251.4c5.6-3.6,10-8.7,15.8-12c1-0.1,1.9-0.2,2.9-0.3c0.3,0,0.7,0,1,0.1c5.2,1.8,6.5,6.9,9,10.9
			c1.5,4.1,3,8.2,5.6,11.8c0,0.3,0.1,0.6,0.2,0.9c1.1,1.6,0.6,4,2.7,5.1c0.1,3.2,2.2,5.8,3.2,8.6c0.1,1-0.9,2.3,0.7,3
			c0.4,2.3,0.8,4.5,1.2,6.8c0.7,1.5,0.7,3,0.9,4.6c1.2,9.9-2.9,17.9-8.7,25.4c-0.7,0.6-1.4,1.3-2,1.9c-1.3,0.3-2.2,1.2-3.2,1.9
			c-6.6,4.8-14.2,7.3-22.1,7c-6.3-0.2-12.6-2.3-18-6c-7.8-5.5-12.9-13-15-22.2c-1.4-6.3-1.5-12.9,2.3-18.7
			c4.6,3.8,7.3,8.9,10.4,13.8c0.1,0.1,0.3,0.1,0.5,0.1c0.2,1.5-0.7,3.5,1.9,3.9c0.2,0.2,0.2,0.5,0.1,0.8c0.1,1.6-0.7,3.6,1.8,4.2
			c1.2,4.7,3.8,7.7,9,7.7c3.6,0,6.7,3.1,10.6,2c5.2,0,10.5,0.2,12.7-6c0,0,0,0,0,0c2.7,0,3.9-1.9,5-4c2.8-5,2.7-10.2,1.2-15.5
			c-1.6-5.6-3.3-11.1-5-16.6c2.1-0.8,5.2-0.3,5.8-3.5c0.4-2.2,0.5-4.9-2-6c-3.4-1.5-5.4,0.7-6.7,3.6c-0.6,0-1.2,0-1.8,0
			c-0.4-1.3-0.8-2.6-1.3-3.9c0.2-2-0.1-3.7-2.5-3.9c-2.2-0.2-2.3,1.3-2.2,2.9l0,0c-4.4-1-5.9,3.3-8.9,4.9c-0.8-2.4-1.1-4.3-4.8-2.6
			c-2.8,1.3-5.8,2.1-8.5,4c-1.3,0.9-4.4,3-4.4-1.6c0.7-0.9,1.4-1.9,2.1-2.8C75.1,258.3,78.6,254.9,82.1,251.4z"/>
		<path class="st2" d="M313.6,249.8c-0.2,0.6-0.2,1.6-0.6,1.8c-6.3,2.3-5.9,6.9-4.5,12.1c0.3,1,0.1,2.3-1,3c-2-2.9-4-5.8-6-8.6
			c-0.3-0.4-0.5-0.9-0.8-1.3c-5.6-10.1-11.8-19.9-18.5-29.3c-1.7-3.2-3.6-6.3-5-9.6c-2.7-6.6,0.3-13.2,0.6-19.8
			c0.1-1.6,0.4-3.1,0.2-4.7c0.3-3.6,0.7-7.2,1-10.7c3.9-2.1-0.2-5.4,1.1-7.9c3.6,0.3,6.7,0.1,5-5c6,2.8,8.9,7.1,8.6,12.8
			c-1.8,2.1-0.3,4.7-0.9,6.9c-1.7,2.5-0.5,5.3-0.8,7.9c0,0.3-0.1,0.6-0.2,0.9c-1.7,3.8-0.4,7.9-0.8,11.8c-0.6,3.7,2.1,6,3.8,8.7
			c5.4,8.8,10.7,17.6,16.1,26.4C311.2,247.1,313.8,247.6,313.6,249.8z"/>
		<path class="st1" d="M225.3,143.5c-7.8-3-15.7-6.1-23.5-9.1c5.6-2.7,0.6-4.5-0.8-5.7c-3-2.6-5.4-6.9-5.1-10.6
			c6.4,0.1,12.3,2.7,18,5c14.6,5.7,29.3,11,43.9,16.4c10,3.7,10.1,3.6,14.1-6.5c2.2-5.4,1.8-5.8-3.8-8c-7.6-3-15.5-5.6-22.6-9.8
			c2.2,0.1,4-1.5,6-1.8c4.1-0.6,7.6,1,10.6,3.8c3.1,2.9,6.4,5.3,10.9,5.9c3.6,0.5,4.8,3.1,4,6.4c-1.3,5.7-4.4,10.8-6.5,16.2
			c-0.1,0.3-0.4,0.8-0.5,0.8c-6.9-1.1-7.2,6.6-11.5,8.8c-1-0.3-2.1-0.4-3.2-0.8c-7-2.5-13.8-5.9-21.2-7.3
			C231.5,145.2,228.4,144.3,225.3,143.5z"/>
		<path class="st3" d="M342.6,336.6"/>
		<path class="st3" d="M350.8,340.9"/>
		<path class="st3" d="M325.2,301.8"/>
		<path class="st3" d="M323.3,324.3"/>
		<path class="st1" d="M69.5,264.6c-0.1,4.6,3.1,2.5,4.4,1.6c2.7-1.9,5.7-2.7,8.5-4c3.7-1.8,4.1,0.2,4.8,2.6c0,0.7,0,1.3,0.1,2
			c0,0,0,0,0,0c-0.3,0.3-0.6,0.7-1,1l0,0c-0.3,0.3-0.7,0.7-1,1l0,0c-0.3,0.3-0.7,0.7-1,1l0,0c-0.3,0.3-0.7,0.7-1,1l0,0
			c-0.3,0.3-0.6,0.6-1,1l0,0c-0.3,0.3-0.6,0.6-1,1l0,0c-0.3,0.3-0.6,0.7-1,1l0,0c-0.3,0.3-0.7,0.7-1,1l0,0c-0.3,0.3-0.7,0.7-1,1
			c0,0,0,0,0,0c-2.2-0.1-2.1,1.5-2.1,3c-0.3,0.3-0.6,0.6-0.9,0.9c-2.1,0-2.1,1.5-2.1,3c0,0.3-0.1,0.5-0.1,0.8l0-0.1
			c-0.3,0.1-0.5,0.1-0.8,0.1c-1,0.4-1.1,1.2-1,2.1l0.1-0.1c-3.9,2.1-1.4,5.8-2.1,8.7c-0.2,0-0.4,0-0.5-0.1
			c-3.1-4.9-5.8-10.1-10.4-13.8c0-0.6-0.1-1.2-0.1-1.8c1.1-1.6,2.1-3.2,3.2-4.9c1.3-1.9,2.6-3.8,3.9-5.8
			C66.9,266.7,68.2,265.7,69.5,264.6z"/>
		<path class="st3" d="M110.9,250"/>
		<path class="st3" d="M116.5,261.9"/>
		<path class="st3" d="M77.5,135.5"/>
		<path class="st2" d="M259.4,163.9c0.7-1.6-0.8-3.6,1-4.9c0.8,2.6,3.8,5.1,0.3,7.8C260.3,165.8,259.8,164.9,259.4,163.9z"/>
		<path class="st3" d="M119.4,267.8"/>
		<path class="st3" d="M123.3,279.4"/>
		<path class="st3" d="M454.7,416.3"/>
		<path class="st2" d="M260.7,167.8c1.9,0.7,3.5,1.6,1.7,3.9C261.4,170.6,260.4,169.5,260.7,167.8z"/>
		<path class="st3" d="M357.4,351.8"/>
		<path class="st3" d="M454.6,416.3"/>
		<path class="st3" d="M14.7,212.8c1.1,0.3,0.8,1.2,1,2C14.4,214.6,13.1,214.4,14.7,212.8z"/>
		<path class="st3" d="M101.8,239.1c-0.3,0-0.7,0-1-0.1"/>
		<path class="st2" d="M274.1,179.5c0.4,0.3,0.8,0.5,1.2,0.8C274.5,180.6,274.3,180.1,274.1,179.5z"/>
		<path class="st2" d="M343.9,126.8c0.3-0.6,0.3-1.3,0.8-1.7c5.6-4.6,5.4-6.7-1-9.7c-1.1-0.5-2.7-0.5-2.7-2.3
			c5.7-2.5,11.6-4.5,17.6-5.8c0.9,2.3,0.6,4.3-0.9,6.2c-1.2,1.5-2,3.7,0.6,4.2c6.7,1.3,13.3-0.3,20-0.9c1.9,0.4,2.2,2.4,3.5,3.4
			c8.3,6.8,16.5,13.8,24.3,21.2c4.9,4.7,9.7,7.5,16.3,3.7c4.7-0.1,9.3,0.3,13.7,2.2c1.8,2.2,4.8,3.2,6,6c0.9,1.2,1,3,2.7,3.7
			c3.5,7.1,7,14.2,11.8,20.6c0.1,0.6,0.2,1.3,0.3,1.9c-0.2,0.7,0.2,0.9,0.8,1.1c0,0,0,0,0,0c0.7,1.5-1,3.6,1,4.9c0,1,0,1.9,0,2.9
			c-1.2,4.7-1.9,9.6-6.2,12.7c-2.5,1.8-2.5,3.7-0.7,6.3c9.3,14.1,18.4,28.4,27.5,42.7c0.1,0.6,0.2,1.2,0.3,1.8
			c-1.4,1.5-2.8,2.5-5,1.1c-2.8-1.7-5.9-1.5-8.9-0.1c-0.6,0-1.2,0-1.9,0c-1.4-3.1-2.2-6.6-5.9-7.9l0,0.1c-0.5-2-1.1-3.9-3-5l0.1,0.1
			c-0.8-2.4-1.9-4.4-4-6l0.1,0.1c-0.4-2-1.2-3.8-3-4.9l0,0c-0.1-1.4-0.6-2.5-2-3l0,0c-0.1-1.4-0.6-2.5-2-3l0.1,0
			c-0.3-2.1-1.3-3.8-3-4.9c0-0.3-0.1-0.6-0.3-0.9c-0.4-1.4-1.4-2.3-2.7-3c-0.2-3.3-3.6-5.2-4-8.5c-0.3-3.5,0.3-6.9,2-10l0,0
			c0.3-0.3,0.6-0.7,1-1c0.6-0.7,1.2-1.3,1.9-2c1.2,0.1,2-0.4,2.1-1.7c1.8-1.2,3.5-2.7,2.8-5.1c-1.1-3.7-2.2-7.6-5.7-9.9l0,0
			c-0.2-1.5-0.8-2.9-2-3.9c0,0,0-0.1,0-0.1c-0.7-1-1.3-1.9-2-2.9c0,0,0,0,0,0c-0.4-2-1.1-3.9-3-5c0-0.3,0-0.6-0.2-0.9
			c-0.3-0.3-0.6-0.7-0.8-1l0.1,0c-1.6-4.7-5.3-3.3-8-2.2c-4.8,1.8-9.5,2.8-14.6,2.2l0,0.1c-2-4.4-5.7-6.9-9.9-8.8l0,0
			c-1.2-1.8-2.6-3.6-4.9-4.1c-0.3-0.3-0.6-0.6-0.8-0.8c-0.4-0.3-0.8-0.7-1.1-1l0.1,0.1c-0.3-0.3-0.7-0.7-1-1c0,0,0.1,0.1,0.1,0.1
			c-0.3-0.3-0.7-0.7-1-1c0,0,0.1,0.1,0.1,0.1c-0.3-0.3-0.7-0.7-1-1c0,0,0.1,0.1,0.1,0.1c-0.3-0.3-0.7-0.7-1-1c0,0,0.1,0,0.1,0
			c-0.3-0.7-0.7-1.3-1.7-1.3c0,0,0,0,0,0c-0.8-2-2.3-3.1-4.2-3.6l0,0.1c-0.3-0.4-0.7-0.7-1-1.1c-0.6-0.6-1.2-1.3-1.8-1.9
			c-0.7-0.6-1.4-1.3-2.1-1.9c-3.7-3.5-7.3-7.1-11-10.6c-6.1-5.2-11.1,0.5-16.6,1.7C347.1,126,345.5,126.4,343.9,126.8z"/>
		<path class="st2" d="M197.8,86.8c1.5,8.6,1.5,8.6-7.6,8.6c-11.2,0-22.5,0-33.7,0c-3.1,0-6.2,0.3-7-4.1c-0.4-2.2-2.8-1.7-4.6-1.7
			c-8.6,0-17.3,0-25.9,0c-3.3,0-5.4-1.2-5.4-4.7c1.6-0.1,3.3-0.2,4.9-0.3c7.4,0.5,14.9,0.6,22.3,0.9c18.5,1,37.1,0.9,55.6,1.2
			C196.9,86.6,197.4,86.7,197.8,86.8z"/>
		<path class="st0" d="M369.3,108.9c2.6,3,6.7,4.4,8.9,7.9c-6.7,0.6-13.3,2.1-20,0.9c-2.5-0.5-1.8-2.7-0.6-4.2c1.6-2,1.8-4,0.9-6.2
			c1-0.1,2-0.2,2.9-0.3c1,0,2,0,2.9,0C366,107.6,367.7,108.3,369.3,108.9z"/>
		<path class="st3" d="M500,284.1"/>
		<path class="st3" d="M457.4,180.6"/>
		<path class="st3" d="M364.4,107c-1,0-2,0-2.9,0"/>
		<path class="st3" d="M339,113.1"/>
		<path class="st3" d="M105.7,83.7"/>
		<path class="st3" d="M491.6,269.7"/>
		<path class="st3" d="M457.4,180.6c-0.6-0.1-1-0.4-0.8-1.1C456.9,179.9,457.2,180.3,457.4,180.6z"/>
		<path class="st3" d="M258.6,105c-0.7,0.2-0.9-0.2-1-0.8C257.9,104.5,258.3,104.7,258.6,105z"/>
		<path class="st2" d="M447.7,316.6c-7.5-12.4-15-24.8-22.4-37.2c-2.4-3.9-4.7-7.8-7.1-11.7c-0.6-1.1-1.1-2.2-1.7-3.3
			c-4.7-8-9.9-15.7-13.8-24c6.1-1.7,8.3-5.9,7.9-11.9c0.4,0.2,0.9,0.3,1.3,0.5l0.2,0.3c0.4,0.5,0.8,0.9,1.2,1.4c0,0,0,0,0,0
			c0.3,0.3,0.6,0.6,0.9,0.9c0.3,2.1,2,3.3,3.1,5l-0.1-0.1c0,1.5,0.8,2.4,2,3l-0.1-0.1c0.2,0.7,0,1.7,1.1,1.8c0.7,1,1.4,2,2.1,3.1
			c1,6,4.9,10.2,8.7,14.6c1.5,1.7,0.6,4.6,2.9,6c1.5,2.1,2.1,4.6,3.4,6.8c4.5,7.9,10.2,15.2,14.1,23.4c-4.3,0.3-2.9,3.3-2,5.2
			c1.8,3.8,1.9,7.6,1.2,11.6C450.2,313.8,449.6,315.6,447.7,316.6z"/>
		<path class="st1" d="M501.7,400.9c-2.9-1.3-5.1-3.3-6.7-6c-10.6-17.6-21.3-35.1-32-52.6c3.7-3.5,8.6-4,13.2-5.2
			c6.9,9.3,12.2,19.6,18.5,29.4c4.1,6.4,7.7,13.1,12,19.4C511.4,393.1,510,397.4,501.7,400.9z"/>
		<path class="st4" d="M451.4,295.1c-3.9-8.3-9.6-15.5-14.1-23.4c-1.3-2.2-1.9-4.7-3.4-6.8c0.9-1.1,1.3-0.8,2,0.4
			c5.7,9.5,11.8,18.8,17.3,28.5c3.2,5.6,7.3,10.7,9.2,17c0,0.7,0,1.4-0.1,2.1c-2.2-3-4.5-6.1-6.7-9.1c-0.1-0.6-0.1-1.2-0.2-1.8
			c-0.3-0.3-0.5-0.7-0.8-1c0-0.3-0.1-0.6-0.2-0.9c-0.2-0.4-0.4-0.7-0.7-1.1c0,0,0.1,0,0.1,0c-0.2-1.3-0.9-2.3-2.1-2.9
			C451.6,295.6,451.6,295.3,451.4,295.1z"/>
		<path class="st2" d="M455.6,303.7c2.2,3,4.5,6.1,6.7,9.1c0.4,0.9,0.7,1.8,1.1,2.8l-0.1,0.1c-2.2-0.9-4.1,3.9-6.8-0.2
			c-1.8-2.7-1.8-4.8-1.1-7.5C455.8,306.6,455.6,305.1,455.6,303.7z"/>
		<path class="st5" d="M482.1,309.8c-0.9,4.4-2.4,7.5-8.1,5.9c-2-0.6-4.4,0.6-6.6,0.9c0,0-0.2-0.3-0.2-0.3c2-1.2,4.1-2.4,6.1-3.6
			l-0.1,0.1c0.8-0.1,1.6-0.2,2-1l-0.1,0.1c1.5-0.3,2.9-0.9,3.9-2.1l-0.1,0c0.9-0.1,1.9-0.1,2.8-0.2L482.1,309.8z"/>
		<path class="st5" d="M492.2,304.1c-2.1,4.2-6.1,4.8-10.1,5.7c0,0-0.2-0.2-0.2-0.2c0.4-0.6,0.8-1.2,1.2-1.8l-0.1,0
			c0.8-0.1,1.7,0.1,2-1l-0.1,0c0.8-0.1,1.7,0,2-1l-0.1,0c0.8-0.1,1.7,0,2-1l0,0C490,304.8,491.2,305,492.2,304.1z"/>
		<path class="st5" d="M471.3,264.6c3.2,2.5,5.7,5.4,5.8,9.7c-0.3,0-0.7,0-1,0c-0.7-3.7-4.4-5.8-5-9.6L471.3,264.6z"/>
		<path class="st6" d="M483.9,284.6c0,0.3,0.1,0.5,0.3,0.6c0.3,0.3,0.5,0.7,0.8,1l0,0c0,0.6,0.1,1.2,0.1,1.9c-3.9-1.1-4-4.7-5.1-7.7
			l0.1-0.1c0.9,1,1.9,2,2.8,3.1c0,0,0,0,0,0C483.2,283.8,483.5,284.2,483.9,284.6z"/>
		<path class="st6" d="M467.3,258.9c0.4,0.6,0.7,1.2,1.1,1.9c-0.1,0.6,0.3,0.9,0.8,1.1c0,0-0.1,0-0.1,0c0.1,0.6,0.2,1.3,0.3,1.9
			c-3.1-1.8-5.1-4.1-5-7.9c0.3,0,0.6,0.1,0.9,0.2c0.3,0.3,0.6,0.6,0.9,0.9C466.4,257.7,466.3,258.6,467.3,258.9z"/>
		<path class="st6" d="M492.2,304.1c-0.9,0.9-2.1,0.7-3.3,0.8c0.8-2.1,4.9-2.6,3-6c0.3,0.1,0.6,0.1,0.9,0.1c0,0,0,0,0,0
			c0.3,0.4,0.6,0.8,1,1.1c0,0.3,0,0.5,0.2,0.8c0.2,0.4,0.5,0.8,0.7,1.2c0,0.2,0,0.4,0,0.7c-0.9,0.1-1.9,0.2-2.3,1.4L492.2,304.1z"/>
		<path class="st6" d="M476.1,274.4c0.3,0,0.7,0,1,0c1,1.4,2,2.7,3,4.1c0,0.6,0,1.3-0.1,1.9c0,0-0.1,0.1-0.1,0.1
			C477.7,279,476.4,277,476.1,274.4z"/>
		<path class="st5" d="M480.1,280.3c0-0.6,0-1.3,0.1-1.9c3.2,0.4,2.8,2.8,2.8,5C482,282.4,481,281.3,480.1,280.3z"/>
		<path class="st5" d="M492.8,299c-0.3,0-0.6-0.1-0.9-0.1c0,0,0,0.1,0,0.1c-0.1-0.8,0-1.7-1-2c0,0,0,0,0,0c-0.1-0.6-0.2-1.2-0.3-1.7
			c0,0,0.3-0.3,0.3-0.3C493.4,295.5,492.6,297.4,492.8,299z"/>
		<path class="st5" d="M467.4,316.7c-0.2,0.8-0.4,1.6-1.4,1.7c-1.3,0.1-1.5-0.8-1.8-1.8c0,0,0.2-0.1,0.2-0.1c0.9,0,1.8-0.1,2.7-0.1
			L467.4,316.7z"/>
		<path class="st5" d="M469.4,263.7c-0.1-0.6-0.2-1.3-0.3-1.9c2-0.1,2,1.4,2.2,2.8c0,0-0.2,0.2-0.2,0.2
			C470.6,264.4,470,264.1,469.4,263.7z"/>
		<path class="st5" d="M485,288.1c0-0.6-0.1-1.2-0.1-1.9c1.9,0,2,1.4,2.1,2.8c0,0-0.2,0.2-0.2,0.2
			C486.2,288.8,485.6,288.5,485,288.1L485,288.1z"/>
		<path class="st2" d="M451.7,295.9c1.2,0.6,1.9,1.6,2.1,2.9C451.5,299,451.6,297.4,451.7,295.9z"/>
		<path class="st5" d="M488.9,292c1.8,0.2,1.9,1.6,1.9,3c0,0-0.3,0.3-0.3,0.3c-0.6-0.4-1.1-0.8-1.7-1.2c0,0,0,0,0,0
			c-0.1-0.6-0.2-1.2-0.2-1.8C488.7,292.3,488.9,292,488.9,292z"/>
		<path class="st5" d="M487,289c1.7,0.3,1.8,1.6,1.9,3c0,0-0.3,0.2-0.3,0.2c-0.6-0.4-1.1-0.8-1.7-1.2c0,0,0.1,0.1,0.1,0.1
			c-0.1-0.6-0.1-1.3-0.2-1.9L487,289z"/>
		<path class="st5" d="M465.3,256c-0.3-0.1-0.6-0.1-0.9-0.2c0,0,0,0.1,0,0.1c0-0.3-0.1-0.6-0.2-0.9c-0.2-0.4-0.5-0.7-0.7-1.1
			c0-0.3,0-0.6,0-1c0.6,0,1.2,0,1.9,0C465.3,254,465.3,255,465.3,256z"/>
		<path class="st5" d="M492.4,304.1c0.3-1.1,1.3-1.2,2.3-1.4C494.6,304.3,494,305.1,492.4,304.1z"/>
		<path class="st5" d="M467.3,258.9c-1-0.3-0.9-1.2-1.1-2C467.1,257.2,467.3,258,467.3,258.9z"/>
		<path class="st5" d="M484.9,286.3c-0.3-0.3-0.5-0.7-0.8-1C484.4,285.6,484.7,285.9,484.9,286.3z"/>
		<path class="st5" d="M469.2,261.9c-0.6-0.2-0.9-0.5-0.8-1.1C468.7,261.1,468.9,261.5,469.2,261.9z"/>
		<path class="st5" d="M483.9,284.6c-0.3-0.4-0.7-0.8-1-1.3C483.2,283.8,483.5,284.2,483.9,284.6z"/>
		<path class="st2" d="M453.7,298.8c0.2,0.4,0.4,0.7,0.7,1.1C454.1,299.6,453.9,299.2,453.7,298.8z"/>
		<path class="st5" d="M493.7,300.1c-0.3-0.4-0.6-0.8-1-1.1C493.1,299.4,493.4,299.7,493.7,300.1z"/>
		<path class="st2" d="M454.6,300.8c0.3,0.3,0.5,0.7,0.8,1C455.1,301.5,454.9,301.2,454.6,300.8z"/>
		<path class="st5" d="M494.6,302.1c-0.2-0.4-0.5-0.8-0.7-1.2C494.1,301.3,494.4,301.7,494.6,302.1z"/>
		<path class="st2" d="M464.2,316.6c-0.3-0.3-0.6-0.6-0.9-0.9c0,0,0.1-0.1,0.1-0.1c0.3,0.3,0.7,0.6,1,1L464.2,316.6z"/>
		<path class="st7" d="M463.4,253.9c0.2,0.4,0.5,0.7,0.7,1.1c-0.1,0.1-0.3,0.3-0.3,0.3c0.2,0.2,0.4,0.4,0.5,0.6c0,0,0-0.1,0-0.1
			c-0.1,3.8,1.9,6.2,5,7.9c0.6,0.3,1.2,0.7,1.7,1c0.6,3.8,4.3,5.9,5,9.6c0.2,2.7,1.5,4.7,3.8,6.1c1.1,3,1.2,6.6,5.1,7.7
			c0,0-0.1,0-0.1,0c-0.1,1.5,0.5,2.6,2,3c0,0-0.1-0.1-0.1-0.1c-0.1,1.5-0.2,3,2,3c0,0,0,0,0,0c-0.1,1.5-0.1,2.9,2,3c0,0,0,0,0,0
			c0,0.9,0.1,1.6,1,2c0,0,0-0.1,0-0.1c1.9,3.4-2.2,3.9-3,6c0,0,0,0,0,0c-0.9,0-1.6,0.1-2,1c0,0,0.1,0,0.1,0c-0.9,0-1.6,0.1-2,1
			c0,0,0.1,0,0.1,0c-0.9,0-1.6,0.1-2,1c0,0,0.1,0,0.1,0c-1.7-0.2-3.3,0.1-4,2c0,0,0.1,0,0.1,0c-1.7-0.1-3.4,0-3.9,2.1
			c0,0,0.1-0.1,0.1-0.1c-0.9-0.1-1.7,0-2,1c0,0,0.1-0.1,0.1-0.1c-1,0-2.2-0.4-2.8,0.1c-3.8,3-6,1-8.1-2.2c-1.9-6.3-6-11.4-9.2-17
			c-5.4-9.7-11.5-19-17.3-28.5c-0.7-1.1-1.1-1.5-2-0.4c-2.3-1.3-1.4-4.2-2.9-6c-1.4-5.7-3.8-10.9-8.7-14.6c-0.7-1-1.4-2-2.1-3.1
			c0-0.8-0.2-1.5-1.1-1.8c0,0,0.1,0.1,0.1,0.1c0.2-1.5-0.5-2.6-2-3c0,0,0.1,0.1,0.1,0.1c0.2-2-0.3-3.7-1.9-5c-0.4-0.8-1.2-0.9-2-0.9
			c0,0,0,0,0,0c0.1-0.7,0.1-1.4,0.2-2c0.8,0,1.5-0.2,1.9-1c5.5-1.3,8.5-11,5.7-17c-3.6-7.8-8.1-15.1-12.3-22.5
			c-2.9-5.3-6.5-6.6-12.4-6c-5.9,0.6-12.8,3.2-16.9-4.3c-0.4-0.7-1.6-1-2.4-1.6c-5.9-3.7-11.7-7.5-17.6-11.2c-1.4,0-2.8,0-2.9-2
			c-0.1-0.3,0-0.7-0.2-0.9c-6-8.1-14.8-13.7-20.1-22.4c-1.1-1.8-3.1-0.8-4.9-0.3c-5,1.5-8.4,6.1-13.7,7.1c-4.3,0.8-8.4,2.2-12.4,3.9
			c-3.5,1.5-7.8,2.1-10.6-0.6c-2.9-2.7-5.9-5.5-8.7-8.4c1-3.3,3.4-6.2,2.9-9.9c1-2.6,2.1-5.2,3.1-7.7c2.8-1.9,5.8-1.2,8.8-1
			c1.3,0.4,2.6,0.8,3.9,1.2c0.5,0.7,1.2,0.8,2,0.8l-0.1,0c0.7,1.3,1.9,1.1,3,1l-0.1,0c0.7,1.3,1.9,1,3,1c0,0-0.1,0-0.1,0
			c0.7,1.3,1.9,1,3,1l-0.1,0c3.1,2.4,6.9,3.8,10.5,4.5c3.6,0.6,8.3,2.9,11.1-2.3l-0.1-0.3c2.9,0.7,4.5-2.1,7-2.7c0,0,0,0,0,0
			c1.6-0.4,3.2-0.8,4.8-1.2c2.5,2.6,4.3-0.7,6.4-0.8c3.4-0.1,6.8-0.6,10.2-0.9c3.7,3.5,7.3,7.1,11,10.6c-1.8,3.3,1.2,1.5,2.1,1.9
			c0.6,0.6,1.2,1.3,1.8,1.9c0.3,0.4,0.7,0.7,1,1.1c0,0,0-0.1,0-0.1c0.1,2.7,1.9,3.5,4.2,3.6c0,0,0,0,0,0c-0.1,1.3,0.8,1.3,1.7,1.3
			c0,0-0.1,0-0.1,0c0.3,0.3,0.7,0.7,1,1c0,0-0.1-0.1-0.1-0.1c0.3,0.3,0.7,0.7,1,1c0,0-0.1-0.1-0.1-0.1c0.3,0.3,0.7,0.7,1,1
			c0,0-0.1-0.1-0.1-0.1c0.3,0.3,0.7,0.7,1,1c0,0-0.1-0.1-0.1-0.1c0.4,0.3,0.8,0.7,1.1,1c0.3,0.3,0.6,0.6,0.8,0.8
			c1.1,2.1,2.3,3.9,4.9,4.1c0,0,0,0,0,0c1.6,4.8,5.9,6.6,9.9,8.8c0,0,0-0.1,0-0.1c1.8,4.6,5.3,3.3,8.4,2.2c4.6-1.7,9-4.3,14.2-2.1
			c0,0-0.1,0-0.1,0c0.3,0.3,0.6,0.7,0.8,1c0.1,0.3,0.2,0.6,0.2,0.9c0.5,1.9,0,4.5,3,5c0,0,0,0,0,0c0,1.4-0.2,3,2,2.9
			c0,0,0,0.1,0,0.1c0.1,1.6-0.9,3.7,2,3.9c0,0,0,0,0,0c-0.7,2.6,1.2,4.5,2.3,6.2c2.2,3.3,1.7,6-0.3,8.8c-0.4,0.6-0.7,1.1-1.1,1.7
			c-0.6,0.7-1.2,1.3-1.9,2c-0.3,0.3-0.6,0.7-1,1c0,0,0,0,0,0c-4.5,2.1-5.3,6-2,10c0.4,3.3,3.8,5.1,4,8.5c0,1.8,0.7,2.9,2.7,3
			c0.2,0.3,0.3,0.6,0.3,0.9c0.1,2.2,0,4.5,3,4.9c0,0-0.1,0-0.1,0c-0.1,1.5-0.2,3,2,3c0,0,0,0,0,0c-0.1,1.5-0.1,3,2,3c0,0,0,0,0,0
			c-0.3,2.4,0.8,4,3,4.9c0,0-0.1-0.1-0.1-0.1c0.2,2.7,1.4,4.8,4,6c0,0-0.1-0.1-0.1-0.1c0.2,2.1,0.8,4,3,5c0,0,0-0.1,0-0.1
			C458.7,248.6,459.1,252.5,463.4,253.9z"/>
		<path class="st8" d="M245.6,115.1c7.2,4.1,15,6.8,22.6,9.8c5.6,2.2,6,2.6,3.8,8c-4.1,10.1-4.1,10.2-14.1,6.5
			c-14.7-5.4-29.4-10.7-43.9-16.4c-5.7-2.2-11.6-4.9-18-5c-4.7-0.4-9.3-1-14-1.1c-17.9-0.4-35.7-0.6-53.6-0.9
			c-7.8-0.1-15.6-0.1-23.4-0.2c-1.7,0-3.7,0.5-4.4-1.9c0.1-1,0.1-1.9,0.2-2.9c0-2.3,0-4.6,0-6.9c-0.6-4.6,1.2-6.5,5.9-5.8
			c10.5,1.5,21,0.9,31.5,1c1.6,1.3,3.3,1.2,5,0.1c5.3-0.2,10.5,1.2,15.8,0.5c4.7,1.8,9.6,1.4,14.4,1.1c0.4-0.2,0.8-0.4,1.2-0.6
			c0.6,0,1.3,0,1.9,0c4.5,1.5,9.1,0.6,13.7,0.6c2-0.6,3.8,1.7,5.9,0.3c13.8-2.2,25.5,4,37.4,9.4
			C237.3,112.5,241.4,114.1,245.6,115.1z"/>
		<path class="st2" d="M100.5,114c0.7,2.4,2.7,1.9,4.4,1.9c7.8,0.1,15.6,0.1,23.4,0.2c17.9,0.2,35.7,0.5,53.6,0.9
			c4.7,0.1,9.3,0.7,14,1.1c-0.3,3.7,2.1,8,5.1,10.6c1.4,1.3,6.5,3,0.8,5.7c-8-3.2-16.4-1.1-24.5-1.9c-0.5-2.2-1.5-2.3-3-0.7
			c-9.8-0.1-19.6-0.2-29.4-0.3c0.4-3.6-1.2-4.8-4.8-4.8c-10.4,0.2-20.7,0.1-31.1,0c-3.2,0-11-6.1-11.8-9.2
			C96.6,114.7,98.2,114,100.5,114z"/>
		<path class="st1" d="M285.1,169.7c1.8,5.1-1.4,5.2-5,5c-0.7-0.3-1.5-0.9-2.2-0.9c-6,0.3-8.9-4-11.9-8c-1.5-2.1-2-4.3-0.6-6.8
			c1.2-2.2,3.1-2.1,5.1-1.9c3.1,0.2,2.6,2.7,3,4.7c0.1,0.4,0.6,0.7,0.9,1.1c2.2,1.4,4.5,2.7,6.7,4.1c0,0.3,0.1,0.5,0.1,0.8
			c0.4,0.9,1.2,1.1,2,1.1c0.3,0,0.6,0.1,0.9,0.2C284.4,169.2,284.8,169.5,285.1,169.7L285.1,169.7z"/>
		<path class="st6" d="M288.9,131.5c0.5,3.7-1.9,6.6-2.9,9.9c-1.8,3.6-3.2,7.5-5.8,10.8c-0.3,0-0.6,0-0.9,0.1
			C281.8,145,284,137.6,288.9,131.5z"/>
		<path class="st5" d="M304.7,123.9c-1.3-0.4-2.6-0.8-3.9-1.2c-2-1.9-4.6-2.2-7-3c0.6-0.3,1.3-0.9,1.7-0.8
			c6.4,2.2,13.6,2.6,18.9,7.6c-0.7,0-1.3,0-2,0.1c0,0,0.1,0,0.1,0c-0.6-1.5-2-0.7-3-1c0,0,0.1,0,0.1,0c-0.6-1.5-2-0.7-3-1
			c0,0,0.1,0,0.1,0C306.3,123.7,305.5,123.7,304.7,123.9z"/>
		<path class="st9" d="M279.3,152.2c0.3,0,0.6-0.1,0.9-0.1c0,0.7,0,1.3,0,2c-1.9,3.8-4.9,7.7,0.8,11c0.3,0.2,0.1,1.2,0.2,1.8
			c-2.2-1.4-4.5-2.7-6.7-4.1C275.3,159,277.4,155.6,279.3,152.2z"/>
		<path class="st1" d="M173.2,101c-4.9,0.3-9.7,0.7-14.4-1.1c4.9-0.8,9.7-1.3,14.6,0.3C173.3,100.5,173.3,100.8,173.2,101z"/>
		<path class="st5" d="M322.4,128.6c4.9,0,9.7,1.4,14.6,0.1c0,0.3,0,0.5-0.1,0.8c0,0,0.1,0.3,0.1,0.3c-5,0.8-10.1,2-14.9-1
			L322.4,128.6z"/>
		<path class="st1" d="M195.9,101.3c-2,1.4-3.9-0.9-5.9-0.3c-0.4-0.3-0.7-0.6-1.1-0.8C191.9,96.7,194.1,98,195.9,101.3z"/>
		<path class="st6" d="M293.8,119.8c2.4,0.8,5,1.1,7,3c-3-0.2-6.1-0.9-8.8,1C292.6,122.4,293.2,121.1,293.8,119.8z"/>
		<path class="st10" d="M189,100.2c0.4,0.3,0.7,0.6,1.1,0.8c-4.6,0.1-9.2,0.9-13.7-0.6c0,0,0-0.3,0-0.3c1,0,2,0,3,0.1
			C182.5,100.2,185.8,100.2,189,100.2z"/>
		<path class="st2" d="M336.9,129.5c0-0.3,0-0.5,0.1-0.8c1.6-3.1,4.5-1.6,6.9-1.9C341.4,127.4,339.9,130.1,336.9,129.5z"/>
		<path class="st5" d="M315.4,126.8c2.6-0.5,5.3-1.2,7,1.8c0,0-0.2,0.2-0.2,0.2c-2.2-0.4-4.5-0.8-6.7-1.2c0,0,0.1,0,0.1,0
			C315.5,127.4,315.4,127.1,315.4,126.8z"/>
		<path class="st10" d="M100.6,104.2c0,2.3,0,4.6,0,6.9C99.5,108.8,99.5,106.5,100.6,104.2z"/>
		<path class="st1" d="M179.2,100.1c-1,0-2,0-3-0.1c0.2-0.8,0.3-1.5,1.3-1.6C178.8,98.4,179.1,99.2,179.2,100.1z"/>
		<path class="st10" d="M143,99.4c-1.7,1.1-3.3,1.1-5-0.1C139.7,99.4,141.4,99.4,143,99.4z"/>
		<path class="st6" d="M315.4,126.8c0,0.3,0.1,0.6,0.1,0.9c-1.1,0-2.3,0.3-3-1c0.7,0,1.3,0,2-0.1
			C314.7,126.7,315.1,126.7,315.4,126.8z"/>
		<path class="st10" d="M173.2,101c0-0.3,0.1-0.6,0.1-0.9c0.3,0.1,0.7,0.1,1,0.2C174,100.6,173.6,100.8,173.2,101z"/>
		<path class="st11" d="M53.7,152.1c3.7-2.8,5.9-7.5,10.9-8.7c0.3,0.6,0.7,1.2,1,1.8c0,0.9,0.1,1.7,1,2l0-0.1c0,0.9,0.1,1.7,1.1,2
			l-0.1-0.1c-0.1,0.9,0.1,1.7,1,2l0-0.1c-0.1,0.9,0.1,1.7,1,2l0-0.1c0,0.9,0.1,1.6,1,2l0-0.1c-0.1,0.8,0.1,1.5,0.8,2
			c0.6,1.3,1.1,2.6,1.7,3.9c3.5,7.5,7.3,15,8.3,23.4c-0.2,5.3,1.5,10.5,1,15.8l0,0c-1.3,0.7-1,1.9-1,3c0,0,0,0,0,0
			c-0.9,0.4-1,1.2-1,2l0-0.1c-1.4,0.5-2.1,1.5-2,3c0,0,0-0.1,0-0.1c-0.9,0.4-1.1,1.1-1.1,2l0,0c-0.3,0.4-0.7,0.8-1,1.2
			c0,0.3,0,0.5-0.1,0.8c0,0,0,0,0,0c-0.3,0-0.5,0-0.8,0.1c-0.4,0.4-0.8,0.7-1.1,1.1l0.1-0.1c-0.4,0.3-0.7,0.6-1.1,1l0,0
			c-0.9,0-1.6,0.2-2,1.1c-2.3,1.3-4.6,2.5-6.8,3.8c-6.8,0-13.7,0-20.5,0c-2.3-1.1-4.4-2.6-7-2.8c-0.9-0.7-1.8-1.5-2.7-2.2
			c-0.4-0.3-0.8-0.7-1.2-1c0,0,0.1,0.1,0.1,0.1c-0.3-0.3-0.7-0.7-1-1c0,0,0.1,0.1,0.1,0.1c-0.3-0.3-0.7-0.7-1-1
			c-0.3-0.3-0.6-0.7-0.9-1c0.1-2.1-0.6-3.7-2.9-4.1c0.1-0.3,0-0.5-0.1-0.7c0-0.3,0.1-0.6,0.1-1c1.7-1.5,0.2-3-0.1-4.5
			c-1.7-7.2-1.8-13.9,2.6-20.5c4.6-6.8,10-12.8,15.8-18.5c1.3-1.3,3.3-2.3,3.1-4.7c0,0,0,0,0,0C51.4,155.9,52.6,154,53.7,152.1z"/>
		<path class="st12" d="M48.8,155.9c0.2,2.4-1.7,3.4-3.1,4.7c-5.8,5.7-11.3,11.7-15.8,18.5c-4.4,6.5-4.3,13.3-2.6,20.5
			c0.3,1.5,1.9,2.9,0.1,4.5c-0.3-0.1-0.6-0.2-1-0.3c-0.1-2.1-0.6-4-1.9-5.7c-0.1-4.2-0.2-8.4-0.3-12.7c4.6-10.7,12.5-18.9,20.7-26.9
			C46.1,157.5,46.9,155.9,48.8,155.9z"/>
		<path class="st13" d="M81.3,184.3c-1.1-8.4-4.8-15.9-8.3-23.4c-0.6-1.3-1.1-2.6-1.7-3.9c0-0.6,0-1.2,0-1.8l0.2-0.2
			c3.3,3.6,4.7,8.2,6.5,12.5c3.9,9.2,7.3,18.6,7,28.9c-0.1,3.3-0.1,6.9-3.8,8.8l-0.2-0.2c0.1-0.6,0.1-1.2,0.2-1.8c0,0,0,0,0,0
			c1.3-0.7,0.8-1.9,1-3c0,0,0,0,0,0C84.1,194.7,83.7,189.5,81.3,184.3z"/>
		<path class="st13" d="M64.7,218.7c2.3-1.3,4.6-2.5,6.8-3.8c0.7-0.2,1.6-0.2,2-1.1c0,0,0,0,0,0c0.4-0.3,0.7-0.6,1.1-1
			c0,0-0.1,0.1-0.1,0.1c0.3,0,0.6-0.1,0.9-0.1l0.1,0.1c-0.3,0.9-0.2,2.4-0.8,2.7c-8,4.3-16.1,8.8-25.7,6.7c-0.4-0.1-0.7-1-1.1-1.5
			C53.5,219.9,59.4,222.3,64.7,218.7z"/>
		<path class="st12" d="M64.7,218.7c-5.2,3.6-11.2,1.1-16.8,2.1c-0.3-0.1-0.5-0.2-0.8-0.2c-0.4-1.6-2.5-0.4-2.9-1.9
			C51,218.8,57.8,218.7,64.7,218.7z"/>
		<path class="st13" d="M65.6,145.2c-0.3-0.6-0.7-1.2-1-1.8c0.9-0.4,1.8-0.9,2.5,0.3c2,3.6,4.7,6.9,4.4,11.4c0,0-0.2,0.2-0.2,0.2
			c-0.3,0-0.5-0.1-0.8-0.2c0,0,0,0.1,0,0.1c-0.1-0.8-0.1-1.6-1-2c0,0,0,0.1,0,0.1c-0.1-0.8-0.1-1.6-1-2c0,0,0,0.1,0,0.1
			c-0.1-0.8,0-1.7-1-2c0,0,0.1,0.1,0.1,0.1c-0.1-0.8,0-1.7-1.1-2c0,0,0,0.1,0,0.1C66.6,146.4,66.7,145.5,65.6,145.2z"/>
		<path class="st13" d="M44.2,218.8c0.4,1.5,2.6,0.3,2.9,1.9c-4.1,0.1-8.1,0.1-9.9-4.7C39.8,216.1,41.9,217.6,44.2,218.8z"/>
		<path class="st13" d="M24.3,185.5c0.1,4.2,0.2,8.4,0.3,12.7C21.7,194,22.2,189.7,24.3,185.5z"/>
		<path class="st13" d="M27.4,205.7c2.4,0.4,3,2,2.9,4.1C27.8,209.6,27.6,207.7,27.4,205.7z"/>
		<path class="st13" d="M81.3,205.1c-0.1,2.2,0.1,4.5-3,4.9l-0.2-0.2c0.1-0.6,0.2-1.2,0.3-1.8c0,0,0,0.1,0,0.1c1.3-0.6,1.9-1.6,2-3
			c0,0,0,0.1,0,0.1c0.3-0.1,0.6-0.1,0.8-0.2L81.3,205.1z"/>
		<path class="st12" d="M53.7,152.1c-1.1,2-2.3,3.9-4.9,3.9C50.3,154.4,51.2,152.3,53.7,152.1z"/>
		<path class="st13" d="M75.6,211.9c0.3,0,0.5,0,0.8-0.1c-0.3,0.4-0.6,0.7-0.9,1.1c0,0-0.1-0.1-0.1-0.1
			C75.4,212.5,75.5,212.2,75.6,211.9z"/>
		<path class="st13" d="M33.3,212.8c0.4,0.3,0.8,0.7,1.2,1C34.1,213.4,33.7,213.1,33.3,212.8z"/>
		<path class="st13" d="M32.3,211.8c0.3,0.3,0.7,0.7,1,1C33,212.5,32.6,212.1,32.3,211.8z"/>
		<path class="st13" d="M76.3,211.9c0-0.3,0-0.5,0.1-0.8c0.3-0.1,0.6-0.2,0.9-0.2l0.2,0.1C77.1,211.3,76.7,211.6,76.3,211.9z"/>
		<path class="st13" d="M31.3,210.8c0.3,0.3,0.7,0.7,1,1C32,211.5,31.7,211.2,31.3,210.8z"/>
		<path class="st13" d="M78.4,210c-0.3,0.3-0.6,0.7-0.9,1c0,0-0.2-0.1-0.2-0.1c0-0.3,0.1-0.6,0.1-0.9c0,0,0,0,0,0
			c0.3-0.1,0.5-0.1,0.8-0.2C78.2,209.8,78.4,210,78.4,210z"/>
		<path class="st13" d="M26.5,203.8c0.3,0.1,0.6,0.2,1,0.3c0,0.3-0.1,0.6-0.1,1C27,204.6,26.8,204.2,26.5,203.8z"/>
		<path class="st0" d="M174.3,131.7c1.4-1.6,2.4-1.4,3,0.7C176.2,132.4,175,133.2,174.3,131.7z"/>
		<path class="st6" d="M281.1,166.9c0-0.6,0.2-1.6-0.2-1.8c-5.7-3.3-2.6-7.2-0.8-11c1.8,0.2,3.1-0.6,4.3-1.8c1.5-1.4,3.5-1.7,5-0.6
			c2.4,1.7,4.9,1.4,7.5,1.5c10,0.3,19.4-3.1,29-5.3c5.6-1.3,12.2-0.2,15.4,4.5c3.8,5.6,9.8,7.6,15.3,10.6c0.1,2,1.5,2,2.9,2
			c-0.3,2,0.7,3.6,2.2,4.6c6.3,3.8,10.4,10.1,16.3,14.5c2.8,2.1,5.3,2.8,9,1.7c5.3-1.7,11.3-3.1,16.2,1c7.3,6,10.6,15,15.1,23
			c3.5,6.3-0.8,12.1-2.8,18c-0.4,0.8-1.1,1-1.9,1c-0.5,0.2-1,0.4-1.4,0.6c0,0-0.2-0.3-0.2-0.3c1.2-2-0.5-3.1-1.7-4
			c-4.4-3.8-9.5-6.1-15.5-6.1c-4.7-0.2-9.4-0.3-13.7,1.9c-0.6,0.1-1.2,0.2-1.8,0.3c-4.2,0.8-8.3,1.9-11.8,4.5c-2.9-2-4-0.1-4.9,2.2
			l0.1,0c-4.5,0.4-8.8,1.1-11.9,4.9l0.1,0c-1.5,0.3-3.6-0.7-3.9,2c-1.6,1.9-4.1,1.7-6,2.7c-4.3-1.1-7.4,0.6-9.7,4.1c0,0,0,0,0,0
			c-2.8-0.1-5.4,0.1-6.9,3l0,0c-4.4-0.5-8.6,4.2-13.1,0.7c0,0-0.3,0.2-0.4,0.2c-5.4-8.8-10.7-17.6-16.1-26.4
			c1.9-1.4,0.2-2.6-0.4-3.7c-0.7-1.3-1.9-2.5-1.4-4c1.6-4.5,0.8-9.3,1.5-13.9c0.7-4.8,1.6-9.9-0.8-14.6c0.3-5.7-2.6-10-8.6-12.8
			c0,0,0,0,0,0c-0.2-0.5-0.4-0.9-1.1-0.8c-0.3-0.1-0.6-0.2-0.9-0.2c-0.3-1-1.3-0.9-2-1.1C281.1,167.4,281.1,167.2,281.1,166.9z"/>
		<path class="st2" d="M339.9,240.2c0,2.4,2,2.5,3.5,3.4c1.6,0.9,3.9,3.4,1.2,4.2c-4.9,1.4-7,7.2-12.5,6.9c-1.9-0.1-3.2,3.3-5.1,1.1
			c-2-2.2-5.7-3.7-4.7-7.8c1.4-1.2,3.5-1.6,4-3.8c0.2-0.2,0.4-0.3,0.6-0.2C331.8,244.8,335.9,242.5,339.9,240.2z"/>
		<path class="st5" d="M340.9,237.2c2-1,4.5-0.8,6-2.7c1.5-0.2,2.8-0.8,3.9-2c0,0-0.1,0-0.1,0c4.2-0.4,7.5-3.6,11.6-4.1l0.2,0.2
			c-2.2,2.3-3,6.2-7,6.7c-3.6,0.9-7.8-0.3-10.8,2.9c-1.6,0-3.2,0-4.8,0.1c0,0-0.2-0.2-0.2-0.2C340.1,237.8,340.5,237.5,340.9,237.2z
			"/>
		<path class="st2" d="M344.8,238.3c3-3.2,7.2-2,10.8-2.9c0,1.3,0,2.6,0,3.8c0,1.2-0.4,2.2-1.6,2.7c-1.2,0.5-2.2,0-2.9-1
			C349.6,238.5,347.3,238.2,344.8,238.3z"/>
		<path class="st9" d="M394.7,218.8c6,0,11,2.3,15.5,6.1c1.1,1,2.8,2,1.7,4c-0.4-0.2-0.9-0.3-1.3-0.5c0,0,0,0,0,0
			c-0.3-0.3-0.7-0.7-1-1c0,0,0,0,0,0c-0.3-0.3-0.7-0.7-1-1c-0.3-0.3-0.5-0.6-0.8-0.9c-0.5-0.9-1.4-0.9-2.2-1c0,0,0.1,0.1,0.1,0.1
			c-0.2-0.5-0.5-1-1.1-0.8c-0.2-0.1-0.5-0.2-0.8-0.2c-0.4-0.3-0.7-0.7-1.1-1c0,0,0,0,0,0c-0.4-0.9-1.1-1-2-0.8
			c-0.3-0.1-0.6-0.1-0.9-0.2C398.7,219.6,395.9,220.6,394.7,218.8z"/>
		<path class="st0" d="M380.1,257.8c3.9,3.2,7.6,6.5,8.6,11.8c-3.7-2.1-5.5-6.2-8.9-8.7C378.7,260,379.7,258.8,380.1,257.8z"/>
		<path class="st5" d="M394.7,218.8c1.2,1.8,4,0.9,5.1,2.9c-6.2-2.3-12.6,1-18.8-1C385.3,218.5,390,218.6,394.7,218.8z"/>
		<path class="st9" d="M310.8,245.2c0.1-0.1,0.3-0.3,0.4-0.2c4.6,3.5,8.7-1.2,13.1-0.7c-1.6,2.2-5.4,1.5-6.3,4.7
			c-1.5,0.1-2.8,1.7-4.4,0.9C313.8,247.6,311.2,247.1,310.8,245.2z"/>
		<path class="st5" d="M339.9,240.2c-4,2.2-8.1,4.6-13,3.8c1.4-0.9,2.8-1.9,4.3-2.8c0,0,0,0,0,0c2.9-1.1,5.8-2.1,8.7-3.2
			c0,0,0.2,0.2,0.2,0.2C339.9,239,339.9,239.6,339.9,240.2z"/>
		<path class="st5" d="M367.3,225.4c3.5-2.6,7.6-3.7,11.8-4.5c-3.4,3.7-8,4.9-12.7,5.7c0,0-0.2-0.2-0.2-0.2
			C366.6,226.1,367,225.8,367.3,225.4z"/>
		<path class="st5" d="M318,249c0.9-3.2,4.7-2.5,6.3-4.7c0,0,0,0,0,0c0.7,0,1.3,0,2,0c-0.5,2.2-2.6,2.6-4,3.8
			C320.9,248.4,319.4,248.7,318,249z"/>
		<path class="st0" d="M390,272.5c1.7,1.6,0.2,4.2,1.6,5.9c-2.2,0.3-3.1-1.2-3.5-3C387.7,273.9,388.1,272.7,390,272.5z"/>
		<path class="st5" d="M366.4,226.6c-0.4,2.4-2.4,1.7-3.9,2c0,0-0.2-0.2-0.2-0.2c0.1-0.3,0.1-0.5,0.2-0.8c0,0-0.1,0-0.1,0
			c1.3-0.4,2.5-0.8,3.8-1.2L366.4,226.6z"/>
		<path class="st14" d="M350.8,249.2c0,0.5,0.1,1,0.1,1.5"/>
		<path class="st5" d="M405.6,224.5c0.8,0.2,1.7,0.2,2.2,1C406.8,225.6,406,225.4,405.6,224.5z"/>
		<path class="st5" d="M400.6,221.8c0.9-0.2,1.6-0.1,2,0.8C401.8,222.7,401.1,222.5,400.6,221.8z"/>
		<path class="st5" d="M402.6,222.6c0.4,0.3,0.7,0.7,1.1,1C403.4,223.3,403,222.9,402.6,222.6z"/>
		<path class="st5" d="M404.5,223.7c0.7-0.2,1,0.3,1.1,0.8C405.3,224.3,404.9,224,404.5,223.7z"/>
		<path class="st3" d="M325.2,265.9c0,0.3,0,0.6-0.1,0.9c-0.2-0.3-0.4-0.5-0.7-0.8C324.7,266,325,266,325.2,265.9z"/>
		<path class="st2" d="M408.5,226.5c0.3,0.3,0.7,0.7,1,1C409.2,227.1,408.9,226.8,408.5,226.5z"/>
		<path class="st2" d="M409.5,227.5c0.3,0.3,0.7,0.7,1,1C410.2,228.1,409.8,227.8,409.5,227.5z"/>
		<path class="st11" d="M100.7,260.8c0.4,1.3,0.8,2.6,1.3,3.9c-0.7,1.5,1.2,2.3,0.9,3.7c0.3,0.4,0.6,0.8,0.8,1.1
			c0.1,0.3,0.2,0.6,0.2,0.9c0,1.1-0.3,2.4,1.1,3l-0.1-0.1c0,1.6-0.8,3.5,1.7,4.1c0.1,0.3,0.2,0.5,0.2,0.8c0.2,2.1-0.8,4.7,2,6l0,0
			c0.2,1.7-0.7,3.6,1.1,4.9l0-0.1c0,3.3,0,6.7,0,10c0.1,3.3-3.6,4.6-4.2,7.6c0,0,0,0,0,0c-2.9,1.4-5.7,2.7-8.6,4.1
			c-6.2,1.1-11.8-1.8-17.6-2.9c-1.7-1.7-3.3-3.4-5-5c0-0.8-0.3-1.5-1.2-1.8l0,0c-1-5.9-1.1-11.9,0.1-17.8c0,0,0,0.1,0,0.1
			c1.4,0.1,2.1-0.6,2-2l0,0c2.6-0.1,2.8-2,3-3.9c0.1-0.6,0.1-1.1,0.2-1.7c0,0,0,0,0,0c0.3-0.3,0.7-0.7,1-1c0,0,0,0,0,0
			c0.3-0.3,0.7-0.7,1-1c0,0,0,0,0,0c0.3-0.3,0.6-0.7,1-1c0,0,0,0,0,0c0.3-0.3,0.6-0.6,1-1c0,0,0,0,0,0c0.3-0.3,0.6-0.6,1-1
			c0,0,0,0,0,0c0.3-0.3,0.7-0.7,1-1c0,0,0,0,0,0c0.3-0.3,0.7-0.7,1-1c0,0,0,0,0,0c0.3-0.3,0.7-0.7,1-1c0,0,0,0,0,0
			c0.3-0.3,0.7-0.7,1-1c0,0,0,0,0,0c3.5-1.6,6.4-3.9,8.8-6.9c0,0,0,0,0,0C98.1,257.8,98.9,261.6,100.7,260.8z"/>
		<path class="st13" d="M103.8,270.5c0-0.3,0-0.6-0.2-0.9c0.2-0.7-0.3-0.9-0.8-1.1c0.4-1.4-1.6-2.2-0.9-3.7c0.6,0,1.2,0,1.8,0
			c0.4,2.2,1.3,4.2,2.9,5.9c1.7,5.5,3.4,11.1,5,16.6c1.5,5.3,1.7,10.5-1.2,15.5c-1.1,2-2.3,4-5,4c0.6-3,4.3-4.2,4.2-7.6
			c1.6-3.3,1.7-6.7,0-10c0,0,0,0.1,0,0.1c-0.5-1.6,0.8-3.6-1.1-4.9c0,0,0,0,0,0c-0.1-2.2-0.4-4.3-2-6c0-0.3-0.1-0.6-0.2-0.8
			c0.1-1.7-0.5-3-1.7-4.1c0,0,0.1,0.1,0.1,0.1C104.8,272.4,105.1,271.2,103.8,270.5z"/>
		<path class="st1" d="M106.7,270.6c-1.6-1.6-2.5-3.6-2.9-5.9c1.3-2.9,3.2-5.1,6.7-3.6c2.5,1.1,2.4,3.8,2,6
			C111.9,270.3,108.9,269.8,106.7,270.6z"/>
		<path class="st12" d="M79.4,307.8c5.8,1.2,11.4,4.1,17.6,2.9c-0.8,1.9-3.3,0-4.1,1.9c-3.9,1.1-7-1.9-10.6-2
			C81.8,309.3,79.4,309.8,79.4,307.8z"/>
		<path class="st12" d="M73.3,283.2c-1.2,5.9-1.1,11.9-0.1,17.8c-0.6-0.8-1.2-1.5-1.7-2.3c0.1-0.3,0-0.5-0.1-0.8
			c-1.5-4.2-1-8.4,0.3-12.6c0,0-0.1,0.1-0.1,0.1c1-0.4,0.8-1.3,1-2.1C72.8,283.3,73.1,283.3,73.3,283.2z"/>
		<path class="st13" d="M79.4,307.8c0,2,2.4,1.5,2.9,2.9c-5.2,0-7.8-3-9-7.7c0,0,0.2-0.2,0.2-0.2l0.5,0.1l0.5-0.1
			C76.1,304.4,77.7,306.1,79.4,307.8z"/>
		<path class="st13" d="M92.9,312.6c0.8-1.9,3.3,0,4.1-1.9c2.9-1.4,5.7-2.7,8.6-4.1C103.4,312.9,98.1,312.6,92.9,312.6z"/>
		<path class="st13" d="M96,259.9c-2.4,3-5.3,5.3-8.8,6.9c0-0.7,0-1.3-0.1-2C90.1,263.2,91.6,258.8,96,259.9z"/>
		<path class="st13" d="M71.6,285.4c-1.3,4.2-1.7,8.4-0.3,12.6c-2.6-0.4-1.7-2.4-1.9-3.9C70.2,291.2,67.7,287.5,71.6,285.4z"/>
		<path class="st13" d="M100.7,260.8c-1.8,0.8-2.7-3-4.7-0.9c-0.1-1.6,0-3.1,2.2-2.9C100.6,257.2,100.9,258.9,100.7,260.8z"/>
		<path class="st13" d="M71.5,298.8c0.6,0.8,1.2,1.5,1.7,2.3c0,0,0,0,0,0c0.1,0.6,0.2,1.2,0.3,1.8c0,0-0.2,0.2-0.2,0.2
			C70.8,302.4,71.6,300.4,71.5,298.8z"/>
		<path class="st9" d="M293.7,182.5c2.4,4.8,1.5,9.9,0.8,14.6c-0.7,4.6,0.1,9.4-1.5,13.9c-0.5,1.5,0.7,2.7,1.4,4
			c0.6,1.1,2.3,2.3,0.4,3.7c-1.6-2.8-4.3-5-3.8-8.7c2-3.8,0.6-7.9,0.8-11.8c0.1-0.3,0.2-0.6,0.2-0.9c1.9-2.5,0.7-5.2,0.8-7.9
			C293.4,187.1,291.9,184.6,293.7,182.5z"/>
		<path class="st5" d="M291.7,198.2c-0.2,3.9,1.2,8-0.8,11.8C291.3,206.1,290.1,202.1,291.7,198.2z"/>
		<path class="st5" d="M292.8,189.4c-0.2,2.6,1.1,5.4-0.8,7.9C292.2,194.6,291.1,191.9,292.8,189.4z"/>
		<path class="st12" d="M78.3,277.3c-0.3,1.9-0.4,3.8-3,3.9c0.1-0.6,0.2-1.2,0.3-1.8c0.3-0.3,0.6-0.6,0.9-0.9
			C77,278.1,77.6,277.7,78.3,277.3z"/>
		<path class="st13" d="M78.3,277.3c-0.6,0.4-1.3,0.8-1.9,1.3c0-1.5-0.1-3,2.1-3C78.4,276.2,78.3,276.7,78.3,277.3z"/>
		<path class="st13" d="M75.5,279.4c-0.1,0.6-0.2,1.2-0.3,1.8c0,0,0,0,0,0c-0.6,0.4-1.2,0.8-1.8,1.2
			C73.4,280.9,73.4,279.5,75.5,279.4z"/>
		<path class="st12" d="M73.4,282.5c0.6-0.4,1.2-0.8,1.8-1.2c0.1,1.4-0.5,2.1-2,2C73.4,283,73.4,282.7,73.4,282.5z"/>
		<path class="st13" d="M72.5,283.3c-0.2,0.7,0.1,1.7-1,2.1C71.5,284.5,71.6,283.7,72.5,283.3z"/>
		<path class="st13" d="M83.3,270.7c-0.3,0.3-0.6,0.6-1,1C82.6,271.3,83,271,83.3,270.7z"/>
		<path class="st13" d="M87.2,266.8c-0.3,0.3-0.7,0.7-1,1C86.6,267.4,86.9,267.1,87.2,266.8z"/>
		<path class="st13" d="M86.2,267.7c-0.3,0.3-0.7,0.7-1,1C85.6,268.4,85.9,268.1,86.2,267.7z"/>
		<path class="st13" d="M85.3,268.7c-0.3,0.3-0.7,0.7-1,1C84.6,269.4,84.9,269,85.3,268.7z"/>
		<path class="st13" d="M79.4,274.6c-0.3,0.3-0.7,0.7-1,1C78.7,275.3,79.1,274.9,79.4,274.6z"/>
		<path class="st13" d="M80.4,273.6c-0.3,0.3-0.7,0.7-1,1C79.7,274.3,80,273.9,80.4,273.6z"/>
		<path class="st13" d="M81.3,272.6c-0.3,0.3-0.6,0.7-1,1C80.7,273.3,81,273,81.3,272.6z"/>
		<path class="st13" d="M82.3,271.7c-0.3,0.3-0.6,0.6-1,1C81.7,272.3,82,272,82.3,271.7z"/>
		<path class="st13" d="M84.3,269.7c-0.3,0.3-0.7,0.7-1,1C83.6,270.3,84,270,84.3,269.7z"/>
		<path class="st6" d="M430.2,162.9c-5.2-2.2-9.6,0.4-14.2,2.1c-3.1,1.2-6.6,2.4-8.4-2.2c5.1,0.6,9.8-0.3,14.6-2.2
			C424.9,159.6,428.6,158.2,430.2,162.9z"/>
		<path class="st6" d="M365.3,123.9c-3.4,0.3-6.8,0.7-10.2,0.9c-2.2,0.1-4,3.4-6.4,0.8C354.1,124.4,359.2,118.7,365.3,123.9z"/>
		<path class="st6" d="M439.9,191.5c2.1-2.9,2.5-5.5,0.3-8.8c-1.1-1.7-2.9-3.6-2.3-6.2c3.5,2.4,4.7,6.2,5.7,9.9
			c0.7,2.4-1,3.8-2.8,5.1C440.6,191.5,440.2,191.5,439.9,191.5z"/>
		<path class="st6" d="M407.6,162.9c-4-2.2-8.3-4-9.9-8.8C401.9,156,405.6,158.5,407.6,162.9z"/>
		<path class="st4" d="M463.4,253.9c-4.3-1.4-4.8-5.3-5.9-8.8c3.8,1.3,4.6,4.8,5.9,7.9C463.5,253.3,463.4,253.6,463.4,253.9z"/>
		<path class="st5" d="M433.9,206.2c-3.2-4-2.5-7.8,2-10C434.2,199.3,433.6,202.7,433.9,206.2z"/>
		<path class="st6" d="M443.9,223.5c-3-0.4-3-2.7-3-4.9C442.6,219.8,443.6,221.4,443.9,223.5z"/>
		<path class="st6" d="M385.4,142.9c-2.3-0.1-4.1-0.9-4.2-3.6C383.1,139.9,384.6,141,385.4,142.9z"/>
		<path class="st6" d="M454.7,240.2c-2.6-1.2-3.7-3.2-4-6C452.7,235.8,453.9,237.9,454.7,240.2z"/>
		<path class="st6" d="M434.1,169.7c-2.9-0.5-2.4-3.1-3-5C433,165.9,433.7,167.7,434.1,169.7z"/>
		<path class="st6" d="M450.8,234.3c-2.2-0.9-3.3-2.5-3-4.9C449.5,230.6,450.3,232.3,450.8,234.3z"/>
		<path class="st6" d="M397.8,154.1c-2.6-0.1-3.9-2-4.9-4.1C395.2,150.5,396.6,152.2,397.8,154.1z"/>
		<path class="st6" d="M457.6,245.1c-2.2-1-2.8-2.8-3-5C456.5,241.3,457.1,243.2,457.6,245.1z"/>
		<path class="st6" d="M438,176.6c-2.9-0.2-1.9-2.3-2-3.9C437.2,173.7,437.8,175,438,176.6z"/>
		<path class="st6" d="M445.8,226.5c-2.2,0-2.1-1.5-2-3C445.2,224,445.7,225.1,445.8,226.5z"/>
		<path class="st6" d="M378.3,136.4c-0.9-0.4-3.9,1.4-2.1-1.9C377,135.1,377.7,135.8,378.3,136.4z"/>
		<path class="st6" d="M447.8,229.4c-2.1,0-2.1-1.5-2-3C447.2,227,447.7,228.1,447.8,229.4z"/>
		<path class="st6" d="M440.6,217.7c-1.9-0.1-2.7-1.2-2.7-3C439.1,215.4,440.2,216.3,440.6,217.7z"/>
		<path class="st6" d="M436,172.6c-2.2,0.1-2-1.5-2-2.9C434.7,170.7,435.3,171.6,436,172.6z"/>
		<path class="st5" d="M439.9,191.5c0.3,0,0.7,0,1,0c-0.1,1.3-0.9,1.8-2.1,1.7C439.1,192.6,439.5,192.1,439.9,191.5z"/>
		<path class="st6" d="M387,144.3c-0.9,0-1.8,0-1.7-1.3C386.3,142.9,386.7,143.5,387,144.3z"/>
		<path class="st6" d="M381.2,139.4c-0.3-0.4-0.7-0.7-1-1.1C380.5,138.7,380.8,139,381.2,139.4z"/>
		<path class="st6" d="M430.9,163.9c-0.3-0.3-0.6-0.7-0.8-1C430.4,163.2,430.6,163.5,430.9,163.9z"/>
		<path class="st6" d="M388,145.3c-0.3-0.3-0.7-0.7-1-1C387.3,144.6,387.7,144.9,388,145.3z"/>
		<path class="st6" d="M390,147.2c-0.3-0.3-0.7-0.7-1-1C389.3,146.5,389.6,146.9,390,147.2z"/>
		<path class="st6" d="M389,146.3c-0.3-0.3-0.7-0.7-1-1C388.3,145.6,388.6,145.9,389,146.3z"/>
		<path class="st6" d="M392,149.2c-0.4-0.3-0.8-0.7-1.1-1C391.3,148.5,391.6,148.8,392,149.2z"/>
		<path class="st6" d="M391,148.2c-0.3-0.3-0.7-0.7-1-1C390.3,147.5,390.6,147.9,391,148.2z"/>
		<path class="st5" d="M436,196.2c0.3-0.3,0.6-0.7,1-1C436.6,195.5,436.3,195.9,436,196.2z"/>
		<path class="st6" d="M422.3,244.2c4.9,3.7,7.2,8.9,8.7,14.6C427.3,254.5,423.4,250.2,422.3,244.2z"/>
		<path class="st6" d="M415.3,231.4c1.6,1.3,2.1,3,1.9,5c-1-1.6-2.8-2.9-3.1-5C414.6,231.4,415,231.4,415.3,231.4z"/>
		<path class="st6" d="M417.2,236.4c1.5,0.5,2.1,1.5,2,3C418,238.8,417.2,237.8,417.2,236.4z"/>
		<path class="st9" d="M415.3,231.4c-0.4,0-0.8,0-1.1,0c-0.3-0.3-0.6-0.6-0.9-0.9C414.1,230.6,414.9,230.6,415.3,231.4z"/>
		<path class="st9" d="M412,229.2c0.5-0.2,1-0.4,1.4-0.6c-0.1,0.7-0.1,1.4-0.2,2C412.9,230.1,412.5,229.6,412,229.2z"/>
		<path class="st6" d="M419.1,239.3c0.9,0.3,1.1,1,1.1,1.8C419.1,241,419.3,240.1,419.1,239.3z"/>
		<path class="st6" d="M462.4,310.7c2,3.2,4.3,5.2,8.1,2.2c0.6-0.5,1.9-0.1,2.8-0.1c-2,1.2-4.1,2.4-6.1,3.6c-0.9,0-1.8,0.1-2.7,0.1
			c-0.3-0.3-0.7-0.6-1-1c-0.4-0.9-0.7-1.8-1.1-2.8C462.4,312.1,462.4,311.4,462.4,310.7z"/>
		<path class="st6" d="M479.1,309.8c0.7-1.9,2.2-2.2,4-2c-0.4,0.6-0.8,1.2-1.2,1.8C480.9,309.7,480,309.8,479.1,309.8z"/>
		<path class="st6" d="M475.2,311.9c0.6-2.1,2.2-2.2,3.9-2.1C478,310.9,476.7,311.6,475.2,311.9z"/>
		<path class="st6" d="M473.2,312.8c0.3-1.1,1.1-1.1,2-1C474.8,312.6,474,312.8,473.2,312.8z"/>
		<path class="st6" d="M483,307.9c0.4-0.9,1.2-1,2-1C484.7,307.9,483.8,307.7,483,307.9z"/>
		<path class="st6" d="M484.9,306.9c0.4-0.9,1.2-1,2-1C486.6,306.9,485.7,306.8,484.9,306.9z"/>
		<path class="st6" d="M486.9,305.9c0.4-0.9,1.2-1,2-1C488.6,305.9,487.7,305.8,486.9,305.9z"/>
		<path class="st6" d="M490.9,297c-2.1,0-2.1-1.5-2-3c0.6,0.4,1.1,0.8,1.7,1.2C490.7,295.8,490.8,296.4,490.9,297z"/>
		<path class="st6" d="M491.9,299c-0.9-0.4-1-1.2-1-2C491.9,297.3,491.8,298.2,491.9,299z"/>
		<path class="st6" d="M487,291.1c-1.5-0.4-2.1-1.5-2-3c0.6,0.4,1.2,0.7,1.9,1.1C486.9,289.8,487,290.5,487,291.1z"/>
		<path class="st6" d="M488.9,294c-2.1,0-2.1-1.5-2-3c0.6,0.4,1.1,0.8,1.7,1.2C488.8,292.9,488.8,293.5,488.9,294z"/>
		<path class="st6" d="M464.4,255.9c-0.2-0.2-0.4-0.4-0.5-0.6c0,0,0.2-0.2,0.3-0.3C464.3,255.3,464.4,255.6,464.4,255.9z"/>
		<path class="st4" d="M356.6,162.9c-5.4-3-11.5-5.1-15.3-10.6c-3.2-4.6-9.8-5.8-15.4-4.5c-9.5,2.3-18.9,5.7-29,5.3
			c-2.6-0.1-5.1,0.2-7.5-1.5c-1.5-1-3.5-0.8-5,0.6c-1.2,1.2-2.5,2.1-4.3,1.8c0-0.7,0-1.3,0-2c2.6-3.2,4-7.1,5.8-10.8
			c2.8,2.9,5.8,5.6,8.7,8.4c2.9,2.7,7.2,2.1,10.6,0.6c4-1.8,8.1-3.1,12.4-3.9c5.3-1,8.7-5.6,13.7-7.1c1.8-0.5,3.8-1.5,4.9,0.3
			c5.3,8.8,14.1,14.3,20.1,22.4C356.5,162.2,356.5,162.6,356.6,162.9z"/>
		<path class="st4" d="M415.4,227.5c2-5.8,6.3-11.7,2.8-18c-4.4-8-7.7-17-15.1-23c-4.9-4-10.8-2.6-16.2-1c-3.6,1.1-6.1,0.5-9-1.7
			c-5.8-4.4-10-10.6-16.3-14.5c-1.6-1-2.5-2.6-2.2-4.6c5.9,3.7,11.7,7.5,17.6,11.2c0.8,0.5,2,0.8,2.4,1.6c4.1,7.5,11,4.9,16.9,4.3
			c5.9-0.6,9.4,0.7,12.4,6c4.2,7.5,8.7,14.7,12.3,22.5C423.9,216.5,420.9,226.3,415.4,227.5z"/>
		<path class="st6" d="M315.4,127.6c2.2,0.4,4.5,0.8,6.7,1.2c4.8,3,9.8,1.8,14.9,1c-2.7,5.2-7.5,2.9-11.1,2.3
			C322.4,131.4,318.6,130,315.4,127.6z"/>
		<path class="st6" d="M309.5,125.7c1,0.3,2.4-0.4,3,1C311.4,126.7,310.2,127,309.5,125.7z"/>
		<path class="st6" d="M306.6,124.7c1,0.3,2.4-0.4,3,1C308.5,125.7,307.3,126,306.6,124.7z"/>
		<path class="st6" d="M304.7,123.9c0.8-0.2,1.6-0.3,2,0.8C305.9,124.7,305.2,124.7,304.7,123.9z"/>
		<path class="st2" d="M281.2,167.7c0.8,0.2,1.7,0.1,2,1.1C282.3,168.8,281.5,168.6,281.2,167.7z"/>
		<path class="st2" d="M284.1,168.9c0.7-0.1,0.9,0.3,1.1,0.8C284.8,169.5,284.4,169.2,284.1,168.9z"/>
		<path class="st12" d="M81.3,184.3c2.4,5.1,2.8,10.4,1,15.8C82.8,194.8,81.1,189.6,81.3,184.3z"/>
		<path class="st12" d="M80.3,205c-0.1,1.4-0.7,2.4-2,3C78.3,206.5,79,205.6,80.3,205z"/>
		<path class="st12" d="M82.3,200.1c-0.2,1.1,0.3,2.3-1,3C81.3,202,81,200.8,82.3,200.1z"/>
		<path class="st12" d="M66.6,147.2c1,0.3,1,1.2,1.1,2C66.7,148.8,66.6,148.1,66.6,147.2z"/>
		<path class="st12" d="M67.6,149.1c1,0.4,1,1.2,1,2C67.7,150.8,67.6,150,67.6,149.1z"/>
		<path class="st12" d="M78.2,209.8c-0.3,0.1-0.5,0.1-0.8,0.2c0-0.9,0.2-1.6,1.1-2C78.3,208.6,78.2,209.2,78.2,209.8z"/>
		<path class="st12" d="M68.6,151.1c0.9,0.4,0.9,1.2,1,2C68.6,152.7,68.5,152,68.6,151.1z"/>
		<path class="st12" d="M69.5,153.1c0.9,0.4,0.9,1.2,1,2C69.6,154.7,69.5,153.9,69.5,153.1z"/>
		<path class="st12" d="M70.5,155c0.3,0.1,0.5,0.2,0.8,0.2c0,0.6,0,1.2,0,1.8C70.6,156.6,70.5,155.8,70.5,155z"/>
		<path class="st12" d="M65.6,145.2c1,0.3,0.9,1.2,1,2C65.7,146.9,65.6,146.1,65.6,145.2z"/>
		<path class="st12" d="M81.1,204.9c-0.3,0-0.6,0.1-0.8,0.2c0-0.9,0.1-1.6,1-2C81.3,203.7,81.2,204.3,81.1,204.9z"/>
		<path class="st12" d="M73.5,213.8c-0.4,0.9-1.2,0.9-2,1.1C71.8,214,72.6,213.8,73.5,213.8z"/>
		<path class="st12" d="M74.5,212.9c-0.4,0.3-0.7,0.6-1.1,1C73.8,213.5,74.2,213.2,74.5,212.9z"/>
		<path class="st12" d="M75.6,211.9c-0.1,0.3-0.2,0.6-0.2,0.9c-0.3,0.1-0.6,0.1-0.9,0.1C74.8,212.6,75.2,212.3,75.6,211.9z"/>
		<path class="st12" d="M77.4,209.9c0,0.3,0,0.6-0.1,0.9c-0.3,0.1-0.6,0.2-0.9,0.2C76.7,210.7,77.1,210.3,77.4,209.9z"/>
		<path class="st9" d="M339.8,238.1c-2.9,1.1-5.8,2.1-8.7,3.2c2.3-3.6,5.4-5.2,9.7-4.1C340.5,237.5,340.1,237.8,339.8,238.1z"/>
		<path class="st9" d="M362.6,227.6c-0.1,0.3-0.1,0.5-0.2,0.8c-4.2,0.5-7.4,3.7-11.6,4.1C353.8,228.7,358.1,228,362.6,227.6z"/>
		<path class="st9" d="M326.3,244.3c-0.7,0-1.3,0-2,0c1.5-2.8,4.1-3.1,6.9-3c-1.4,0.9-2.8,1.9-4.3,2.8
			C326.7,244,326.4,244.1,326.3,244.3z"/>
		<path class="st9" d="M366.3,226.4c-1.3,0.4-2.5,0.8-3.8,1.2c0.9-2.3,2-4.3,4.9-2.2C367,225.8,366.6,226.1,366.3,226.4z"/>
		<path class="st9" d="M350.8,232.5c-1,1.1-2.3,1.8-3.9,2C347.1,231.7,349.3,232.8,350.8,232.5z"/>
		<path class="st12" d="M109.7,289.1c1.7,3.3,1.6,6.7,0,10C109.7,295.8,109.7,292.4,109.7,289.1z"/>
		<path class="st12" d="M106.7,278.3c1.6,1.7,1.9,3.8,2,6C105.9,283,106.9,280.5,106.7,278.3z"/>
		<path class="st12" d="M104.9,273.4c1.1,1.1,1.8,2.5,1.7,4.1C104.1,276.9,104.9,275,104.9,273.4z"/>
		<path class="st12" d="M108.7,284.2c1.8,1.3,0.6,3.3,1.1,4.9C108,287.8,108.9,285.9,108.7,284.2z"/>
		<path class="st12" d="M103.8,270.5c1.2,0.7,1,1.9,1.1,3C103.5,272.9,103.8,271.6,103.8,270.5z"/>
		<path class="st12" d="M73.5,302.8c-0.1-0.6-0.2-1.2-0.3-1.8c0.9,0.2,1.1,0.9,1.2,1.8c0,0-0.5,0.1-0.5,0.1L73.5,302.8z"/>
		<path class="st12" d="M102.8,268.5c0.5,0.2,1,0.4,0.8,1.1C103.4,269.2,103.1,268.9,102.8,268.5z"/>
	</g>
</g>
</svg>
