<?xml version="1.0" encoding="utf-8"?>
<!-- Generator: Adobe Illustrator 27.1.1, SVG Export Plug-In . SVG Version: 6.00 Build 0)  -->
<svg version="1.1" id="Layer_1" xmlns="http://www.w3.org/2000/svg" xmlns:xlink="http://www.w3.org/1999/xlink" x="0px" y="0px"
	 viewBox="0 0 512 512" style="enable-background:new 0 0 512 512;" xml:space="preserve">
<style type="text/css">
	.st0{fill:#294369;}
	.st1{fill:#2D456B;}
	.st2{fill:#FBFBFC;}
	.st3{fill:#C49882;}
	.st4{fill:#A3BFC1;}
	.st5{fill:#BB6947;}
	.st6{fill:#CD7B51;}
	.st7{fill:#C1D0E3;}
	.st8{fill:#D4E0F1;}
	.st9{fill:#DD8A59;}
	.st10{fill:#F1CD6E;}
	.st11{fill:#9D7A6B;}
	.st12{fill:#B27252;}
	.st13{fill:#4B88C7;}
	.st14{fill:#788E90;}
</style>
<g id="xd0sLh.tif">
	<g>
		<path class="st0" d="M5.8,332.3c1-0.4,2.2-1.3,1.9-2c-2.2-4.1,2.1-7.9,0.2-12c-0.9-2,1.5-3.1,2.3-4.6c1.4-2.6,2.3-5.2,1.4-8
			c-0.6-1.8,0-3.2,0.7-4.4c3.3-5.7,2.7-13.5,9.2-17.5c-1.1-4.5,2.3-7.3,4-10.7c2.8-5.6,7.8-9.4,11.4-14.4c10-13.9,23.5-23.1,38.5-31
			c12.6-6.6,25.7-10.8,39.4-13c11.7-1.9,23.8-2.7,35.7,0.6c1.8,0.5,3.9,0.1,6.7,0.1c-4.9-7.2-9.2-13.8-13.7-20.2
			c-9.3-13.5-18.8-27-28.1-40.5c-11.8-17.1-23.5-34.4-35.5-51.4c-13.2-18.6-5.1-45.5,13-54.8c14.3-7.3,32.4-5.6,43.6,4.4
			c1.9,1.7,3.3,3.6,4.5,5.8c0.4,1.4,1.5,2.3,2.7,3c11.3,14.3,21.1,29.6,31.4,44.6c6.4,9.3,13.1,18.4,19.6,27.5c0,0.3,0,0.5,0,0.8
			c8.5,12.3,17,24.7,25.6,37c7.9,11.3,16.3,22.3,23.6,33.9c5.1,8.1,11.2,15.5,16.1,23.7c4.5,7.5,10.2,14.1,14.8,21.6
			c5.2,8.5,7.5,17,6.1,27.2c-1.2,8.5,3.2,16.2,9.3,22.2c4.1,4,11.1,2.1,13.4-3c6.4-14.1,12.6-28.4,19.4-42.4c1.6-3.3,1-4.8-1.4-6.9
			c-12.3-11.1-21-24.8-26.4-40.4c-5.9-16.9-8.1-34.5-6.3-52.2c0.8-7.5,0.7-15.3,2.7-22.7c6.2-22.9,15-44.5,29.3-63.6
			c13.1-17.6,29.4-31.8,48.7-42.2c10.7-5.7,22.5-8.9,34.4-11.1c0.7-0.1,1.3-0.2,1.5-1c1.7,0,3.3,0,5,0c1.7,1.5,3.3,1.5,5,0
			c1.7,0,3.3,0,5,0c1,1.3,2,1.3,3,0c1.7,0,3.3,0,5,0c0.9,1.2,2.2,1.8,3.7,2c20.7,2.6,37,12.8,50.4,28.4c8.6,10,14.2,21.5,18.2,34.1
			c4.3,13.3,6.2,26.9,6.6,40.7c0.2,7.2-1.8,14.2-2.4,21.3c-1,11.4-4.3,22.4-8.5,33.3c-12.2,31.9-32.1,57.6-60.4,76.8
			c-9.8,6.6-20.4,11.8-31.6,14.8c-13.1,3.4-26.7,5.2-40.4,2.4c-0.8-0.2-2.3-0.6-2.5,0.8c-0.3,2.7-2.9,4.4-3.2,7.1
			c-0.5,0.2-1,0.4-0.8,1.1c-1.4,3.4-2.9,6.8-4.6,10c-2.6,5.1-4.5,10.5-6.7,15.8c-1.2,0.7-1.4,1.3,0.1,1.9c8.5,1.2,16.8-0.6,25.2-1
			c15.4-0.6,30.8-2.6,46.3-3c5.5-0.1,11.3,0,16.7-1.1c9.1-1.8,17.3-0.3,24.8,5c6.9,4.9,13.6,10.1,20.4,15.2
			c7.7,5.7,7.4,12.8-0.7,18.1c-8.1,5.2-16,10.7-24.2,15.6c-3.1,1.9-2.7,2.9-0.6,5c7.3,7.2,14.7,14.4,22.2,21.4
			c7.8,7.2,5.8,15.2-3.9,19.1c-11.5,4.6-22.9,9.6-34.5,14.5c6.6,9.5,13.2,18.6,19.2,28c4.7,7.3,1.7,14-6.6,16.2
			c-6.1,1.6-12.2,3.4-18.3,5c-8,2-16,4.9-24.2,1c-2.8-1.3-5.7-2.5-8.3-4.1c-1.6-1-3-1.3-3.9,0.2c-4.3,6.8-11.7,9.8-17.8,14.3
			c-14.6,10.9-25.3,12-39.1,1.6c-7.8-5.8-10-16.1-2.6-23.5c2-1.9,1.1-3.2,0-4.8c-7.5-10.8-15-21.7-22.6-32.5
			c-4.9-6.9-12.4-8.5-21.3-10.6c21.4,14.9,25.9,38.8,17.1,57.8c-8.9,19.4-31.5,29.7-52.4,24.5c-10.2-2.5-18.7-8.7-24.5-17.2
			C225,458,222.3,444.6,226,430c-5,5.6-11.2,9.5-16.9,13.9c-15.9,12.3-34.4,19.5-54.1,23c-10.7,1.9-21.6,2.9-32.8,1.5
			c-12.3-1.6-24.1-4.5-35.6-8.8c-12.1-4.5-22.7-11.7-33-19.6c-14.9-11.4-24.8-26.3-34-42c-1.8-3.1-2.3-6.7-3.8-9.9
			c-5.5-11.7-9.2-23.6-8.1-36.7c0.1-1.6-0.7-2.4-2-3.1C5.8,343,5.8,337.6,5.8,332.3z M250.5,286.4L250.5,286.4
			c1.8,5.1,3.6,10.2,5.5,15.3c1,2.7,0.6,7.2,3.2,7.6c2.1,0.4,4.9-2.9,7.4-4.5c1.9-0.6,3.7-1.3,5.7-1.8c3.3-0.8,3.9-2.2,1.7-5
			c-1.9-2.3-3.4-4.8-3.6-8c-0.2-5.3-0.7-10.6-0.7-15.8c0-5.4-1-10.5-3.7-15c-9.4-15.3-20.4-29.7-30.3-44.7
			c-8.8-13.3-17.8-26.4-26.8-39.5c-8.1-11.8-16.5-23.6-24.9-35.3c-17.3-24.2-33.6-49-50.7-73.3c-3.1-4.4-7-9-13.5-9
			c-2.4-3.1-6.1-1.3-9-2.2c-0.1-0.6-0.3-1.4-1.1-1.2c-1.3,0.3-0.8,1.5-0.9,2.4c-3.3,0.2-6.4,0.5-9.5,2c-8.1,4-11.3,11.4-14.4,19.1
			c-1.6,1.4-1.5,2.4,0.6,3c1.8,3.8-0.5,8.1,1.8,11.8c5.5,8.9,11.5,17.6,17.3,26.2c4,6,7.7,12.7,13.1,18c3,3,4,8.4,6.7,11
			c6.3,6.2,9.9,14.2,15.3,21c7.3,9.2,13.5,19.2,20.2,28.9c4.6,6.7,9.4,13.3,13.7,20.2c1.2,2,2.5,3.7,4.5,4.2c4.1,1,5.4,3.4,4.5,7.3
			c-1.8,2.1-3.9,4.1-6.8,3.1c-5.1-1.6-10.6-2-15.2-5.2c-3.2-2.2-8.8,0.5-8.8,4.2c0.1,10.8-0.8,21.7,2.9,32.2
			c3.5,9.9,8.1,19.1,14.3,27.6c2.1,2.9,3.6,2.9,6.1,0.3c11.3-11.5,22.7-22.9,34.2-34.2c2.1-2.1,1.9-3.1-0.2-5
			c-2.4-2.1-3.6-4.8-1.3-7.9c1.8-2.3,4.4-1.9,6.9-2.2c1.8,0.2,2.9,1.5,4.1,2.6c12.7,11.6,23.2,25,31,40.4
			C249.7,285.9,249.9,286.3,250.5,286.4z M43.7,359.1l0.1,0.1c-7.2-2.3-14.7,0.7-22-1.3c-1.4-0.4-2.4,1.1-2.5,1.9
			c-0.2,2.4-0.6,5.1,0.2,7.3c2.8,7.5,5.9,14.9,9,22.2c4.3,10,10.5,18.7,17.4,27.1c1.3,1.6,2.2,1.6,3.6,0.1
			c3.6-3.9,7.4-7.6,11.1-11.4c8.1-8,16.2-16,24.5-23.9c2.7-2.6,1.4-4.1-0.9-5.8c-11.7-8.9-24.9-14-39.3-16.2
			C44.4,358.8,44.1,358.7,43.7,359.1z M67.7,415.1c-2.9,2.8-5.7,5.5-8.6,8.3c-2.3,2.2-2.6,3.9,0.3,6.3
			c15.3,12.5,32.6,20.9,51.9,25.4c2.6,0.6,3.7-0.6,4.1-2.9c-0.1-9.2,1.6-18.3-0.6-27.5c-3.1-12.8-7.9-24.7-16.2-35
			c-1.6-1.9-2.7-3-5-0.6C85,397.8,76.3,406.4,67.7,415.1z M41,347c0.2,0.1,0.5,0.2,0.7,0.3c1.5,0,3-0.2,4.5,0.1
			c17.4,3,33.5,9,47.3,20.3c1.6,1.3,2.5,2,4.3,0.1c8.8-9,17.9-17.9,27.1-27c-3.3-3.2-6.6-6.1-9.5-9.2
			c-17.6-19.1-36.3-36.9-54.8-55.1c-3.3-3.5-6.8-6.8-10-10.4c-2.1-2.4-3.3-2.6-5.7,0.1c-11.3,13.2-18.8,28.3-24,44.8
			c-1.6,5.2-4.3,10.7-3.9,15.9c0.5,6,0.3,11.9,0.6,17.8c0.2,3.5,1.1,4.1,4.5,3.1C28.4,346,34.7,345.8,41,347z M139.6,225.2
			c-5.7-0.2-11.3-0.3-17,0.4c-8.2,0.8-16.4,1.7-24.3,4.7c-14.2,5.2-27.3,11.9-39,21.6c-3,2.4-2.6,4.1-0.3,6.3
			c2.9,2.7,5.7,5.5,8.6,8.3c21,21.1,42,42.2,63,63.3c2.4,2.4,4.2,1.8,6.3-0.4c7.6-7.7,15.2-15.4,23-22.9c2.7-2.6,2.9-4.1,0.4-7.2
			c-13.3-16.5-20.7-35.3-20.7-56.7c0-5.8,0.4-11.5,0.6-17.3C140.2,224.8,140,224.9,139.6,225.2z M142.7,456.8c6.7,0,13.1-2,19.5-3.6
			c17.3-4.3,32.6-12.4,46.3-23.5c1.4-1.1,4-2,1.2-4.8c-24.6-24.4-49-48.8-73.4-73.3c-2-2-3.6-1.8-5.5,0
			c-8.1,8.2-16.1,16.4-24.2,24.4c-1.7,1.7-2,2.6-0.2,4.6c4.6,5,8.2,10.8,11.2,16.9c8.5,17.3,11.7,35.6,9.9,54.7
			c-0.1,0.1-0.2,0.2-0.2,0.2c0,0.2,0.1,0.4,0.1,0.6c-0.9,2.3-0.3,3.5,2.3,3.4c4-0.1,7.9-0.1,11.9-0.2
			C142,456.4,142.3,456.6,142.7,456.8z M247.5,334.2c-0.3,0-0.5,0.1-0.8,0.1c-0.8,0-1.7,0-2.5,0.1c-14.7,2.2-28.7-0.8-42.6-4.9
			c-5.5-1.6-9.9-5.1-15-7.2c-0.5-0.8-1.2-1-2.1-1c-1.2-1.1-3.3-1-3.9-3c-0.4-0.9-1.2-1-2.1-1c-0.9-0.5-2-0.8-2.5-1.5
			c-3.9-5.1-6.9-2.7-10.2,0.8c-5.5,5.8-11.5,11.1-16.9,17c-7.7,8.5-7.8,6.1-0.1,14c21.5,22.1,43.5,43.6,65.3,65.4
			c1.2,1.2,2.6,2,3.7,3.2c1.8,1.9,3.1,1.5,4.7-0.4c12.1-14.7,21.1-31,24.6-49.9c1.8-9.4,3.7-18.8,2.8-28.5
			C249.8,336,250.2,333.9,247.5,334.2z M416,26.5c-3.7,0.4-8.9,0.4-13.9,1.5c-31.1,6.5-54.2,24.8-72.6,49.8
			c-11.3,15.3-19.6,32.3-24.2,50.7c-2.1,8.4-4.8,16.7-4.9,25.6c-0.1,12.7,0.9,25.2,3,37.8c1.7,10.1,5.9,19.1,10.9,27.8
			c17.7,30.7,47.6,42,77.5,36.6c19.6-3.6,37-12.4,51.9-25.7c14.9-13.4,27.2-28.8,35.9-47.2c9.4-19.7,14.8-40.1,15.8-61.9
			c0.2-4.7-2.3-9.6-0.7-13.7c1.7-4.6,0-8.6-1.1-12c-3.1-9.6-5.4-19.6-10.3-28.6C469.1,40.9,447,27.7,416,26.5z M433,349.6
			c3.2,0,6.4-0.2,9.2-1.8c9.1-5.5,18.1-11.2,27-16.8c1.7-1.1,2.6-2.5,0.3-4c-4.1-2.8-8.5-5.3-12.2-8.7c-6.2-5.6-13.3-8.1-21.3-6.6
			c-6.2,1.1-12.5,0.9-18.8,1.5c-14,1.4-28.2,1.1-42.2,2.5c-5.5,0.5-11,0-16.5,0.8c-8.5,1.2-17,2.2-25.6,1.6
			c-3.7-0.2-7.8,0.9-7.7,3.9c0.1,5.8-1.6,11.1-2.6,16.7c-0.3,1.8,0.3,2.5,2.4,2.8c12,1.5,24.2,1.1,36.2,2.7
			c11.4,1.6,23.1,1.2,34.5,2.3c5.1,0.5,10.7-0.8,14.9,0.5C418.1,349.2,425.8,346.7,433,349.6z M467.4,388.6
			c-0.3-0.6-0.5-1.1-0.8-1.5c-8.4-8.2-16.9-16.4-25.3-24.6c-0.9-0.9-1.8-1.3-3.1-1.2c-9.6,0.1-19-1.2-28.5-2c-12-0.9-24-1-36-2.2
			c-4.8-0.5-9.6-0.3-14.3-0.9c-12.2-1.6-24.5-1.9-36.8-2.9c-1.9-0.2-3.3,0.4-3.7,2.3c-0.5,2.2-0.8,4.5-1.3,6.7c-0.4,2,0.5,3,2.2,3.7
			c6.7,2.4,13.4,4.9,20.1,7.3c28.4,10.3,56.7,20.6,85,31c2.2,0.8,4,0.7,6-0.2C443,398.9,455.2,393.8,467.4,388.6z M418.3,454.4
			c8.3-2.3,16.9-4.5,25.3-6.9c2.8-0.8,2-2.3,0.7-4c-3.7-5.2-7.1-10.6-11-15.7c-3.9-5.1-6.7-11.1-13.9-13.2c-8-2.3-15.6-5.6-23.4-8.4
			c-26-9.4-52.1-18.7-78.1-28.3c-3.2-1.2-3.8,0.2-4.4,2.5c-1.1,4.6-2.1,9.2-2.9,13.9c-0.3,1.6-0.6,3.2,1.8,4.4
			c16.1,8.5,32.1,17.2,48.1,25.9c13.4,7.3,26.7,14.9,40.1,22.1C406.2,449.7,411.6,453.1,418.3,454.4z M268.9,476.2
			c18.8,0.1,33.5-13.1,33.4-33.3c-0.1-17.3-12-30.1-28.3-31.6c-10.2-1-19.7,0.6-27.3,8.3c-9.2,9.3-10.7,20.1-8.9,32.7
			C239.1,462.6,254.8,476,268.9,476.2z M233.9,323.3c3-0.3,6-0.9,8.9-0.8c4.7,0.2,5.6-2,4.7-6c-3.5-15.9-9.8-30.6-19.5-43.7
			c-7.7-10.4-7.6-10.5-16.8-1.3c-9.7,9.6-19.3,19.3-28.9,29c-0.9,0.9-3.6,1.7-1,3.7c7.2,5.6,15,10.8,23.4,13.8
			C213.8,321.3,223.6,324,233.9,323.3z M283.6,313.3c-8.3-0.2-15,3-20.1,9.6c-0.8,1-1.9,2.5-1.7,3.5c1.2,4.9-0.3,9.8-0.1,14.7
			c0.6,11.4-1.5,22.7-4.6,33.6c-1.4,5.1-0.1,7.8,3.7,10.1c1.8,1.1,3.9,1.9,5.9,2.7c5.9,2.2,7.5,1.4,8.7-4.6
			c4.4-21.3,8.7-42.6,13-63.9C289.7,313.4,289.7,313.4,283.6,313.3z M304,315.2c-2.1-0.3-2.3,1-2.6,2.7c-1.2,6.6-2.6,13.1-4,19.7
			c-3.6,16.3-7.3,32.6-10.8,49c-1.6,7.4,5.3,5,8.5,6.4c3.2,1.4,4-1.4,4.6-4c4.8-22.9,9.6-45.8,14.4-68.7c0.2-1.1,0.9-2.8-0.6-2.8
			C310.2,317.3,307.3,315.5,304,315.2z M325.7,307.3c4.5-0.1,5.8-0.8,8.4-6.3c4.5-9.4,8.8-18.9,13.2-28.4c1.1-2.4,2.9-5,2.6-7.3
			c-0.2-2.1-3.9-1.8-5.8-3.1c-0.9-0.7-1.9-2.1-2.7-2c-2.6,0.2-5.6-4.5-7.9,0.7c-5.5,12.3-11.4,24.5-16.9,36.9
			c-3.4,7.6-2.7,8.5,5.7,9.6C322.9,307.4,323.6,307.3,325.7,307.3z M358.2,471.4c10.6-2.7,18.8-10.6,27.6-17.3c1.4-1.1,0-2-1-2.6
			c-4.1-2.2-8.2-4.3-12.2-6.7c-1.6-1-3-0.4-4.1,0.4c-7.5,5.2-14.9,10.4-22.4,15.6c-1.7,1.2-2,2.4-0.6,4.1
			C348.6,468.5,352.6,470.7,358.2,471.4z M336.8,426.7c2.1,3.1,4.2,6.2,6.3,9.3c5.9,8.7,5.9,8.7,14.4,2.5c0.3-0.2,0.4-0.5,0.9-1.2
			C351.5,433.2,344.6,429.3,336.8,426.7z M261.3,398.9c-2.4-1.5-4.9-3-7.2-4.7c-2.8-2.1-5.1-0.7-6,1.7c-0.7,2-1,4.1-2.8,5.4
			c0.9,1.3-1.4,2.5-0.1,3.9c0.7,0.8,1.4,0.8,2,0.1C251,401.1,256.9,401.5,261.3,398.9z"/>
		<path class="st1" d="M415.4,14.6c-1.7,1.5-3.3,1.5-5,0C412.1,14.6,413.8,14.6,415.4,14.6z"/>
		<path class="st1" d="M423.4,14.6c-1,1.3-2,1.3-3,0C421.4,14.6,422.4,14.6,423.4,14.6z"/>
		<path class="st2" d="M140.9,58.6"/>
		<path class="st1" d="M194.6,134.5c0-0.3,0-0.5,0-0.8c0.2,0,0.5,0.1,0.7,0.1C195.1,134.1,194.9,134.3,194.6,134.5z"/>
		<path class="st3" d="M249.7,285.3c-7.8-15.4-18.3-28.8-31-40.4c-1.2-1.1-2.3-2.5-4.1-2.6c-2.7-6.2-8.2-10.3-11.9-15.7
			c-13.7-19.7-27.4-39.4-41.1-59.2c2.2-3.4,0.7-6.4-1.2-9.2C147,138,133.5,117.8,120,97.6c-2-2.9-4.5-4.9-8.3-4
			c-1.5-1.4,0-4.6-3-5.1c1.1-2.2,1.3-4.4,0.8-6.8c-0.5-9.7,4.1-17.3,10.2-24.2c6.4,0.1,10.4,4.6,13.5,9
			c17.1,24.3,33.4,49.1,50.7,73.3c8.4,11.7,16.8,23.4,24.9,35.3c9,13.1,18.1,26.2,26.8,39.5c9.9,15,20.9,29.3,30.3,44.7
			c2.8,4.5,3.7,9.7,3.7,15c0,5.3,0.6,10.6,0.7,15.8c0.1,3.2,1.7,5.7,3.6,8c2.2,2.7,1.7,4.2-1.7,5c-1.9,0.5-3.8,1.2-5.7,1.8
			c-2.6-5-6.6-8.9-10.3-13c-1.7-2-2.3-5.3-5.9-5.4c0,0,0,0,0,0C250.3,286,250,285.7,249.7,285.3z"/>
		<path class="st4" d="M416,26.5c31.1,1.1,53.1,14.4,67.3,40.7c4.9,9,7.2,19,10.3,28.6c1.1,3.4,2.8,7.4,1.1,12
			c-1.5,4.1,1,9,0.7,13.7c-1,21.7-6.4,42.1-15.8,61.9c-8.7,18.4-21,33.8-35.9,47.2c-14.8,13.3-32.3,22.1-51.9,25.7
			c-29.9,5.5-59.9-5.9-77.5-36.6c-5-8.7-9.2-17.7-10.9-27.8c-2.1-12.5-3.1-25-3-37.8c0.1-8.9,2.8-17.2,4.9-25.6
			c4.6-18.4,13-35.4,24.2-50.7c18.4-25,41.6-43.3,72.6-49.8C407.1,27,412.3,26.9,416,26.5z M414,41.6c-5.1-0.6-9.8,1.3-14.7,1.8
			c-12.4,1.4-22.9,7-32.8,13.8c-13.1,8.9-23.7,20.1-32.3,33.6c-6.5,10.1-12.1,20.5-15.5,31.8c-2,6.7-3.9,13.7-4.7,20.9
			c-0.6,5.2-1.4,10.7-2.1,16c-1.2,8.5,0.4,17.2,2.6,25.7c4.3,16.9,11.7,31.9,25.5,43c11.5,9.3,24.5,14.8,39.5,15.3
			c9.1,0.3,17.8-1.7,26.4-4.8c11.9-4.4,22.9-10.3,32.4-18.7c13.8-12.1,25-26.4,32.8-43.2c7.8-16.5,10.9-34.1,12.4-52.1
			c0.3-4.1-1.5-8.3-1.4-12c0.4-12.6-3.4-23.9-8.9-34.8C461,53.8,441,41.9,414,41.6z"/>
		<path class="st5" d="M180.6,318.4c0.6,2,2.7,1.8,3.9,3c0.4,1,1.3,0.8,2.1,1c5.2,2,9.6,5.5,15,7.2c14,4.1,28,7.1,42.6,4.9
			c0.8-0.1,1.7-0.1,2.5-0.1c0,0,0.4,0,0.4,0l0.4-0.1c2.7-0.3,2.3,1.8,2.4,3.3c0.9,9.7-1,19.1-2.8,28.5
			c-3.5,18.9-12.5,35.2-24.6,49.9c-1.6,1.9-2.9,2.4-4.7,0.4c-1.1-1.2-2.6-2.1-3.7-3.2c-21.8-21.8-43.8-43.4-65.3-65.4
			c-7.7-7.9-7.6-5.5,0.1-14c5.3-5.9,11.4-11.2,16.9-17c3.3-3.5,6.4-5.9,10.2-0.8c0.5,0.7,1.7,1,2.5,1.5
			C178.9,318.3,179.9,318.2,180.6,318.4z"/>
		<path class="st6" d="M141.7,456.3c-4,0.1-7.9,0.1-11.9,0.2c-2.6,0.1-3.2-1.1-2.3-3.4c0.2-0.3,0.2-0.5,0.1-0.8
			c1.8-19.2-1.4-37.4-9.9-54.7c-3-6.1-6.7-11.9-11.2-16.9c-1.8-2-1.6-2.9,0.2-4.6c8.2-8.1,16.2-16.3,24.2-24.4
			c1.8-1.9,3.4-2.1,5.5,0c24.4,24.5,48.9,48.9,73.4,73.3c2.8,2.8,0.2,3.7-1.2,4.8c-13.7,11.2-29.1,19.3-46.3,23.5
			c-6.4,1.6-12.8,3.6-19.5,3.6C142.3,456.6,142,456.4,141.7,456.3z"/>
		<path class="st6" d="M140.3,225.4c-0.2,5.8-0.6,11.5-0.6,17.3c0,21.4,7.3,40.2,20.7,56.7c2.5,3.1,2.3,4.6-0.4,7.2
			c-7.8,7.5-15.4,15.2-23,22.9c-2.1,2.1-3.9,2.8-6.3,0.4c-21-21.1-42-42.2-63-63.3c7.6-10.4,17-18.9,27.5-26.3
			c8.6-6.1,18.2-10,27.6-14.5c5.6-0.7,11.3-0.6,17-0.4C139.8,225.4,140.1,225.5,140.3,225.4z"/>
		<path class="st7" d="M433,349.6c-7.2-2.9-14.9-0.4-22.4-2.7c-4.2-1.3-9.8,0-14.9-0.5c-11.5-1.1-23.1-0.8-34.5-2.3
			c-12.1-1.6-24.2-1.3-36.2-2.7c-2.1-0.3-2.7-1-2.4-2.8c0.9-5.5,2.6-10.8,2.6-16.7c0-3,4.1-4.1,7.7-3.9c8.6,0.5,17.1-0.4,25.6-1.6
			c5.5-0.8,11-0.2,16.5-0.8c14-1.4,28.2-1.2,42.2-2.5c6.2-0.6,12.5-0.4,18.8-1.5c8-1.4,15.1,1.1,21.3,6.6c3.7,3.3,8.1,5.8,12.2,8.7
			c2.3,1.6,1.4,3-0.3,4c-9,5.7-18,11.3-27,16.8C439.4,349.4,436.2,349.6,433,349.6z"/>
		<path class="st8" d="M467.4,388.6c-12.2,5.2-24.3,10.3-36.4,15.4c-2,0.9-3.8,1-6,0.2c-28.3-10.4-56.7-20.7-85-31
			c-6.7-2.4-13.4-4.9-20.1-7.3c-1.7-0.6-2.7-1.7-2.2-3.7c0.5-2.2,0.8-4.5,1.3-6.7c0.5-1.9,1.8-2.5,3.7-2.3c12.3,1,24.6,1.3,36.8,2.9
			c4.7,0.6,9.5,0.4,14.3,0.9c11.9,1.2,24,1.3,36,2.2c9.5,0.7,19,2,28.5,2c1.2,0,2.2,0.4,3.1,1.2c8.4,8.2,16.9,16.4,25.3,24.6
			C466.9,387.5,467,388,467.4,388.6z"/>
		<path class="st9" d="M60.7,276.4c18.5,18.2,37.2,36,54.8,55.1c2.9,3.2,6.2,6,9.5,9.2c-9.2,9.2-18.3,18-27.1,27
			c-1.8,1.9-2.7,1.2-4.3-0.1c-13.8-11.3-29.9-17.3-47.3-20.3c-1.5-0.3-3-0.1-4.5-0.1c-0.1-0.2-0.1-0.4-0.2-0.7
			c0.1-9.3,0.4-18.5,2.3-27.7C46.9,303.8,51.6,289.2,60.7,276.4z"/>
		<path class="st7" d="M418.3,454.4c-6.6-1.3-12.1-4.7-17.7-7.7c-13.5-7.2-26.7-14.7-40.1-22.1c-16-8.7-32-17.4-48.1-25.9
			c-2.4-1.3-2-2.8-1.8-4.4c0.8-4.7,1.9-9.3,2.9-13.9c0.5-2.3,1.1-3.7,4.4-2.5c26,9.6,52,18.9,78.1,28.3c7.8,2.8,15.5,6.2,23.4,8.4
			c7.2,2,10,8.1,13.9,13.2c3.9,5.1,7.2,10.5,11,15.7c1.3,1.8,2.1,3.3-0.7,4C435.1,449.8,426.6,452.1,418.3,454.4z"/>
		<path class="st10" d="M268.9,476.2c-14-0.2-29.8-13.6-31.2-23.9c-1.7-12.7-0.2-23.5,8.9-32.7c7.6-7.7,17.1-9.3,27.3-8.3
			c16.3,1.6,28.2,14.3,28.3,31.6C302.4,463.1,287.6,476.2,268.9,476.2z"/>
		<path class="st11" d="M119.7,57.5c-6.1,6.9-10.6,14.5-10.2,24.2c-4.1-5.7-8.6-6.9-11.4-2.9c-2.2,3.1-2,6.2,0.9,8.9
			c3,2.8,6.1,4.8,9.7,0.8c3,0.6,1.4,3.7,3,5.1c-5.2,3.9-5.4,5-1.8,10.4c13.6,20.5,27.3,41,40.9,61.4c3.2,4.8,5.8,5.2,10.7,2
			c13.7,19.7,27.4,39.5,41.1,59.2c3.8,5.4,9.3,9.5,11.9,15.7c-2.4,0.2-5.1-0.2-6.9,2.2c-7-7.4-16.2-11.2-25.3-15.2
			c0.9-3.9-0.3-6.3-4.5-7.3c-2.1-0.5-3.3-2.2-4.5-4.2c-4.3-6.9-9.1-13.5-13.7-20.2c-6.7-9.7-12.9-19.8-20.2-28.9
			c-5.4-6.8-9-14.7-15.3-21c-2.6-2.6-3.7-8-6.7-11c-5.4-5.3-9.1-12.1-13.1-18c-5.8-8.7-11.8-17.3-17.3-26.2c-2.3-3.6,0-8-1.8-11.8
			c0.2-1.1,0.6-2.2-0.6-3c3.1-7.6,6.2-15.1,14.4-19.1c3.1-1.5,6.2-1.8,9.5-2c0.7-0.4,1.3-0.7,2-1.1
			C113.6,56.2,117.3,54.4,119.7,57.5z"/>
		<path class="st5" d="M182.5,229.2c9.1,4,18.3,7.8,25.3,15.2c-2.3,3.1-1.1,5.8,1.3,7.9c2.2,1.8,2.3,2.9,0.2,5
			c-11.5,11.3-22.9,22.7-34.2,34.2c-2.5,2.6-4,2.6-6.1-0.3c-6.2-8.5-10.9-17.6-14.3-27.6c-3.7-10.6-2.8-21.4-2.9-32.2
			c0-3.7,5.6-6.4,8.8-4.2c4.6,3.2,10.1,3.6,15.2,5.2C178.6,233.3,180.6,231.3,182.5,229.2z"/>
		<path class="st5" d="M233.9,323.3c-10.2,0.7-20.1-2-29.3-5.3c-8.4-3.1-16.2-8.2-23.4-13.8c-2.5-2,0.2-2.8,1-3.7
			c9.6-9.7,19.3-19.3,28.9-29c9.2-9.2,9.1-9.1,16.8,1.3c9.7,13.1,16,27.8,19.5,43.7c0.9,4,0,6.2-4.7,6
			C239.8,322.3,236.8,323,233.9,323.3z"/>
		<path class="st12" d="M60.7,276.4c-9.1,12.8-13.8,27.4-16.9,42.6c-1.9,9.1-2.1,18.4-2.3,27.7c-0.3,0-0.4,0.1-0.5,0.4
			c-6.3-1.2-12.6-1-18.7,0.7c-3.5,1-4.4,0.4-4.5-3.1c-0.3-5.9-0.1-11.9-0.6-17.8c-0.4-5.2,2.2-10.7,3.9-15.9
			c5.1-16.4,12.7-31.5,24-44.8c2.3-2.7,3.6-2.5,5.7-0.1C53.9,269.6,57.3,272.9,60.7,276.4z"/>
		<path class="st9" d="M67.7,415.1c8.6-8.7,17.3-17.4,25.8-26.2c2.3-2.4,3.5-1.3,5,0.6c8.3,10.3,13.1,22.2,16.2,35
			c2.2,9.2,0.6,18.3,0.6,27.5c-10.2-3.1-18.7-9.2-26.9-15.7C80.6,430.2,73.3,423.5,67.7,415.1z"/>
		<path class="st13" d="M283.6,313.3c6.1,0.1,6.1,0.1,5,5.6c-4.3,21.3-8.6,42.6-13,63.9c-1.2,6-2.9,6.8-8.7,4.6
			c-2-0.8-4-1.6-5.9-2.7c-3.9-2.3-5.2-5-3.7-10.1c3-10.9,5.2-22.2,4.6-33.6c-0.2-4.9,1.3-9.7,0.1-14.7c-0.2-1,0.9-2.4,1.7-3.5
			C268.6,316.3,275.3,313.1,283.6,313.3z"/>
		<path class="st6" d="M60.6,405.2c-3.7,3.8-7.4,7.6-11.1,11.4c-1.3,1.4-2.3,1.4-3.6-0.1c-6.9-8.3-13.1-17.1-17.4-27.1
			c-3.2-7.3-6.3-14.7-9-22.2c-0.8-2.2-0.5-4.9-0.2-7.3c0.1-0.8,1.1-2.3,2.5-1.9c7.2,2,14.8-1.1,22,1.3
			C45.3,376.1,51.3,391.2,60.6,405.2z"/>
		<path class="st9" d="M60.6,405.2c-9.3-14-15.3-29.1-16.9-45.9c0,0-0.1-0.1-0.1-0.1c0.4,0,0.8,0,1.1,0.1
			c14.4,2.3,27.6,7.4,39.3,16.2c2.4,1.8,3.6,3.2,0.9,5.8C76.9,389.2,68.8,397.2,60.6,405.2z"/>
		<path class="st13" d="M304,315.2c3.3,0.3,6.2,2.1,9.5,2.2c1.5,0.1,0.8,1.7,0.6,2.8c-4.8,22.9-9.7,45.8-14.4,68.7
			c-0.5,2.6-1.3,5.4-4.6,4c-3.2-1.4-10.1,1-8.5-6.4c3.5-16.4,7.2-32.6,10.8-49c1.4-6.5,2.8-13.1,4-19.7
			C301.7,316.3,301.9,315,304,315.2z"/>
		<path class="st14" d="M325.7,307.3c-2.1,0-2.8,0.1-3.4,0c-8.4-1.1-9.1-1.9-5.7-9.6c5.5-12.4,11.4-24.6,16.9-36.9
			c2.3-5.2,5.3-0.4,7.9-0.7c0.8-0.1,1.8,1.4,2.7,2c1.9,1.3,5.6,1,5.8,3.1c0.3,2.3-1.5,4.9-2.6,7.3c-4.4,9.5-8.8,19-13.2,28.4
			C331.5,306.5,330.2,307.2,325.7,307.3z"/>
		<path class="st12" d="M122.7,225.6c-9.4,4.5-19,8.5-27.6,14.5c-10.5,7.4-19.9,15.9-27.5,26.3c-2.9-2.8-5.7-5.5-8.6-8.3
			c-2.3-2.2-2.7-3.9,0.3-6.3c11.7-9.6,24.9-16.3,39-21.6C106.3,227.4,114.4,226.4,122.7,225.6z"/>
		<path class="st12" d="M67.7,415.1c5.6,8.4,13,15.1,20.8,21.2c8.2,6.5,16.7,12.6,26.9,15.7c-0.4,2.3-1.5,3.5-4.1,2.9
			c-19.3-4.4-36.5-12.8-51.9-25.4c-2.9-2.4-2.6-4-0.3-6.3C61.9,420.7,64.8,417.9,67.7,415.1z"/>
		<path class="st3" d="M358.2,471.4c-5.6-0.7-9.6-2.8-12.7-6.5c-1.4-1.7-1.1-2.9,0.6-4.1c7.5-5.2,14.9-10.4,22.4-15.6
			c1.2-0.8,2.5-1.4,4.1-0.4c4,2.3,8.1,4.4,12.2,6.7c1,0.6,2.4,1.5,1,2.6C377,460.8,368.8,468.6,358.2,471.4z"/>
		<path class="st11" d="M336.8,426.7c7.8,2.6,14.7,6.5,21.6,10.6c-0.5,0.7-0.7,1-0.9,1.2c-8.5,6.2-8.5,6.2-14.4-2.5
			C341,432.9,338.9,429.8,336.8,426.7z"/>
		<path class="st11" d="M250.5,286.4c3.5,0,4.1,3.4,5.9,5.4c3.7,4.1,7.7,8,10.3,13c-2.5,1.6-5.3,4.9-7.4,4.5
			c-2.6-0.5-2.2-4.9-3.2-7.6C254.1,296.6,252.3,291.5,250.5,286.4z"/>
		<path class="st1" d="M84.8,77.5c1.2,0.8,0.8,1.9,0.6,3C83.3,79.9,83.2,78.9,84.8,77.5z"/>
		<path class="st1" d="M110.7,55.3c-0.7,0.4-1.3,0.7-2,1.1c0.2-0.9-0.3-2.1,0.9-2.4C110.4,53.9,110.6,54.6,110.7,55.3z"/>
		<path class="st2" d="M346.5,305.1"/>
		<path class="st1" d="M180.6,318.4c-0.8-0.2-1.7,0-2.1-1C179.4,317.3,180.2,317.5,180.6,318.4z"/>
		<path class="st1" d="M186.6,322.3c-0.8-0.2-1.7,0-2.1-1C185.4,321.3,186.2,321.5,186.6,322.3z"/>
		<path class="st11" d="M44.8,359.2c-0.4,0-0.8,0-1.1-0.1C44.1,358.7,44.4,358.8,44.8,359.2z"/>
		<path class="st1" d="M41,347c0.1-0.2,0.3-0.4,0.5-0.4c0.1,0.2,0.1,0.4,0.2,0.7C41.5,347.3,41.2,347.2,41,347z"/>
		<path class="st11" d="M247.5,334.2l-0.4,0.1c0,0-0.4,0-0.4,0C247,334.2,247.3,334.2,247.5,334.2z"/>
		<path class="st11" d="M249.7,285.3c0.3,0.4,0.5,0.7,0.8,1.1C249.9,286.3,249.7,285.9,249.7,285.3z"/>
		<path class="st2" d="M357.7,277.3"/>
		<path class="st11" d="M140.3,225.4c-0.3,0-0.5,0-0.7-0.2C140,224.9,140.2,224.8,140.3,225.4z"/>
		<path class="st11" d="M127.6,452.3c0.1,0.3,0,0.6-0.1,0.8c0-0.2-0.1-0.4-0.1-0.6C127.4,452.4,127.6,452.3,127.6,452.3z"/>
		<path class="st11" d="M141.7,456.3c0.3,0.2,0.7,0.4,1,0.5C142.3,456.6,142,456.4,141.7,456.3z"/>
		<path class="st0" d="M161.6,167.4c-4.9,3.2-7.5,2.8-10.7-2c-13.7-20.4-27.3-40.9-40.9-61.4c-3.6-5.4-3.4-6.5,1.8-10.4
			c3.8-0.9,6.4,1.1,8.3,4c13.5,20.2,27,40.4,40.4,60.6C162.3,161,163.8,164,161.6,167.4z"/>
		<path class="st1" d="M108.8,88.5c-3.6,4-6.7,2-9.7-0.8c-2.9-2.7-3.1-5.8-0.9-8.9c2.8-4,7.4-2.8,11.4,2.9
			C110,84.1,109.8,86.3,108.8,88.5z"/>
		<path class="st0" d="M414,41.6c26.9,0.4,46.9,12.2,59.2,36.4c5.5,10.9,9.3,22.1,8.9,34.8c-0.1,3.7,1.7,7.9,1.4,12
			c-1.5,18-4.6,35.5-12.4,52.1c-7.9,16.7-19,31-32.8,43.2c-9.5,8.3-20.5,14.3-32.4,18.7c-8.6,3.1-17.2,5.1-26.4,4.8
			c-15-0.4-28-6-39.5-15.3c-13.8-11.1-21.2-26.1-25.5-43c-2.2-8.5-3.8-17.2-2.6-25.7c0.7-5.2,1.5-10.8,2.1-16
			c0.9-7.2,2.7-14.2,4.7-20.9c3.4-11.3,9.1-21.7,15.5-31.8c8.6-13.5,19.2-24.7,32.3-33.6c10-6.8,20.4-12.4,32.8-13.8
			C404.2,42.8,409,41,414,41.6z M406.8,135.6c-0.1,1.1,0.7,1.5,1.6,1.9c7,3.1,14,6.3,21,9.5c1.8,0.8,2.4-0.3,3-1.5
			c2.5-5.3,4.8-10.7,7.4-15.9c0.7-1.5,0.4-2.2-0.8-2.8c-7.2-3.3-14.4-6.5-21.6-9.9c-0.7-0.3-1.2-0.5-1.6,0.2
			C412.3,123.1,410.7,129.9,406.8,135.6z M405,112.2c-0.3-0.9-1.1-1.4-2-1.8c-6.8-3-13.7-6.1-20.4-9.3c-2-0.9-2.4,0.2-2.9,1.4
			c-2.6,5.4-5,10.8-7.7,16.1c-0.9,1.9,0.3,2.4,1.4,2.9c6.6,3,13.1,6,19.8,8.9c1.8,0.8,3.3,0.6,4.3-1.6c2.2-5.1,4.7-10.1,7-15.1
			C404.6,113.2,404.8,112.7,405,112.2z M444.3,116c1.6,0.7,1.8-0.1,2.1-0.9c2.4-5.4,4.7-10.7,7.4-16c1.2-2.4-0.2-2.8-1.8-3.6
			c-6.5-3-13-6-19.4-8.9c-1.2-0.6-2.3-1-3.1,0.8c-1.6,3.7-3.6,7.3-5,11c-2.8,7.6-2.7,7.7,4.4,10.9
			C434.2,111.6,439.2,114.6,444.3,116z M366.9,131.5c-0.7,0.9-1.8,1.8-2.4,3.1c-2,4.6-3.5,9.4-6.3,13.7c-1.5,2.3-0.5,3.5,1.8,4.4
			c4,1.6,8.1,3.3,12,5.1c11.7,5.5,8.6,5.9,14.1-4.7c1.7-3.3,4.7-7.4,3.9-10.2c-0.9-3.2-6.3-3.5-9.6-5.5c-0.7-0.4-1.4-0.8-2.2-1.2
			C374.5,134.8,371,133.2,366.9,131.5z M419.1,80.9c-0.4-0.3-0.9-0.9-1.5-1.2c-7.1-3.2-14.2-6.4-21.2-9.7c-1.6-0.7-2.4,0.2-2.7,1.2
			c-1.1,4.7-3.9,8.5-5.9,12.7c-1.8,3.7-1.8,6.7,3.2,7.9c2.7,0.6,5,2.3,7.4,3.7c11.1,6.2,11.2,6.1,16.8-5.3c1.1-2.3,2.2-4.8,3.2-7.2
			C418.6,82.4,418.8,81.8,419.1,80.9z M426.3,158.8c-7-3.2-13.7-6.1-20.2-9.4c-3.4-1.7-5.1-0.8-6.5,2.4c-1.8,4.3-3.9,8.5-5.9,12.8
			c-0.8,1.8-1.4,2.6,1.3,4.1c5.9,3.2,12.4,5,18.1,8.3c2.9,1.7,4.2,0.8,5.4-2C421.1,169.6,423.7,164.4,426.3,158.8z M388.3,178.8
			c-1.3,0.1-1.5,1.1-1.9,2.2c-1.6,3.7-3.4,7.4-5.1,11.1c-2.9,6.2-2.9,6.1,3.1,8.8c2.2,1,4.3,2.3,6.6,3.4c3.7,1.7,7.8,5.2,11,4.6
			c3.9-0.8,4-6.8,5.9-10.5c4.4-8.7,4.3-8.8-4.7-13C398.4,183.1,393.4,181.1,388.3,178.8z M376.1,174.4c0-1.8-1.6-1.9-2.6-2.4
			c-6.3-2.9-12.6-5.6-18.8-8.6c-2-1-3-0.9-3.9,1.2c-2.1,4.9-4.3,9.7-6.5,14.5c-1.1,2.3-0.7,3.3,1.9,4.3c5,2,9.8,4.4,14.6,6.7
			c6.6,3.2,6.6,3.3,9.8-3.5C372.4,182.6,374.3,178.5,376.1,174.4z M334.6,116.5c-1.1,0-1.7,0.9-2,1.8c-1.4,3.6-2.8,7.2-3.9,10.9
			c-2.2,7.4-1.9,7.2,5.2,11.1c3.1,1.7,6.4,3.1,9.6,4.6c1.3,0.6,2.7,1.1,3.5-0.4c2.9-6,5.7-12.1,8.5-18.1c-3.4-3-8-3.4-11.6-5.8
			c-0.8-0.5-1.7-0.9-2.6-1.3C338.9,118.4,336.8,117.5,334.6,116.5z M444.2,191.2c3.3,0.7,4.8-0.3,5.8-1.9c2.8-4.4,5.4-8.9,8.1-13.3
			c1-1.6,0.7-2.5-1-3.3c-5.8-2.5-11.6-4.8-17.2-7.5c-2.2-1.1-3.1-0.9-4.1,1.2c-2.2,5-4.5,10-6.9,15c-0.5,1.1-1,2.2,0.5,2.9
			C434.8,186.8,440,189.3,444.2,191.2z M469.4,143.2c0-1,0.1-2.3-2-3.2c-4.5-1.8-8.8-4.1-13.3-6.1c-1.4-0.6-3.1-1.3-4,1.1
			c-1.9,5.5-4.7,10.6-7.4,15.8c-0.6,1.1-1.2,2.8,1,3.6c6,2.3,11.9,4.8,17.9,7.2c1.1,0.4,2.1,1.9,2.8-0.6
			C466.2,155.3,468.3,149.7,469.4,143.2z M369.1,96.7c0.8-2.4-1-2.3-1.8-2.6c-3.9-1.9-8-3.5-11.9-5.6c-3.1-1.7-4.9-1.4-6.6,1.9
			c-1.5,2.9-3.8,5.3-5.7,8c-4.4,6.4-4.3,6.5,2.6,9.8c2.3,1.1,4.3,2.7,6.9,3.5c8.2,2.6,8.1,2.8,11.7-4.8
			C366.1,103.4,367.7,99.8,369.1,96.7z M380.7,231.7c3.4,0.5,6.5-1,9.8-1.5c4.5-0.6,5.6-5,6.5-8.3c0.8-2.9-3.2-3.1-5.2-4.1
			c-4-2.1-8.2-3.8-12.4-5.7c-6.2-2.8-6.2-2.8-9,3c-1.3,2.8-2.2,5.8-3.9,8.4c-2.4,3.9-1.4,5.9,2.9,6.5
			C373.3,230.6,377,231.1,380.7,231.7z M362,204.8c-0.2-1.1-1.6-1.4-2.6-1.9c-5.6-2.6-11.1-5.2-16.7-7.7c-1.6-0.7-3.6-3.4-5-0.9
			c-1.5,2.7-5.1,5.4-3.1,9c4,7.2,9.7,13.1,16.4,18c1.2,0.9,2.6,1.7,3.3,0.3C357,216.3,359.3,210.8,362,204.8z M443.1,61.6
			c-1.2-0.2-2.1,0.5-2.3,1.5c-0.6,3.2-2.9,5.5-4.4,8.2c-1.3,2.5-0.7,3.7,1.8,4.7c6,2.3,11.4,6,17.6,7.9c1.5,0.5,2.6,3.1,4.5,0.9
			c1.7-1.9,1-3.9-0.2-5.8c-3.4-5.5-7.5-10.5-12.7-14.2C446,63.7,445.1,61.8,443.1,61.6z M323.5,160.8c-0.7,3.4,1.1,6.5,0.9,9.7
			c-0.3,4.7,3.5,4.8,6.1,5.7c2.6,1,2.6-2.2,3.5-3.7c1.6-3,3.2-6.1,4.5-9.2c2.5-6.2,2.4-6.2-3.7-9.2c-1.7-0.9-3.5-1.7-5.2-2.7
			c-3.1-1.7-4.7-1.6-5.5,2.6C323.7,156.4,323.9,158.6,323.5,160.8z M430.4,56.4c0.4-1.1-1.2-1-1.9-1.2c-8.2-2.5-16.6-1.9-24.9-1.3
			c-1.7,0.1-2.7,1.8-3,3.4c-0.2,1.7,1.5,1.9,2.6,2.5c6.2,3,12.5,5.9,18.7,8.9c0.9,0.4,1.8,1.3,2.5,0.1
			C426.8,65.1,428.8,61.2,430.4,56.4z M421.1,217.4c3.4-1.1,6.4-4,9.4-6.5c9.6-8.2,9.4-9.2-2.4-14.1c-0.7-0.3-1.7-0.2-2.3-0.7
			c-2.3-1.7-3.3-0.2-4.1,1.6c-2,4.3-4,8.5-5.9,12.8C413.9,214.5,415.9,217.5,421.1,217.4z M471.4,128.2c0-3.4-0.6-6.5,0.1-9.3
			c1.2-4.7-1.1-8.7-1.5-13c-0.1-1.3-0.8-3.4-3-3.4c-1.6,0-1.9,1.3-2.6,2.5c-2.6,4.3-3.8,9.4-6.3,13.7c-1.8,3-0.8,3.6,1.6,4.9
			C463.3,125.6,467.3,126.3,471.4,128.2z M360.1,77.3c4.5,2.3,8.6,4.2,12.5,6.3c2.1,1.2,2.3-0.1,2.9-1.6c2.2-4.7,4.6-9.3,6.7-14.1
			c0.5-1.2,2.5-2.7,0.5-4.3c-1.6-1.3-3.4-0.8-4.9,0.2C371.7,67.7,365.9,71.7,360.1,77.3z"/>
	</g>
</g>
</svg>
