<?xml version="1.0" encoding="utf-8"?>
<svg version="1.1" id="Layer_1" xmlns="http://www.w3.org/2000/svg" xmlns:xlink="http://www.w3.org/1999/xlink" x="0px" y="0px"
	 viewBox="0 0 1024 1024" style="enable-background:new 0 0 1024 1024;" xml:space="preserve">
<style type="text/css">
	.st0{opacity:0.41;fill:var(--vj-cl-lg);}
	.st1{fill:var(--vj-cl-dr4);}
</style>
<circle class="st0" cx="512.2" cy="512.2" r="497.2"/>
<path class="st1" d="M513.2,602.6c-119.2-0.4-215.9-97.1-215.9-216c0-119.9,97.9-216.9,218.1-216.2C634.1,171,730.9,269,730.1,387.7
	C729.3,506.9,632.3,603,513.2,602.6z"/>
<path class="st1" d="M1022.9,512.5C1022.9,231.1,794.7,3,513.4,3S3.9,231.1,3.9,512.5C3.9,820.6,232,1022,513.4,1022
	S1022.9,793.9,1022.9,512.5z M478.2,653.8c-125.1,7.5-234.5,65.5-328.1,148.8c-8,7.1-10.8,5.8-16.4-2
	c-59.8-83.1-90.5-186.2-90.8-268.8c1-217.9,121.8-391,307.8-460.8c269.5-101.1,572.6,69.4,624.6,352.1c24.7,134-3.4,256.9-83,367.8
	c-5.1,7.1-7.6,8.2-14.8,1.8C763.5,691.9,630.1,644.7,478.2,653.8z"/>
</svg>
