<svg id="svgviewer-output_14_" data-name="svgviewer-output (14)" xmlns="http://www.w3.org/2000/svg" width="37.134" height="56.997" viewBox="0 0 37.134 56.997">
  <path id="Path_310" data-name="Path 310" d="M126.113,45.633c-3.915-4.259-7.338-8.095-10.313-11.561,4.979-6.753,7.265-11.131,7.193-13.77A27.016,27.016,0,0,0,117.433,4.56q-.023-.031-.048-.06a12.5,12.5,0,0,0-19.206,0q-.025.029-.048.06A27.015,27.015,0,0,0,92.57,20.3c-.078,2.872,2.751,7.73,7,13.509l-1.324,1.613c-3.058,3.728-4.742,5.781-8.8,10.209a.891.891,0,0,0-.087,1.092L95.869,56.6a.891.891,0,0,0,1.447.056c.95-1.222,2.608-3.167,4.708-5.63,1.748-2.051,3.717-4.359,5.764-6.823,1.867,2.25,3.805,4.539,5.752,6.822,2.1,2.463,3.758,4.408,4.708,5.63a.891.891,0,0,0,1.447-.056l6.507-9.871a.891.891,0,0,0-.088-1.093ZM117.795,8.3a25.224,25.224,0,0,1,3.418,12.054c.04,1.466-1.084,4.795-6.6,12.329-2.3-2.707-4.3-5.18-6.048-7.445a74.519,74.519,0,0,0,7.747-12.454A18.681,18.681,0,0,0,117.795,8.3ZM107.441,23.756c-1.644-2.2-3.023-4.185-4.16-5.995q-.909-1.447-1.608-2.741a10.7,10.7,0,0,1,11.69-.344A87.133,87.133,0,0,1,107.441,23.756Zm-7.82-18.2a10.716,10.716,0,0,1,16.318,0c.453,1.219.287,3.455-1.747,7.547a12.438,12.438,0,0,0-6.411-1.771,12.563,12.563,0,0,0-6.923,2.1c-1.6-3.39-2-5.944-1.237-7.868Zm1.047,44.316c-1.632,1.914-3,3.518-3.986,4.726l-5.452-8.27c3.756-4.115,5.436-6.164,8.394-9.77l1.043-1.272c1.809,2.395,3.83,4.925,5.965,7.521C104.515,45.355,102.474,47.749,100.668,49.867Zm18.213,4.726c-.987-1.209-2.354-2.813-3.987-4.727-3.84-4.5-9.1-10.673-13.318-16.339C95.528,25.4,94.308,21.877,94.35,20.35A25.225,25.225,0,0,1,97.52,8.734c.3,2.666,1.694,5.9,4.253,9.974,4.1,6.535,11.279,15.321,22.559,27.618Z" transform="translate(-89.214)" fill="#0c141c"/>
</svg>
