<svg id="svgviewer-output_13_" data-name="svgviewer-output (13)" xmlns="http://www.w3.org/2000/svg" width="41.176" height="56.997" viewBox="0 0 41.176 56.997">
  <path id="Path_309" data-name="Path 309" d="M260.477,39.748H254.7a1.34,1.34,0,0,1-1.336-1.336V35.974h-2.471a1.34,1.34,0,0,1-1.336-1.336V28.861a1.34,1.34,0,0,1,1.336-1.336h2.471V25.087a1.34,1.34,0,0,1,1.336-1.336h5.777a1.34,1.34,0,0,1,1.336,1.336v2.438h2.438a1.34,1.34,0,0,1,1.336,1.336v5.777a1.34,1.34,0,0,1-1.336,1.336h-2.438v2.438A1.34,1.34,0,0,1,260.477,39.748Zm-2.905,17.5A20.523,20.523,0,0,1,237,36.642c0-5.544,6.746-15.829,12.723-24.946,2.738-4.174,5.343-8.115,6.679-10.72a1.331,1.331,0,0,1,2.371,0c1.336,2.6,3.907,6.545,6.646,10.72,5.978,9.117,12.757,19.4,12.757,24.946A20.531,20.531,0,0,1,257.571,57.247Zm0-52.9c-4.942,8.482-17.9,25.747-17.9,32.293a17.916,17.916,0,1,0,35.833,0C275.5,30.13,262.547,12.865,257.571,4.349Zm0,46.753a1.336,1.336,0,0,1,0-2.672,11.815,11.815,0,0,0,11.822-11.788,1.336,1.336,0,0,1,2.672,0A14.5,14.5,0,0,1,257.571,51.1Zm-1.536-14.026h3.106V34.638a1.34,1.34,0,0,1,1.336-1.336h2.438V30.2h-2.438a1.34,1.34,0,0,1-1.336-1.336V26.423h-3.106v2.438A1.34,1.34,0,0,1,254.7,30.2h-2.471V33.3H254.7a1.34,1.34,0,0,1,1.336,1.336Z" transform="translate(-237 -0.25)" fill="#0c141c" fill-rule="evenodd"/>
</svg>
