<svg xmlns="http://www.w3.org/2000/svg" width="14" height="12.511" viewBox="0 0 14 12.511">
  <g id="picture-photo-svgrepo-com" transform="translate(0 -27.234)">
    <g id="Group_8772" data-name="Group 8772" transform="translate(0 30.002)">
      <g id="Group_8771" data-name="Group 8771">
        <path id="Path_5490" data-name="Path 5490" d="M13.733,114.383H.329A.306.306,0,0,0,0,114.65v9.17a.337.337,0,0,0,.329.306h13.4A.284.284,0,0,0,14,123.82v-9.17A.251.251,0,0,0,13.733,114.383Zm-.329,9.17H.6v-1.047l4.193-4.019,3.968,3.537a.311.311,0,0,0,.417-.007l2.173-2.1,2.058,1.744v1.9Zm0-2.656-1.874-1.59a.3.3,0,0,0-.4.013l-2.176,2.1L5,117.879a.325.325,0,0,0-.428.007L.6,121.7v-6.739H13.4v5.94Z" transform="translate(0 -114.383)"/>
      </g>
    </g>
    <g id="Group_8774" data-name="Group 8774" transform="translate(7.436 31.458)">
      <g id="Group_8773" data-name="Group 8773">
        <path id="Path_5491" data-name="Path 5491" d="M286.092,189.907a1.73,1.73,0,1,0,1.73,1.73A1.732,1.732,0,0,0,286.092,189.907Zm0,2.768a1.038,1.038,0,1,1,1.038-1.038A1.039,1.039,0,0,1,286.092,192.675Z" transform="translate(-284.362 -189.907)"/>
      </g>
    </g>
    <g id="Group_8776" data-name="Group 8776" transform="translate(0.692 28.618)">
      <g id="Group_8775" data-name="Group 8775">
        <rect id="Rectangle_3333" data-name="Rectangle 3333" width="12.616" height="0.692"/>
      </g>
    </g>
    <g id="Group_8778" data-name="Group 8778" transform="translate(1.73 27.234)">
      <g id="Group_8777" data-name="Group 8777">
        <rect id="Rectangle_3334" data-name="Rectangle 3334" width="10.54" height="0.692"/>
      </g>
    </g>
  </g>
</svg>
