<?xml version="1.0" encoding="utf-8"?>
<!-- Generator: Adobe Illustrator 27.1.1, SVG Export Plug-In . SVG Version: 6.00 Build 0)  -->
<svg version="1.1" id="svgviewer-output_8_" xmlns="http://www.w3.org/2000/svg" xmlns:xlink="http://www.w3.org/1999/xlink"
	 x="0px" y="0px" viewBox="0 0 56.4 56.4" style="enable-background:new 0 0 56.4 56.4;" xml:space="preserve">
<style type="text/css">
	.st0{fill:#0C141C;}
</style>
<path id="Path_290" class="st0" d="M28.2,50.2c-8.6,0-16.4-5-20-12.9l1.6-0.7c4.7,10.2,16.7,14.6,26.9,10c4.4-2,8-5.6,10-10l1.6,0.7
	C44.6,45.2,36.8,50.2,28.2,50.2z M46.6,19.8C42,9.6,29.9,5.1,19.8,9.8c-4.4,2-8,5.6-10,10L8.2,19C13.2,8,26.3,3.1,37.4,8.2
	c4.8,2.2,8.7,6.1,10.9,10.9L46.6,19.8z"/>
<path id="Path_291" class="st0" d="M27.3,0.9h1.8v6.2h-1.8V0.9z"/>
<path id="Path_292" class="st0" d="M25.6,0h5.3v1.8h-5.3V0z M27.3,49.4h1.8v6.2h-1.8V49.4z"/>
<path id="Path_293" class="st0" d="M25.6,54.6h5.3v1.8h-5.3V54.6z M35.5,8.3l2.4-5.7l1.6,0.7L37.1,9L35.5,8.3z"/>
<path id="Path_294" class="st0" d="M35.9,2.8l0.7-1.6l4.9,2l-0.7,1.6L35.9,2.8z M16.9,53.1l2.4-5.7l1.6,0.7l-2.4,5.7L16.9,53.1z"/>
<path id="Path_295" class="st0" d="M15,53.3l0.7-1.6l4.9,2l-0.7,1.6L15,53.3z M42.5,12.6l4.4-4.4l1.2,1.2l-4.4,4.4L42.5,12.6z"/>
<path id="Path_296" class="st0" d="M45,7.6l1.2-1.2l3.7,3.7l-1.2,1.2L45,7.6z M8.3,46.9l4.4-4.4l1.2,1.2l-4.4,4.4L8.3,46.9z"/>
<path id="Path_297" class="st0" d="M6.4,46.3L7.6,45l3.7,3.7L10.1,50L6.4,46.3z M42.5,43.8l1.2-1.2l4.4,4.4l-1.2,1.2L42.5,43.8z"/>
<path id="Path_298" class="st0" d="M45,48.8l3.7-3.7l1.2,1.2L46.3,50L45,48.8z M8.3,9.5l1.2-1.2l4.4,4.4l-1.2,1.2L8.3,9.5z"/>
<path id="Path_299" class="st0" d="M6.4,10.1l3.7-3.7l1.2,1.2l-3.7,3.7L6.4,10.1z M35.5,48.1l1.6-0.7l2.4,5.7l-1.6,0.7L35.5,48.1z"
	/>
<path id="Path_300" class="st0" d="M35.9,53.6l4.9-2l0.7,1.6l-4.9,2L35.9,53.6z M16.9,3.3l1.6-0.7l2.4,5.7L19.3,9L16.9,3.3z"/>
<path id="Path_301" class="st0" d="M15,3.2l4.9-2l0.7,1.6l-4.9,2L15,3.2z M52,37.9H4.4c-2.4,0-4.4-2-4.4-4.4V22.9
	c0-2.4,2-4.4,4.4-4.4H52c2.4,0,4.4,2,4.4,4.4v10.6C56.4,35.9,54.4,37.9,52,37.9z M4.4,20.3c-1.5,0-2.6,1.2-2.6,2.6v10.6
	c0,1.5,1.2,2.6,2.6,2.6H52c1.5,0,2.6-1.2,2.6-2.6V22.9c0-1.5-1.2-2.6-2.6-2.6L4.4,20.3z"/>
<path id="Path_302" class="st0" d="M7.9,32.6c-2.4,0-4.4-2-4.4-4.4s2-4.4,4.4-4.4c0.8,0,1.5,0.2,2.2,0.6l-0.9,1.5
	c-0.4-0.2-0.9-0.4-1.3-0.4c-1.5,0-2.6,1.2-2.6,2.6c0,1.5,1.2,2.6,2.6,2.6c0.5,0,0.9-0.1,1.3-0.4l0.9,1.5C9.5,32.4,8.7,32.6,7.9,32.6
	L7.9,32.6z M22.9,32.6l-4.4-8l1.5-0.9l2.9,5.2l2.9-5.2l1.5,0.9L22.9,32.6z M28.2,23.8H30v8.8h-1.8V23.8z M14.5,32.6
	c-2.3-0.1-4.1-2.1-4-4.4c-0.1-2.3,1.7-4.3,4-4.4c2.3,0.1,4.1,2.1,4,4.4C18.6,30.5,16.9,32.5,14.5,32.6z M14.5,25.6
	c-1.3,0.1-2.3,1.3-2.2,2.6c-0.1,1.3,0.9,2.5,2.2,2.6c1.3-0.1,2.3-1.3,2.2-2.6C16.9,26.9,15.9,25.7,14.5,25.6L14.5,25.6z M34.4,32.6
	h-2.6v-8.8h2.6c2.4,0,4.4,2,4.4,4.4C38.8,30.6,36.8,32.6,34.4,32.6C34.4,32.6,34.4,32.6,34.4,32.6L34.4,32.6z M33.5,30.8h0.9
	c1.5,0,2.6-1.2,2.6-2.6c0-1.5-1.2-2.6-2.6-2.6h-0.9V30.8z M43.2,23.8H45v8.8h-1.8V23.8z M49.8,30c-1.7,0-3.1-1.4-3.1-3.1
	c0-1.7,1.4-3.1,3.1-3.1c1.7,0,3.1,1.4,3.1,3.1v0C52.9,28.6,51.5,30,49.8,30z M49.8,25.6c-0.7,0-1.3,0.6-1.3,1.3
	c0,0.7,0.6,1.3,1.3,1.3c0.7,0,1.3-0.6,1.3-1.3C51.1,26.2,50.5,25.6,49.8,25.6z"/>
<path id="Path_303" class="st0" d="M49.6,32.6h-2v-1.8h2c0.8,0,1.5-0.7,1.5-1.5v-2.4h1.8v2.4C52.9,31.1,51.4,32.6,49.6,32.6
	L49.6,32.6z M39.7,27.3h2.6v1.8h-2.6V27.3z"/>
</svg>
