<svg id="svgviewer-output_9_" data-name="svgviewer-output (9)" xmlns="http://www.w3.org/2000/svg" width="41.936" height="56.413" viewBox="0 0 41.936 56.413">
  <path id="Path_304" data-name="Path 304" d="M13.25,51.73h7.692v6.689a2.063,2.063,0,0,0,3.73,1.19L32.177,49.05l7.5,10.559a2.025,2.025,0,0,0,2.3.768,2.047,2.047,0,0,0,1.431-1.957v-6.69h7.7a2.073,2.073,0,0,0,1.518-3.449L41.416,36.05,46.57,28.8A15.164,15.164,0,0,0,47,13a16.8,16.8,0,0,0-29.679-.016,15.217,15.217,0,0,0,.494,15.87l5.123,7.2-11.2,12.234a2.066,2.066,0,0,0,1.515,3.443ZM45.238,13.974a13.177,13.177,0,0,1-.343,13.706l-4.871,6.848-6.475-7.07,4.3-4.708a24.39,24.39,0,0,0,5.865-11.017,15.6,15.6,0,0,1,1.52,2.241Zm-17.291,7.37a12.233,12.233,0,0,1-2.123-2.649,8.248,8.248,0,0,1,12.719,0c-1.29,2.044-4.8,5.448-6.362,7.272ZM32.178,6.016a14.805,14.805,0,0,1,9.811,3.892,20.848,20.848,0,0,1-2.365,6.946,10.315,10.315,0,0,0-14.875-.01,20.441,20.441,0,0,1-2.387-6.972,14.956,14.956,0,0,1,9.816-3.856ZM19.088,13.954A15.3,15.3,0,0,1,20.619,11.7c1.014,4.579,4.152,9.543,5.88,11.053L51.1,49.714H42.4a1.009,1.009,0,0,0-1.009,1.009l-.07,7.718c-.01,0-21.83-30.712-21.83-30.712a13.231,13.231,0,0,1-.4-13.774ZM24.136,37.73l6.8,9.575L22.959,58.418v-7.7a1.009,1.009,0,0,0-1.009-1.009l-8.728-.064Z" transform="translate(-11.209 -4.068)" fill="#0c141c"/>
</svg>
