<svg id="svgviewer-output_10_" data-name="svgviewer-output (10)" xmlns="http://www.w3.org/2000/svg" width="36.332" height="56.413" viewBox="0 0 36.332 56.413">
  <path id="Path_305" data-name="Path 305" d="M125.957,46.865a9.988,9.988,0,0,0-2.833-4.683,10.954,10.954,0,0,0-2.583-1.77,3.375,3.375,0,0,0-2.258-3.843l-.085-.024a11.365,11.365,0,0,0-5.211-8.342,14.773,14.773,0,0,1-4.742-4.516l1.1.242a3.514,3.514,0,0,0,3.213-.9,8.11,8.11,0,0,0,2.523-5.484l.676-.262a1.549,1.549,0,0,0,.72-2.313l-.67-.988a3.646,3.646,0,0,1-.6-2.512l.268-2.081a7.44,7.44,0,0,0-1.6-5.632.882.882,0,0,0-.179-.216l-.012-.014A7.445,7.445,0,0,0,108.1,1h-5.214a7.393,7.393,0,0,0-6.931,4.737,10.17,10.17,0,0,0-.632,2.576,5.7,5.7,0,1,0,3.253,10.594l-.024.173a71.528,71.528,0,0,0-.668,8.266,4.4,4.4,0,0,0-.584,2.192v8.646a18.144,18.144,0,0,0,2.951,9.949,11.529,11.529,0,0,1-2.557,7.046l-.639.79a.884.884,0,1,0,1.375,1.113l.639-.79a13.262,13.262,0,0,0,2.754-6.088q.252.289.518.567l6.074,6.364a.885.885,0,1,0,1.281-1.221l-6.074-6.364A16.4,16.4,0,0,1,99.07,38.183V29.537a2.655,2.655,0,1,1,5.309,0V40.879a10.457,10.457,0,0,0,2.313,6.547l7.8,9.656a.885.885,0,1,0,1.377-1.112l-7.8-9.656a8.679,8.679,0,0,1-1.92-5.435V29.537a4.573,4.573,0,0,0-.05-.667,13.881,13.881,0,0,0,5,.95q.531,0,1.066-.042a9.593,9.593,0,0,1,4.252,6.731,3.374,3.374,0,0,0-1.8,1.14l-.651.8a3.374,3.374,0,0,0,1.637,5.355l.166.051a3.393,3.393,0,0,0,.992.148,3.354,3.354,0,0,0,2.92-1.707l.149-.262a8.311,8.311,0,0,1,4.427,5.3,8.842,8.842,0,0,1-2.221,8.543.885.885,0,0,0,1.2,1.3A10.538,10.538,0,0,0,125.957,46.865ZM97.6,6.38a5.634,5.634,0,0,1,5.282-3.61H108.1a5.673,5.673,0,0,1,4,1.65,3.738,3.738,0,0,1-3.82,2.206,1.778,1.778,0,0,0-1.818,1.3,8.925,8.925,0,0,1-2.03,3.567,2.507,2.507,0,0,0-2.774-.226,3.077,3.077,0,0,0-1.578,3,3.245,3.245,0,0,0,.438,1.505,2.069,2.069,0,0,1-.76.559l-1.478-2.413A8.561,8.561,0,0,1,97.6,6.38ZM91.77,14a3.932,3.932,0,0,1,3.51-3.9,10.31,10.31,0,0,0,1.487,4.747l1.366,2.232A3.922,3.922,0,0,1,91.77,14Zm7.947,11.6c.1-2.1.3-4.2.587-6.272l.05-.355a3.824,3.824,0,0,0,.01-.973,4.006,4.006,0,0,0,1.356-.921,4.572,4.572,0,0,0,2.36.844.885.885,0,0,0,.155-1.763,2.693,2.693,0,0,1-2.142-1.217c-.028-.042-.056-.082-.087-.122a1.446,1.446,0,0,1-.167-.7,1.311,1.311,0,0,1,.648-1.286.775.775,0,0,1,.928.115,1.756,1.756,0,0,0,2.338-.277,10.72,10.72,0,0,0,2.419-4.276,5.55,5.55,0,0,0,5.055-2.371,5.663,5.663,0,0,1,.5,3.139l-.268,2.081a5.408,5.408,0,0,0,.889,3.731l.514.759-.487.189a1.666,1.666,0,0,0-1.051,1.445,6.425,6.425,0,0,1-1.993,4.391,1.751,1.751,0,0,1-1.6.446l-4.273-.94a.885.885,0,0,0-.38,1.728l.876.192a14.128,14.128,0,0,0,3.714,4.774,13.715,13.715,0,0,1-4.862-1.631c-.024-.013-.05-.025-.075-.037a4.424,4.424,0,0,0-5.011-.689Zm18.9,14.972-.486.852a1.6,1.6,0,0,1-1.86.741l-.166-.051a1.6,1.6,0,0,1-.779-2.545l.651-.8a1.6,1.6,0,0,1,2.639,1.805Z" transform="translate(-90 -1)" fill="#0c141c"/>
</svg>
