<?xml version="1.0" encoding="utf-8"?>
<!-- Generator: Adobe Illustrator 27.1.1, SVG Export Plug-In . SVG Version: 6.00 Build 0)  -->
<svg version="1.1" id="Layer_1" xmlns="http://www.w3.org/2000/svg" xmlns:xlink="http://www.w3.org/1999/xlink" x="0px" y="0px"
	 viewBox="0 0 512 512" style="enable-background:new 0 0 512 512;" xml:space="preserve">
<style type="text/css">
	.st0{fill:#0F0F0F;}
	.st1{fill-rule:evenodd;clip-rule:evenodd;fill:#0F0F0F;}
</style>
<g>
	<path d="M411.8,246.6c-8.4,1.5-14.1,9.6-12.6,18c1.5,8.4,9.6,14.1,18,12.6c8.4-1.5,14.1-9.6,12.6-18
		C428.3,250.7,420.3,245.1,411.8,246.6z"/>
	<path d="M471.4,211.9c-4.2-6.7-9.2-12.8-14.8-18.3c4.5-6.6,6.3-14.7,4.9-22.6l-4.1-23.3c-0.4-2.9-1.2-5.7-2.5-8.3
		c-6.6-13.9-23.3-19.8-37.2-13.2c-12,6.4-23.2,14.2-33.2,23.3c-13.7-8.8-31.8-5.6-41.6,7.4c-12.6-5.1-25.8-8.6-39.2-10.5
		c-2.9-0.3-5.8-0.1-8.6,0.5c-15,3.3-24.5,18.2-21.2,33.2l4.1,23.3c1.4,7.9,5.9,14.9,12.4,19.5c0,0,0,0,0,0l0,0c0,0,0,0,0,0
		c-3.4,7.1-5.9,14.6-7.6,22.3c-11.6,6.2-19.5,17.6-21.4,30.6c-3.3,22.6,12.5,43.6,35.1,46.9c14.8,23.4,38.4,39.9,65.5,45.8
		c55.9,12.2,111-23.3,123.2-79.2c11.6-6.2,19.5-17.6,21.4-30.6C509.8,236.1,494.1,215.1,471.4,211.9z M427.2,144.6
		c1.8-1,3.9-0.9,5.6,0.2c2.3,1.4,3.8,3.8,4.2,6.4l4.1,23.3c0.5,2.6-0.1,5.4-1.7,7.5c-1.2,1.6-3.2,2.4-5.2,2.1l0,0
		c-12.2-1.7-24.1-5-35.5-9.6c-0.1-2.9-0.6-5.9-1.5-8.7C406.3,157.6,416.4,150.4,427.2,144.6z M365.9,165.3c5.6-1,11,2.8,12,8.4
		c1,5.6-2.8,11-8.4,12c-5.6,1-11-2.8-12-8.4S360.3,166.3,365.9,165.3z M296,169c1.2-1.6,3.2-2.4,5.2-2.1c12.2,1.7,24.1,5,35.5,9.7
		l0,0c0.1,2.9,0.6,5.9,1.5,8.7c-9.1,8.3-19.2,15.4-30,21.2c-1.8,1-3.9,0.9-5.6-0.2c-2.3-1.4-3.8-3.8-4.2-6.4l-4.1-23.3
		C293.7,173.8,294.4,171.1,296,169z M472.5,272.4l-5.8,2.1l-1,6c-7.2,45.2-49.7,75.9-94.9,68.7c-25-4-46.9-19.3-59.2-41.4l-3-5.4
		l-6.1,0c-11.4,0.1-20.8-9.1-20.9-20.6c-0.1-8.8,5.5-16.7,13.8-19.7l5.8-2.1l1-6c1.5-9.4,4.7-18.5,9.3-26.9c2.1-0.5,4.2-1.3,6.2-2.3
		c12-6.4,23.2-14.2,33.3-23.3c13.7,8.8,31.8,5.6,41.6-7.4c12.6,5.1,25.8,8.6,39.2,10.5c2.2,0.3,4.4,0.3,6.6,0.1
		c7.2,6.3,13.3,13.7,18,22.1l3,5.4l6.1,0c11.4-0.1,20.8,9.1,20.9,20.6C486.3,261.5,480.8,269.4,472.5,272.4z"/>
	<path d="M414.4,294.6c-5.4-1.6-11.1,1.5-12.8,6.9c-2.1,3.8-6.1,6.3-10.5,6.5c-4.2,1.3-8.8,0.3-12.1-2.6c-3.4-4.6-9.9-5.5-14.5-2
		c-4.5,3.4-5.5,9.8-2.1,14.4c8,9.3,20.4,13.4,32.3,10.6c12.1-1.5,22.4-9.6,26.7-21.1C423,301.9,419.9,296.2,414.4,294.6z"/>
	<path d="M368.6,270c-1.5-8.4-9.6-14.1-18-12.6c-8.4,1.5-14.1,9.6-12.6,18c1.5,8.4,9.6,14.1,18,12.6
		C364.5,286.5,370.1,278.5,368.6,270z"/>
</g>
<g id="baby-svgrepo-com_1_" transform="matrix(0.985, 0.174, -0.174, 0.985, 4.168, 0)">
	<path id="Path_5449" class="st0" d="M148.8,231.1c5.7,0,10.4-4.6,10.4-10.4s-4.6-10.4-10.4-10.4c-5.7,0-10.4,4.6-10.4,10.4
		S143,231.1,148.8,231.1z"/>
	<path id="Path_5450" class="st0" d="M200.5,220.7c0,5.7-4.6,10.4-10.4,10.4c-5.7,0-10.4-4.6-10.4-10.4c0-5.7,4.6-10.4,10.4-10.4
		C195.9,210.4,200.5,215,200.5,220.7z"/>
	<path id="Path_5451" class="st0" d="M131.1,254.8c4-4,10.5-4.1,14.6-0.1c1.6,1.3,3.3,2.5,5.2,3.3c5.8,2.8,12.2,4.2,18.6,4.1
		c6.4,0.1,12.8-1.3,18.6-4.1c1.9-0.9,3.6-2,5.2-3.3c4.3-3.8,10.8-3.4,14.6,0.9c3.5,4,3.4,9.9-0.1,13.8c-1,0.9-2,1.8-3.1,2.6
		c-2.3,1.7-4.8,3.2-7.4,4.5c-8.7,4.2-18.2,6.4-27.8,6.3c-9.7,0.1-19.3-2-28-6.3c-2.6-1.3-5.1-2.8-7.4-4.5c-1.1-0.8-2.1-1.6-3-2.6
		C127,265.4,127,258.9,131.1,254.8C131.1,254.8,131.1,254.8,131.1,254.8z"/>
	<path id="Path_5452" class="st1" d="M181.2,125.5c2.3,4,2.5,8.9,0.7,13.2c-48.7-5.8-94.8,23.2-110.5,69.7
		C53,212.6,41.6,231,46,249.4c3,12.6,12.8,22.4,25.4,25.4c18.4,54.2,77.1,83.2,131.3,64.8c30.5-10.3,54.5-34.3,64.8-64.8
		c18.4-4.3,29.7-22.7,25.4-41.1c-3-12.6-12.8-22.4-25.4-25.4c-10.4-30.7-34.6-54.8-65.4-65.1c2.9-9.3,1.8-19.4-3-27.8
		c-6-11-17.2-18.1-29.6-18.9c-7.8,0-15.5,2.5-21.7,7.2c-2,1.5-3.8,3.1-5.4,5c-0.6,0.7-1.1,1.3-1.5,1.8c-3.7,4.6-2.9,11.2,1.6,14.9
		c0.2,0.1,0.4,0.3,0.6,0.4c5,3.1,11.6,1.6,14.8-3.4c0.7-0.8,1.5-1.5,2.4-2.2c2.7-2,6-3.1,9.3-3.1C174.4,118,178.8,121.1,181.2,125.5
		z M251.6,257.2l11.1-2.6c7.2-1.7,11.8-8.9,10.1-16.1c-1.2-5-5.1-8.9-10.1-10.1l-11.1-2.7l-3.7-10.8c-14.6-43.3-61.6-66.6-104.9-52
		c-24.5,8.3-43.8,27.5-52,52l-3.7,10.8l-11.1,2.7c-7.2,1.7-11.8,8.9-10.1,16.1c1.2,5,5.1,8.9,10.1,10.1l11.1,2.7l3.7,10.8
		c14.7,43.3,61.7,66.5,105,51.9c24.4-8.3,43.6-27.4,51.9-51.9L251.6,257.2z"/>
</g>
</svg>
