<?xml version="1.0" encoding="utf-8"?>
<!-- Generator: Adobe Illustrator 27.1.1, SVG Export Plug-In . SVG Version: 6.00 Build 0)  -->
<svg version="1.1" id="Group_8656" xmlns="http://www.w3.org/2000/svg" xmlns:xlink="http://www.w3.org/1999/xlink" x="0px" y="0px"
	 viewBox="0 0 51.7 27.8" style="enable-background:new 0 0 51.7 27.8;" xml:space="preserve">
<style type="text/css">
	.st0{fill-rule:evenodd;clip-rule:evenodd;}
	.st1{fill:#0F0F0F;}
	.st2{fill-rule:evenodd;clip-rule:evenodd;fill:#0F0F0F;}
</style>
<path id="baby-girl-svgrepo-com" class="st0" d="M31.2,12c0.2-0.1,0.4-0.1,0.6-0.2c1.2-0.6,2.2-1.4,3.2-2.2c1.3,0.9,3.1,0.5,4-0.7
	c1.2,0.5,2.5,0.8,3.8,1c0.2,0,0.4,0,0.6,0c0.7,0.6,1.3,1.3,1.7,2.1l0.3,0.5l0.6,0c1.1,0,2,0.9,2,2c0,0.9-0.5,1.6-1.3,1.9l-0.6,0.2
	l-0.1,0.6c-0.7,4.4-4.8,7.3-9.2,6.6c-2.4-0.4-4.5-1.9-5.7-4l-0.3-0.5l-0.6,0c-1.1,0-2-0.9-2-2c0-0.9,0.5-1.6,1.3-1.9l0.6-0.2
	l0.1-0.6C30.4,13.7,30.7,12.8,31.2,12z M29.1,11.6c-0.6-0.5-1.1-1.1-1.2-1.9l-0.4-2.3c-0.3-1.5,0.6-2.9,2.1-3.2
	c0.3-0.1,0.6-0.1,0.8-0.1c1.3,0.2,2.6,0.5,3.8,1c0.9-1.3,2.7-1.6,4-0.7c1-0.9,2.1-1.6,3.2-2.2c1.3-0.6,3-0.1,3.6,1.3
	c0.1,0.3,0.2,0.5,0.2,0.8l0.4,2.3c0.1,0.8,0,1.5-0.5,2.2c0.5,0.5,1,1.1,1.4,1.8c2.2,0.3,3.7,2.3,3.4,4.5c-0.2,1.3-0.9,2.4-2.1,3
	c-1.2,5.4-6.5,8.8-11.9,7.6c-2.6-0.6-4.9-2.2-6.3-4.4c-2.2-0.3-3.7-2.3-3.4-4.5c0.2-1.3,0.9-2.4,2.1-3C28.6,13,28.8,12.3,29.1,11.6
	L29.1,11.6z M33.6,7.1c-1.1-0.5-2.2-0.8-3.4-0.9c-0.2,0-0.4,0-0.5,0.2c-0.2,0.2-0.2,0.5-0.2,0.7l0.4,2.3c0,0.3,0.2,0.5,0.4,0.6
	c0.2,0.1,0.4,0.1,0.5,0c1-0.6,2-1.2,2.9-2C33.7,7.7,33.6,7.4,33.6,7.1L33.6,7.1z M43,7.8c-1.2-0.2-2.3-0.5-3.4-0.9
	c0-0.3-0.1-0.6-0.1-0.8c0.9-0.8,1.8-1.5,2.9-2.1c0.2-0.1,0.4-0.1,0.5,0c0.2,0.1,0.4,0.4,0.4,0.6l0.4,2.3c0.1,0.3,0,0.5-0.2,0.7
	C43.4,7.8,43.2,7.9,43,7.8L43,7.8z M35.6,7.2c-0.1-0.5,0.3-1.1,0.8-1.2c0.5-0.1,1.1,0.3,1.2,0.8c0.1,0.5-0.3,1.1-0.8,1.2
	C36.2,8.1,35.7,7.7,35.6,7.2z M37.7,19.6c-0.3-0.4-1-0.5-1.4-0.2c-0.4,0.3-0.5,0.9-0.2,1.4c0.8,0.9,2,1.3,3.1,1
	c1.2-0.1,2.2-0.9,2.6-2c0.2-0.5-0.2-1.1-0.7-1.2c-0.5-0.2-1.1,0.1-1.2,0.7c-0.2,0.4-0.6,0.6-1,0.6C38.5,19.9,38,19.8,37.7,19.6z
	 M42.6,15.1c0.1,0.8-0.4,1.6-1.2,1.7c-0.8,0.1-1.6-0.4-1.7-1.2c-0.1-0.8,0.4-1.6,1.2-1.7S42.5,14.3,42.6,15.1z M35.5,17.9
	c0.8-0.1,1.4-0.9,1.2-1.7c-0.1-0.8-0.9-1.4-1.7-1.2c-0.8,0.1-1.4,0.9-1.2,1.7C33.9,17.5,34.7,18,35.5,17.9z"/>
<g id="baby-svgrepo-com_1_" transform="matrix(0.985, 0.174, -0.174, 0.985, 4.168, 0)">
	<path id="Path_5449" class="st1" d="M10,13c0.6,0,1-0.4,1-1c0-0.6-0.4-1-1-1c-0.6,0-1,0.4-1,1C9,12.6,9.4,13,10,13z"/>
	<path id="Path_5450" class="st1" d="M15,12c0,0.6-0.4,1-1,1c-0.6,0-1-0.4-1-1c0-0.6,0.4-1,1-1C14.6,11,15,11.4,15,12z"/>
	<path id="Path_5451" class="st1" d="M8.3,15.3c0.4-0.4,1-0.4,1.4,0c0.2,0.1,0.3,0.2,0.5,0.3c0.6,0.3,1.2,0.4,1.8,0.4
		c0.6,0,1.2-0.1,1.8-0.4c0.2-0.1,0.3-0.2,0.5-0.3c0.4-0.4,1-0.3,1.4,0.1c0.3,0.4,0.3,1,0,1.3c-0.1,0.1-0.2,0.2-0.3,0.2
		c-0.2,0.2-0.5,0.3-0.7,0.4C13.9,17.8,12.9,18,12,18c-0.9,0-1.9-0.2-2.7-0.6C9,17.3,8.8,17.1,8.6,17c-0.1-0.1-0.2-0.2-0.3-0.2
		C7.9,16.3,7.9,15.7,8.3,15.3C8.3,15.3,8.3,15.3,8.3,15.3z"/>
	<path id="Path_5452" class="st2" d="M13.1,2.8c0.2,0.4,0.2,0.9,0.1,1.3C8.5,3.5,4,6.3,2.5,10.8c-1.8,0.4-2.9,2.2-2.5,4
		c0.3,1.2,1.2,2.2,2.5,2.5c1.8,5.2,7.4,8,12.7,6.3c2.9-1,5.3-3.3,6.3-6.3c1.8-0.4,2.9-2.2,2.5-4c-0.3-1.2-1.2-2.2-2.5-2.5
		c-1-3-3.3-5.3-6.3-6.3c0.3-0.9,0.2-1.9-0.3-2.7C14.3,0.8,13.2,0.1,12,0c-0.8,0-1.5,0.2-2.1,0.7C9.7,0.8,9.5,1,9.4,1.2
		C9.3,1.2,9.3,1.3,9.2,1.4C8.9,1.8,9,2.4,9.4,2.8c0,0,0,0,0.1,0c0.5,0.3,1.1,0.2,1.4-0.3c0.1-0.1,0.1-0.1,0.2-0.2
		C11.4,2.1,11.7,2,12,2C12.5,2.1,12.9,2.4,13.1,2.8z M19.9,15.5l1.1-0.3c0.7-0.2,1.1-0.9,1-1.6c-0.1-0.5-0.5-0.9-1-1l-1.1-0.3
		l-0.4-1c-1.4-4.2-5.9-6.4-10.1-5c-2.4,0.8-4.2,2.7-5,5l-0.4,1L3,12.7c-0.7,0.2-1.1,0.9-1,1.6c0.1,0.5,0.5,0.9,1,1l1.1,0.3l0.4,1
		c1.4,4.2,6,6.4,10.1,5c2.4-0.8,4.2-2.7,5-5L19.9,15.5z"/>
</g>
</svg>
